solid model
facet normal 0.800000000000483 7.78842247580905e-014 -0.599999999999356
outer loop
vertex 454.030684657742 1595.21630097213 20.9384889559295
vertex 453.130684657743 1585.91630097213 19.7384889559268
vertex 453.130684657743 1598.21630097213 19.7384889559294
endloop
endfacet
facet normal 0.800000000000483 7.78842247580905e-014 -0.599999999999356
outer loop
vertex 453.130684657743 1585.91630097213 19.7384889559268
vertex 454.030684657742 1595.21630097213 20.9384889559295
vertex 454.030684657742 1585.91630097213 20.9384889559275
endloop
endfacet
facet normal -1.03566116831242e-012 -0.25881904510269 0.965925826289023
outer loop
vertex 453.130684657733 1581.69866288192 30.1703406085042
vertex 451.130684657733 1581.21630097213 29.9705397634927
vertex 453.130684657733 1581.21630097213 29.970539763495
endloop
endfacet
facet normal -9.4840955617345e-013 -0.500000000000195 0.866025403784326
outer loop
vertex 451.130684657733 1581.21630097213 29.9705397634927
vertex 453.130684657733 1581.69866288192 30.1703406085042
vertex 451.130684657733 1581.69866288192 30.1703406085022
endloop
endfacet
facet normal 8.08918970462386e-013 -0.499999999999795 -0.866025403784557
outer loop
vertex 453.130684657746 1581.21630097213 15.5064381483568
vertex 451.130684657746 1581.69866288193 15.3066373033457
vertex 453.130684657746 1581.69866288193 15.3066373033478
endloop
endfacet
facet normal 9.21500532532854e-013 -0.258819045102284 -0.965925826289132
outer loop
vertex 451.130684657746 1581.69866288193 15.3066373033457
vertex 453.130684657746 1581.21630097213 15.5064381483568
vertex 451.130684657746 1581.21630097213 15.506438148355
endloop
endfacet
facet normal -6.73561426533636e-014 -1.0 -2.14883662021112e-013
outer loop
vertex 453.130684657737 1580.21630097213 25.7384889559256
vertex 452.130684657742 1580.21630097213 19.7384889559246
vertex 453.130684657742 1580.21630097213 19.7384889559255
endloop
endfacet
facet normal -6.73561426533636e-014 -1.0 -2.14883662021112e-013
outer loop
vertex 452.130684657742 1580.21630097213 19.7384889559246
vertex 453.130684657737 1580.21630097213 25.7384889559256
vertex 452.130684657737 1580.21630097213 25.7384889559247
endloop
endfacet
facet normal 1.0 -6.61004936535294e-014 9.21075706578185e-013
outer loop
vertex 453.130684657737 1583.21630097213 25.7384889559263
vertex 453.130684657743 1585.91630097213 19.7384889559268
vertex 453.130684657737 1585.91630097213 25.7384889559269
endloop
endfacet
facet normal 1.0 -6.61004936535294e-014 9.21075706578185e-013
outer loop
vertex 453.130684657743 1585.91630097213 19.7384889559268
vertex 453.130684657737 1583.21630097213 25.7384889559263
vertex 453.130684657742 1583.21630097213 19.7384889559262
endloop
endfacet
facet normal -6.73561309575327e-014 -1.0 -2.14883663482625e-013
outer loop
vertex 453.130684657743 1600.21630097213 19.7384889559298
vertex 451.130684657744 1600.21630097213 18.738488955928
vertex 453.130684657744 1600.21630097213 18.7384889559299
endloop
endfacet
facet normal -6.73561309575327e-014 -1.0 -2.14883663482625e-013
outer loop
vertex 451.130684657744 1600.21630097213 18.738488955928
vertex 453.130684657743 1600.21630097213 19.7384889559298
vertex 451.130684657744 1600.21630097213 19.738488955928
endloop
endfacet
facet normal 0.957826285221159 0.287347885566322 9.40939283766531e-013
outer loop
vertex 454.030684657739 1595.21630097213 24.5384889559296
vertex 453.130684657743 1598.21630097213 19.7384889559294
vertex 453.130684657738 1598.21630097213 25.7384889559295
endloop
endfacet
facet normal 0.957826285221159 0.287347885566322 9.40939283766531e-013
outer loop
vertex 453.130684657743 1598.21630097213 19.7384889559294
vertex 454.030684657739 1595.21630097213 24.5384889559296
vertex 454.030684657742 1595.21630097213 20.9384889559295
endloop
endfacet
facet normal 6.55396043657737e-013 -0.70710678118645 -0.707106781186645
outer loop
vertex 453.130684657746 1580.80208740976 15.8242753935527
vertex 451.130684657746 1581.21630097213 15.506438148355
vertex 453.130684657746 1581.21630097213 15.5064381483568
endloop
endfacet
facet normal 8.08918970462366e-013 -0.499999999999826 -0.866025403784539
outer loop
vertex 451.130684657746 1581.21630097213 15.506438148355
vertex 453.130684657746 1580.80208740976 15.8242753935527
vertex 451.130684657746 1580.80208740976 15.8242753935506
endloop
endfacet
facet normal -3.08742057841575e-013 -0.965925826289126 0.258819045102305
outer loop
vertex 453.130684657734 1580.28444931955 28.7561270461307
vertex 451.130684657734 1580.21630097213 28.2384889559238
vertex 453.130684657734 1580.21630097213 28.2384889559256
endloop
endfacet
facet normal -1.83156542650854e-013 -0.991444861373849 0.130526192219761
outer loop
vertex 451.130684657734 1580.21630097213 28.2384889559238
vertex 453.130684657734 1580.28444931955 28.7561270461307
vertex 451.130684657734 1580.28444931955 28.7561270461288
endloop
endfacet
facet normal -6.44691690342142e-014 -1.0 -2.14885032073939e-013
outer loop
vertex 453.130684657734 1580.21630097213 28.2384889559256
vertex 452.132972249904 1580.21630097213 26.7384889559247
vertex 453.130684657736 1580.21630097213 26.7384889559256
endloop
endfacet
facet normal -6.44691690342142e-014 -1.0 -2.14885032073939e-013
outer loop
vertex 452.132972249904 1580.21630097213 26.7384889559247
vertex 453.130684657734 1580.21630097213 28.2384889559256
vertex 451.130684657734 1580.21630097213 28.2384889559238
endloop
endfacet
facet normal 1.0 -6.52724913410903e-014 9.1979230849943e-013
outer loop
vertex 454.030684657738 1585.91630097213 24.5384889559276
vertex 454.030684657742 1595.21630097213 20.9384889559295
vertex 454.030684657739 1595.21630097213 24.5384889559296
endloop
endfacet
facet normal 1.0 -6.52724913410903e-014 9.1979230849943e-013
outer loop
vertex 454.030684657742 1595.21630097213 20.9384889559295
vertex 454.030684657738 1585.91630097213 24.5384889559276
vertex 454.030684657742 1585.91630097213 20.9384889559275
endloop
endfacet
facet normal -0.830743707940402 -0.0416322055368904 -0.555096073828275
outer loop
vertex 451.130684657734 1580.21630097213 28.2384889559238
vertex 451.130684657737 1600.21630097213 26.738488955928
vertex 452.132972249904 1580.21630097213 26.7384889559247
endloop
endfacet
facet normal -9.4840955617345e-013 -0.500000000000195 0.866025403784326
outer loop
vertex 451.130684657733 1581.21630097213 29.9705397634927
vertex 453.130684657733 1580.80208740976 29.6527025182989
vertex 453.130684657733 1581.21630097213 29.970539763495
endloop
endfacet
facet normal -7.79457777026597e-013 -0.707106781186747 0.707106781186348
outer loop
vertex 453.130684657733 1580.80208740976 29.6527025182989
vertex 451.130684657733 1581.21630097213 29.9705397634927
vertex 451.130684657733 1580.80208740976 29.6527025182969
endloop
endfacet
facet normal -1.05154920973465e-012 -0.130526192220349 0.991444861373771
outer loop
vertex 451.130684657733 1582.21630097213 30.2384889559241
vertex 453.130684657733 1581.69866288192 30.1703406085042
vertex 453.130684657733 1582.21630097213 30.2384889559263
endloop
endfacet
facet normal -1.03566116831242e-012 -0.25881904510269 0.965925826289023
outer loop
vertex 453.130684657733 1581.69866288192 30.1703406085042
vertex 451.130684657733 1582.21630097213 30.2384889559241
vertex 451.130684657733 1581.69866288192 30.1703406085022
endloop
endfacet
facet normal 6.55396043657737e-013 -0.70710678118645 -0.707106781186645
outer loop
vertex 453.130684657746 1580.80208740976 15.8242753935527
vertex 451.130684657746 1580.48425016456 16.2384889559236
vertex 451.130684657746 1580.80208740976 15.8242753935506
endloop
endfacet
facet normal 4.4176469388204e-013 -0.866025403784301 -0.500000000000239
outer loop
vertex 451.130684657746 1580.48425016456 16.2384889559236
vertex 453.130684657746 1580.80208740976 15.8242753935527
vertex 453.130684657745 1580.48425016456 16.2384889559257
endloop
endfacet
facet normal 5.38154267137614e-014 -0.991444861373793 -0.130526192220187
outer loop
vertex 453.130684657744 1580.21630097213 17.2384889559255
vertex 451.130684657745 1580.28444931955 16.7208508657187
vertex 453.130684657745 1580.28444931955 16.7208508657205
endloop
endfacet
facet normal 1.82322745863705e-013 -0.965925826289015 -0.25881904510272
outer loop
vertex 451.130684657745 1580.28444931955 16.7208508657187
vertex 453.130684657744 1580.21630097213 17.2384889559255
vertex 451.130684657745 1580.21630097213 17.2384889559237
endloop
endfacet
facet normal -6.73561192752543e-014 -1.0 -2.1488366275251e-013
outer loop
vertex 453.130684657742 1580.21630097213 19.6384889559255
vertex 452.130684657743 1580.21630097213 18.8384889559246
vertex 453.130684657743 1580.21630097213 18.8384889559255
endloop
endfacet
facet normal -6.73561192752543e-014 -1.0 -2.1488366275251e-013
outer loop
vertex 452.130684657743 1580.21630097213 18.8384889559246
vertex 453.130684657742 1580.21630097213 19.6384889559255
vertex 452.130684657742 1580.21630097213 19.6384889559246
endloop
endfacet
facet normal 9.30250403416859e-013 2.15410460213055e-013 -1.0
outer loop
vertex 452.130684657742 1580.21630097213 19.7384889559246
vertex 453.130684657742 1583.21630097213 19.7384889559262
vertex 453.130684657742 1580.21630097213 19.7384889559255
endloop
endfacet
facet normal 9.30250403416859e-013 2.15410460213055e-013 -1.0
outer loop
vertex 453.130684657742 1583.21630097213 19.7384889559262
vertex 452.130684657742 1580.21630097213 19.7384889559246
vertex 453.130684657743 1598.21630097213 19.7384889559294
endloop
endfacet
facet normal 9.30250403416859e-013 2.15410460213055e-013 -1.0
outer loop
vertex 453.130684657743 1598.21630097213 19.7384889559294
vertex 452.130684657742 1580.21630097213 19.7384889559246
vertex 453.130684657743 1600.21630097213 19.7384889559298
endloop
endfacet
facet normal 9.30250403416859e-013 2.15410460213055e-013 -1.0
outer loop
vertex 453.130684657743 1600.21630097213 19.7384889559298
vertex 452.130684657742 1580.21630097213 19.7384889559246
vertex 451.130684657744 1600.21630097213 19.738488955928
endloop
endfacet
facet normal 9.30250403416859e-013 2.15410460213055e-013 -1.0
outer loop
vertex 453.130684657743 1598.21630097213 19.7384889559294
vertex 453.130684657743 1585.91630097213 19.7384889559268
vertex 453.130684657742 1583.21630097213 19.7384889559262
endloop
endfacet
facet normal 9.25109164098248e-013 2.14888423267668e-013 -1.0
outer loop
vertex 452.132972249904 1580.21630097213 26.7384889559247
vertex 453.130684657737 1600.21630097213 26.7384889559299
vertex 453.130684657736 1580.21630097213 26.7384889559256
endloop
endfacet
facet normal 9.25109164098248e-013 2.14888423267668e-013 -1.0
outer loop
vertex 453.130684657737 1600.21630097213 26.7384889559299
vertex 452.132972249904 1580.21630097213 26.7384889559247
vertex 451.130684657737 1600.21630097213 26.738488955928
endloop
endfacet
facet normal 6.78402876447135e-014 1.0 2.1488366822807e-013
outer loop
vertex 452.110709610959 1580.61580190768 26.6384889559248
vertex 453.130684657737 1580.61580190768 25.8384889559257
vertex 452.110709610959 1580.61580190768 25.8384889559248
endloop
endfacet
facet normal 6.78402876447135e-014 1.0 2.1488366822807e-013
outer loop
vertex 453.130684657737 1580.61580190768 25.8384889559257
vertex 452.110709610959 1580.61580190768 26.6384889559248
vertex 453.130684657736 1580.61580190768 26.6384889559257
endloop
endfacet
facet normal -9.01514978018375e-013 -2.16027190758307e-013 1.0
outer loop
vertex 452.110709610965 1580.61580190768 19.6384889559247
vertex 453.130684657742 1580.21630097213 19.6384889559255
vertex 453.130684657742 1580.61580190768 19.6384889559256
endloop
endfacet
facet normal -9.01514978018375e-013 -2.16027190758307e-013 1.0
outer loop
vertex 453.130684657742 1580.21630097213 19.6384889559255
vertex 452.110709610965 1580.61580190768 19.6384889559247
vertex 452.130684657742 1580.21630097213 19.6384889559246
endloop
endfacet
facet normal 6.78402833621149e-014 1.0 2.14883662750858e-013
outer loop
vertex 452.110709610966 1580.61580190768 18.8384889559247
vertex 453.130684657742 1580.61580190768 19.6384889559256
vertex 453.130684657743 1580.61580190768 18.8384889559256
endloop
endfacet
facet normal 6.78402833621149e-014 1.0 2.14883662750858e-013
outer loop
vertex 453.130684657742 1580.61580190768 19.6384889559256
vertex 452.110709610966 1580.61580190768 18.8384889559247
vertex 452.110709610965 1580.61580190768 19.6384889559247
endloop
endfacet
facet normal -9.16767520076486e-013 -2.15646085356168e-013 1.0
outer loop
vertex 451.610709610965 1590.61580190768 19.6384889559264
vertex 453.130684657743 1590.21580190768 19.6384889559277
vertex 453.130684657743 1590.61580190768 19.6384889559278
endloop
endfacet
facet normal -9.16767520076486e-013 -2.15646085356168e-013 1.0
outer loop
vertex 453.130684657743 1590.21580190768 19.6384889559277
vertex 451.610709610965 1590.61580190768 19.6384889559264
vertex 451.620709610965 1590.21580190768 19.6384889559263
endloop
endfacet
facet normal -5.52771457181723e-013 -0.86602540378452 0.49999999999986
outer loop
vertex 453.130684657733 1580.48425016456 29.2384889559258
vertex 451.130684657734 1580.28444931955 28.7561270461288
vertex 453.130684657734 1580.28444931955 28.7561270461307
endloop
endfacet
facet normal -3.08742057841577e-013 -0.965925826289125 0.258819045102307
outer loop
vertex 451.130684657734 1580.28444931955 28.7561270461288
vertex 453.130684657733 1580.48425016456 29.2384889559258
vertex 451.130684657733 1580.48425016456 29.2384889559237
endloop
endfacet
facet normal 6.51865702838374e-014 1.0 2.17367472060577e-013
outer loop
vertex 451.610709610965 1590.61580190768 19.6384889559264
vertex 453.130684657744 1590.61580190768 18.8384889559278
vertex 451.615709610966 1590.61580190768 18.8384889559264
endloop
endfacet
facet normal 6.51865702838374e-014 1.0 2.17367472060577e-013
outer loop
vertex 453.130684657744 1590.61580190768 18.8384889559278
vertex 451.610709610965 1590.61580190768 19.6384889559264
vertex 453.130684657743 1590.61580190768 19.6384889559278
endloop
endfacet
facet normal -9.24385465132771e-013 -2.16598952936165e-013 1.0
outer loop
vertex 452.110709610959 1580.61580190768 26.6384889559248
vertex 453.130684657736 1580.21630097213 26.6384889559256
vertex 453.130684657736 1580.61580190768 26.6384889559257
endloop
endfacet
facet normal -9.24385465132771e-013 -2.16598952936165e-013 1.0
outer loop
vertex 453.130684657736 1580.21630097213 26.6384889559256
vertex 452.110709610959 1580.61580190768 26.6384889559248
vertex 452.130684657736 1580.21630097213 26.6384889559247
endloop
endfacet
facet normal 9.21500532532854e-013 -0.258819045102284 -0.965925826289132
outer loop
vertex 451.130684657746 1581.69866288193 15.3066373033457
vertex 453.130684657746 1582.21630097213 15.2384889559259
vertex 453.130684657746 1581.69866288193 15.3066373033478
endloop
endfacet
facet normal 9.54554702609992e-013 -0.130526192219923 -0.991444861373828
outer loop
vertex 453.130684657746 1582.21630097213 15.2384889559259
vertex 451.130684657746 1581.69866288193 15.3066373033457
vertex 451.130684657746 1582.21630097213 15.2384889559241
endloop
endfacet
facet normal 1.0 -6.73838857879572e-014 9.21075706579216e-013
outer loop
vertex 453.130684657738 1598.21630097213 25.7384889559295
vertex 453.130684657743 1600.21630097213 19.7384889559298
vertex 453.130684657738 1600.21630097213 25.7384889559299
endloop
endfacet
facet normal 1.0 -6.73838857879572e-014 9.21075706579216e-013
outer loop
vertex 453.130684657743 1600.21630097213 19.7384889559298
vertex 453.130684657738 1598.21630097213 25.7384889559295
vertex 453.130684657743 1598.21630097213 19.7384889559294
endloop
endfacet
facet normal 4.41764693881999e-013 -0.866025403784322 -0.500000000000203
outer loop
vertex 453.130684657745 1580.48425016456 16.2384889559257
vertex 451.130684657745 1580.28444931955 16.7208508657187
vertex 451.130684657746 1580.48425016456 16.2384889559236
endloop
endfacet
facet normal 1.82322745863705e-013 -0.965925826289015 -0.25881904510272
outer loop
vertex 451.130684657745 1580.28444931955 16.7208508657187
vertex 453.130684657745 1580.48425016456 16.2384889559257
vertex 453.130684657745 1580.28444931955 16.7208508657205
endloop
endfacet
facet normal -5.52771457181723e-013 -0.86602540378452 0.49999999999986
outer loop
vertex 453.130684657733 1580.48425016456 29.2384889559258
vertex 451.130684657733 1580.80208740976 29.6527025182969
vertex 451.130684657733 1580.48425016456 29.2384889559237
endloop
endfacet
facet normal -7.7945777702659e-013 -0.707106781186754 0.707106781186341
outer loop
vertex 451.130684657733 1580.80208740976 29.6527025182969
vertex 453.130684657733 1580.48425016456 29.2384889559258
vertex 453.130684657733 1580.80208740976 29.6527025182989
endloop
endfacet
facet normal -6.73561309575327e-014 -1.0 -2.14883677356041e-013
outer loop
vertex 453.130684657736 1580.21630097213 26.6384889559256
vertex 452.130684657736 1580.21630097213 25.8384889559247
vertex 453.130684657737 1580.21630097213 25.8384889559256
endloop
endfacet
facet normal -6.73561309575327e-014 -1.0 -2.14883677356041e-013
outer loop
vertex 452.130684657736 1580.21630097213 25.8384889559247
vertex 453.130684657736 1580.21630097213 26.6384889559256
vertex 452.130684657736 1580.21630097213 26.6384889559247
endloop
endfacet
facet normal 1.0 -1.02035622969643e-013 9.19792308501109e-013
outer loop
vertex 454.267313209189 1582.29365767519 24.538488955927
vertex 454.267313209192 1582.79365767519 20.938488955927
vertex 454.267313209189 1582.79365767519 24.5384889559271
endloop
endfacet
facet normal 1.0 -1.02035622969643e-013 9.19792308501109e-013
outer loop
vertex 454.267313209192 1582.79365767519 20.938488955927
vertex 454.267313209189 1582.29365767519 24.538488955927
vertex 454.267313209192 1582.29365767519 20.9384889559269
endloop
endfacet
facet normal 0.877269056917284 -0.479998960181643 7.07073975075495e-013
outer loop
vertex 453.130684657737 1580.21630097213 25.7384889559256
vertex 454.267313209192 1582.29365767519 20.9384889559269
vertex 454.267313209189 1582.29365767519 24.538488955927
endloop
endfacet
facet normal 0.877269056917284 -0.479998960181643 7.07073975075495e-013
outer loop
vertex 454.267313209192 1582.29365767519 20.9384889559269
vertex 453.130684657737 1580.21630097213 25.7384889559256
vertex 453.130684657742 1580.21630097213 19.7384889559255
endloop
endfacet
facet normal -6.67612989396896e-014 -1.0 -2.14883675533538e-013
outer loop
vertex 453.130684657737 1590.21580190768 25.8384889559278
vertex 451.630709610959 1590.21580190768 26.6384889559263
vertex 451.63070961096 1590.21580190768 25.8384889559263
endloop
endfacet
facet normal -6.67612989396896e-014 -1.0 -2.14883675533538e-013
outer loop
vertex 451.630709610959 1590.21580190768 26.6384889559263
vertex 453.130684657737 1590.21580190768 25.8384889559278
vertex 453.130684657736 1590.21580190768 26.6384889559278
endloop
endfacet
facet normal -1.0 -6.95730177802343e-014 -8.84498861323983e-013
outer loop
vertex 452.130684657744 1600.71630097213 18.7384889559291
vertex 452.130684657737 1601.41630097213 26.7384889559292
vertex 452.130684657744 1601.41630097213 18.7384889559292
endloop
endfacet
facet normal -1.0 -6.95730177802343e-014 -8.84498861323983e-013
outer loop
vertex 452.130684657737 1601.41630097213 26.7384889559292
vertex 452.130684657744 1600.71630097213 18.7384889559291
vertex 452.130684657737 1600.71630097213 26.7384889559291
endloop
endfacet
facet normal -9.25077500064682e-013 -2.14883666402586e-013 1.0
outer loop
vertex 453.130684657744 1600.21630097213 18.7384889559299
vertex 451.130684657743 1580.21630097213 18.7384889559237
vertex 453.130684657743 1580.21630097213 18.7384889559256
endloop
endfacet
facet normal -9.25077500064682e-013 -2.14883666402586e-013 1.0
outer loop
vertex 451.130684657743 1580.21630097213 18.7384889559237
vertex 453.130684657744 1600.21630097213 18.7384889559299
vertex 451.130684657744 1600.21630097213 18.738488955928
endloop
endfacet
facet normal 1.0 -7.89344566311684e-014 9.13375318105186e-013
outer loop
vertex 453.130684657736 1590.21580190768 26.6384889559278
vertex 453.130684657737 1590.61580190768 25.8384889559278
vertex 453.130684657736 1590.61580190768 26.6384889559278
endloop
endfacet
facet normal 1.0 -7.89344566311684e-014 9.13375318105186e-013
outer loop
vertex 453.130684657737 1590.61580190768 25.8384889559278
vertex 453.130684657736 1590.21580190768 26.6384889559278
vertex 453.130684657737 1590.21580190768 25.8384889559278
endloop
endfacet
facet normal -0.998752338877849 -0.049937616943815 -9.30651630732627e-013
outer loop
vertex 452.130684657742 1580.21630097213 19.7384889559246
vertex 451.130684657738 1600.21630097213 25.7384889559281
vertex 451.130684657744 1600.21630097213 19.738488955928
endloop
endfacet
facet normal -0.998752338877849 -0.049937616943815 -9.30651630732627e-013
outer loop
vertex 451.130684657738 1600.21630097213 25.7384889559281
vertex 452.130684657742 1580.21630097213 19.7384889559246
vertex 452.130684657737 1580.21630097213 25.7384889559247
endloop
endfacet
facet normal -0.998752338877862 -0.0499376169435468 -6.05722438776513e-013
outer loop
vertex 452.130684657736 1580.21630097213 25.8384889559247
vertex 452.110709610959 1580.61580190768 26.6384889559248
vertex 452.110709610959 1580.61580190768 25.8384889559248
endloop
endfacet
facet normal -0.998752338877862 -0.0499376169435468 -6.05722438776513e-013
outer loop
vertex 452.110709610959 1580.61580190768 26.6384889559248
vertex 452.130684657736 1580.21630097213 25.8384889559247
vertex 452.130684657736 1580.21630097213 26.6384889559247
endloop
endfacet
facet normal 0.348524906180129 0.9372995197759 5.21321768760083e-013
outer loop
vertex 453.130684657737 1583.21630097213 25.7384889559263
vertex 454.267313209192 1582.79365767519 20.938488955927
vertex 453.130684657742 1583.21630097213 19.7384889559262
endloop
endfacet
facet normal 0.348524906180129 0.9372995197759 5.21321768760083e-013
outer loop
vertex 454.267313209192 1582.79365767519 20.938488955927
vertex 453.130684657737 1583.21630097213 25.7384889559263
vertex 454.267313209189 1582.79365767519 24.5384889559271
endloop
endfacet
facet normal 0.726017187961962 1.06313680495183e-013 -0.687676553900019
outer loop
vertex 454.267313209192 1582.79365767519 20.938488955927
vertex 453.130684657742 1580.21630097213 19.7384889559255
vertex 453.130684657742 1583.21630097213 19.7384889559262
endloop
endfacet
facet normal 0.726017187961962 1.06313680495183e-013 -0.687676553900019
outer loop
vertex 453.130684657742 1580.21630097213 19.7384889559255
vertex 454.267313209192 1582.79365767519 20.938488955927
vertex 454.267313209192 1582.29365767519 20.9384889559269
endloop
endfacet
facet normal 0.72601718796076 -2.00087517486688e-013 0.687676553901288
outer loop
vertex 453.130684657737 1580.21630097213 25.7384889559256
vertex 454.267313209189 1582.79365767519 24.5384889559271
vertex 453.130684657737 1583.21630097213 25.7384889559263
endloop
endfacet
facet normal 0.72601718796076 -2.00087517486688e-013 0.687676553901288
outer loop
vertex 454.267313209189 1582.79365767519 24.5384889559271
vertex 453.130684657737 1580.21630097213 25.7384889559256
vertex 454.267313209189 1582.29365767519 24.538488955927
endloop
endfacet
facet normal -9.01976334639653e-013 -2.14883666402594e-013 1.0
outer loop
vertex 451.130684657744 1601.41630097213 18.7384889559283
vertex 452.130684657744 1600.71630097213 18.7384889559291
vertex 452.130684657744 1601.41630097213 18.7384889559292
endloop
endfacet
facet normal -9.01976334639653e-013 -2.14883666402594e-013 1.0
outer loop
vertex 452.130684657744 1600.71630097213 18.7384889559291
vertex 451.130684657744 1601.41630097213 18.7384889559283
vertex 451.130684657745 1600.71630097213 18.7384889559281
endloop
endfacet
facet normal -0.998752338877843 -0.0499376169439298 -7.21083371842848e-013
outer loop
vertex 451.63070961096 1590.21580190768 25.8384889559263
vertex 451.610709610959 1590.61580190768 26.6384889559264
vertex 451.61070961096 1590.61580190768 25.8384889559264
endloop
endfacet
facet normal -0.998752338877843 -0.0499376169439298 -7.21083371842848e-013
outer loop
vertex 451.610709610959 1590.61580190768 26.6384889559264
vertex 451.63070961096 1590.21580190768 25.8384889559263
vertex 451.630709610959 1590.21580190768 26.6384889559263
endloop
endfacet
facet normal -6.73561302121472e-014 -1.0 -2.11033471188338e-013
outer loop
vertex 453.130684657737 1600.21630097213 26.7384889559299
vertex 452.130684657738 1600.21630097213 25.738488955929
vertex 453.130684657738 1600.21630097213 25.7384889559299
endloop
endfacet
facet normal -6.73561302121472e-014 -1.0 -2.11033471188338e-013
outer loop
vertex 452.130684657738 1600.21630097213 25.738488955929
vertex 453.130684657737 1600.21630097213 26.7384889559299
vertex 451.130684657738 1600.21630097213 25.7384889559281
endloop
endfacet
facet normal -6.73561302121472e-014 -1.0 -2.11033471188338e-013
outer loop
vertex 451.130684657738 1600.21630097213 25.7384889559281
vertex 453.130684657737 1600.21630097213 26.7384889559299
vertex 451.130684657737 1600.21630097213 26.738488955928
endloop
endfacet
facet normal 9.32265838276205e-013 2.16795962264739e-013 -1.0
outer loop
vertex 451.63070961096 1590.21580190768 25.8384889559263
vertex 453.130684657737 1590.61580190768 25.8384889559278
vertex 453.130684657737 1590.21580190768 25.8384889559278
endloop
endfacet
facet normal 9.32265838276205e-013 2.16795962264739e-013 -1.0
outer loop
vertex 453.130684657737 1590.61580190768 25.8384889559278
vertex 451.63070961096 1590.21580190768 25.8384889559263
vertex 451.61070961096 1590.61580190768 25.8384889559264
endloop
endfacet
facet normal 0.79999999999942 -1.81890842902973e-013 0.600000000000773
outer loop
vertex 453.130684657737 1585.91630097213 25.7384889559269
vertex 454.030684657739 1595.21630097213 24.5384889559296
vertex 453.130684657738 1598.21630097213 25.7384889559295
endloop
endfacet
facet normal 0.79999999999942 -1.81890842902973e-013 0.600000000000773
outer loop
vertex 454.030684657739 1595.21630097213 24.5384889559296
vertex 453.130684657737 1585.91630097213 25.7384889559269
vertex 454.030684657738 1585.91630097213 24.5384889559276
endloop
endfacet
facet normal -9.25077500064679e-013 -2.14883666402586e-013 1.0
outer loop
vertex 453.130684657738 1600.21630097213 25.7384889559299
vertex 453.130684657737 1585.91630097213 25.7384889559269
vertex 453.130684657738 1598.21630097213 25.7384889559295
endloop
endfacet
facet normal -9.25077500064679e-013 -2.14883666402586e-013 1.0
outer loop
vertex 453.130684657737 1585.91630097213 25.7384889559269
vertex 453.130684657738 1600.21630097213 25.7384889559299
vertex 453.130684657737 1583.21630097213 25.7384889559263
endloop
endfacet
facet normal -9.25077500064679e-013 -2.14883666402586e-013 1.0
outer loop
vertex 453.130684657737 1583.21630097213 25.7384889559263
vertex 453.130684657738 1600.21630097213 25.7384889559299
vertex 453.130684657737 1580.21630097213 25.7384889559256
endloop
endfacet
facet normal -9.25077500064679e-013 -2.14883666402586e-013 1.0
outer loop
vertex 453.130684657737 1580.21630097213 25.7384889559256
vertex 453.130684657738 1600.21630097213 25.7384889559299
vertex 452.130684657737 1580.21630097213 25.7384889559247
endloop
endfacet
facet normal -9.25077500064679e-013 -2.14883666402586e-013 1.0
outer loop
vertex 452.130684657737 1580.21630097213 25.7384889559247
vertex 453.130684657738 1600.21630097213 25.7384889559299
vertex 452.130684657738 1600.21630097213 25.738488955929
endloop
endfacet
facet normal -9.25077500064679e-013 -2.14883666402586e-013 1.0
outer loop
vertex 452.130684657737 1580.21630097213 25.7384889559247
vertex 452.130684657738 1600.21630097213 25.738488955929
vertex 451.130684657738 1600.21630097213 25.7384889559281
endloop
endfacet
facet normal 1.0 -9.21064403443429e-014 9.13375318105184e-013
outer loop
vertex 453.130684657742 1580.21630097213 19.6384889559255
vertex 453.130684657743 1580.61580190768 18.8384889559256
vertex 453.130684657742 1580.61580190768 19.6384889559256
endloop
endfacet
facet normal 1.0 -9.21064403443429e-014 9.13375318105184e-013
outer loop
vertex 453.130684657743 1580.61580190768 18.8384889559256
vertex 453.130684657742 1580.21630097213 19.6384889559255
vertex 453.130684657743 1580.21630097213 18.8384889559255
endloop
endfacet
facet normal -7.89067136592068e-014 -1.0 -2.14883663847084e-013
outer loop
vertex 452.130684657737 1601.41630097213 26.7384889559292
vertex 451.130684657744 1601.41630097213 18.7384889559283
vertex 452.130684657744 1601.41630097213 18.7384889559292
endloop
endfacet
facet normal -7.89067136592068e-014 -1.0 -2.14883663847084e-013
outer loop
vertex 451.130684657744 1601.41630097213 18.7384889559283
vertex 452.130684657737 1601.41630097213 26.7384889559292
vertex 451.130684657737 1601.41630097213 26.7384889559283
endloop
endfacet
facet normal 7.89067136592068e-014 1.0 2.14883663847084e-013
outer loop
vertex 451.130684657737 1600.71630097213 26.7384889559281
vertex 452.130684657744 1600.71630097213 18.7384889559291
vertex 451.130684657745 1600.71630097213 18.7384889559281
endloop
endfacet
facet normal 7.89067136592068e-014 1.0 2.14883663847084e-013
outer loop
vertex 452.130684657744 1600.71630097213 18.7384889559291
vertex 451.130684657737 1600.71630097213 26.7384889559281
vertex 452.130684657737 1600.71630097213 26.7384889559291
endloop
endfacet
facet normal -9.32265838276213e-013 -2.1679596226477e-013 1.0
outer loop
vertex 451.610709610959 1590.61580190768 26.6384889559264
vertex 453.130684657736 1590.21580190768 26.6384889559278
vertex 453.130684657736 1590.61580190768 26.6384889559278
endloop
endfacet
facet normal -9.32265838276213e-013 -2.1679596226477e-013 1.0
outer loop
vertex 453.130684657736 1590.21580190768 26.6384889559278
vertex 451.610709610959 1590.61580190768 26.6384889559264
vertex 451.630709610959 1590.21580190768 26.6384889559263
endloop
endfacet
facet normal 1.0 -7.89344566311684e-014 9.13375318105186e-013
outer loop
vertex 453.130684657743 1590.21580190768 19.6384889559277
vertex 453.130684657744 1590.61580190768 18.8384889559278
vertex 453.130684657743 1590.61580190768 19.6384889559278
endloop
endfacet
facet normal 1.0 -7.89344566311684e-014 9.13375318105186e-013
outer loop
vertex 453.130684657744 1590.61580190768 18.8384889559278
vertex 453.130684657743 1590.21580190768 19.6384889559277
vertex 453.130684657744 1590.21580190768 18.8384889559277
endloop
endfacet
facet normal -6.44684852821141e-014 -1.0 -2.14883662505565e-013
outer loop
vertex 453.130684657743 1580.21630097213 18.7384889559256
vertex 451.130684657745 1580.21630097213 17.2384889559237
vertex 453.130684657744 1580.21630097213 17.2384889559255
endloop
endfacet
facet normal -6.44684852821141e-014 -1.0 -2.14883662505565e-013
outer loop
vertex 451.130684657745 1580.21630097213 17.2384889559237
vertex 453.130684657743 1580.21630097213 18.7384889559256
vertex 451.130684657743 1580.21630097213 18.7384889559237
endloop
endfacet
facet normal 9.25077500064676e-013 2.14883666402595e-013 -1.0
outer loop
vertex 451.130684657737 1600.71630097213 26.7384889559281
vertex 452.130684657737 1601.41630097213 26.7384889559292
vertex 452.130684657737 1600.71630097213 26.7384889559291
endloop
endfacet
facet normal 9.25077500064676e-013 2.14883666402595e-013 -1.0
outer loop
vertex 452.130684657737 1601.41630097213 26.7384889559292
vertex 451.130684657737 1600.71630097213 26.7384889559281
vertex 451.130684657737 1601.41630097213 26.7384889559283
endloop
endfacet
facet normal 6.38814344883953e-014 1.0 2.14883662755932e-013
outer loop
vertex 451.610709610959 1590.61580190768 26.6384889559264
vertex 453.130684657737 1590.61580190768 25.8384889559278
vertex 451.61070961096 1590.61580190768 25.8384889559264
endloop
endfacet
facet normal 6.38814344883953e-014 1.0 2.14883662755932e-013
outer loop
vertex 453.130684657737 1590.61580190768 25.8384889559278
vertex 451.610709610959 1590.61580190768 26.6384889559264
vertex 453.130684657736 1590.61580190768 26.6384889559278
endloop
endfacet
facet normal 1.0 -9.21064403443429e-014 9.13375318105184e-013
outer loop
vertex 453.130684657736 1580.21630097213 26.6384889559256
vertex 453.130684657737 1580.61580190768 25.8384889559257
vertex 453.130684657736 1580.61580190768 26.6384889559257
endloop
endfacet
facet normal 1.0 -9.21064403443429e-014 9.13375318105184e-013
outer loop
vertex 453.130684657737 1580.61580190768 25.8384889559257
vertex 453.130684657736 1580.21630097213 26.6384889559256
vertex 453.130684657737 1580.21630097213 25.8384889559256
endloop
endfacet
facet normal 9.24385465132754e-013 2.16598952936145e-013 -1.0
outer loop
vertex 452.130684657736 1580.21630097213 25.8384889559247
vertex 453.130684657737 1580.61580190768 25.8384889559257
vertex 453.130684657737 1580.21630097213 25.8384889559256
endloop
endfacet
facet normal 9.24385465132754e-013 2.16598952936145e-013 -1.0
outer loop
vertex 453.130684657737 1580.61580190768 25.8384889559257
vertex 452.130684657736 1580.21630097213 25.8384889559247
vertex 452.110709610959 1580.61580190768 25.8384889559248
endloop
endfacet
facet normal -1.0 5.21431792368891e-014 -9.05605220443313e-013
outer loop
vertex 449.630684657749 1617.69365769924 15.2384889559303
vertex 449.630684657735 1622.69365769924 30.2384889559316
vertex 449.630684657749 1622.69365769924 15.2384889559322
endloop
endfacet
facet normal -1.0 5.21431792368891e-014 -9.05605220443313e-013
outer loop
vertex 449.630684657735 1622.69365769924 30.2384889559316
vertex 449.630684657749 1617.69365769924 15.2384889559303
vertex 449.630684657735 1617.69365769924 30.2384889559303
endloop
endfacet
facet normal -0.999819384882023 -0.0187466134661111 -0.00312443557877069
outer loop
vertex 451.620709610966 1590.21580190768 18.8384889559263
vertex 451.610709610965 1590.61580190768 19.6384889559264
vertex 451.615709610966 1590.61580190768 18.8384889559264
endloop
endfacet
facet normal -0.999819384882023 -0.0187466134661111 -0.00312443557877069
outer loop
vertex 451.610709610965 1590.61580190768 19.6384889559264
vertex 451.620709610966 1590.21580190768 18.8384889559263
vertex 451.620709610965 1590.21580190768 19.6384889559263
endloop
endfacet
facet normal -6.53118339613085e-014 -1.0 -2.14883662760829e-013
outer loop
vertex 453.130684657743 1590.21580190768 19.6384889559277
vertex 451.620709610966 1590.21580190768 18.8384889559263
vertex 453.130684657744 1590.21580190768 18.8384889559277
endloop
endfacet
facet normal -6.53118339613085e-014 -1.0 -2.14883662760829e-013
outer loop
vertex 451.620709610966 1590.21580190768 18.8384889559263
vertex 453.130684657743 1590.21580190768 19.6384889559277
vertex 451.620709610965 1590.21580190768 19.6384889559263
endloop
endfacet
facet normal -6.60727455451584e-014 -1.0 -2.14883662107406e-013
outer loop
vertex 454.030684657742 1585.91630097213 20.9384889559275
vertex 453.130684657737 1585.91630097213 25.7384889559269
vertex 453.130684657743 1585.91630097213 19.7384889559268
endloop
endfacet
facet normal -6.60727455451584e-014 -1.0 -2.14883662107406e-013
outer loop
vertex 453.130684657737 1585.91630097213 25.7384889559269
vertex 454.030684657742 1585.91630097213 20.9384889559275
vertex 454.030684657738 1585.91630097213 24.5384889559276
endloop
endfacet
facet normal -0.998752338877848 -0.0499376169438348 -9.22966569597775e-013
outer loop
vertex 452.130684657743 1580.21630097213 18.8384889559246
vertex 452.110709610965 1580.61580190768 19.6384889559247
vertex 452.110709610966 1580.61580190768 18.8384889559247
endloop
endfacet
facet normal -0.998752338877848 -0.0499376169438348 -9.22966569597775e-013
outer loop
vertex 452.110709610965 1580.61580190768 19.6384889559247
vertex 452.130684657743 1580.21630097213 18.8384889559246
vertex 452.130684657742 1580.21630097213 19.6384889559246
endloop
endfacet
facet normal 9.16868836021595e-013 2.15265509104021e-013 -1.0
outer loop
vertex 451.620709610966 1590.21580190768 18.8384889559263
vertex 453.130684657744 1590.61580190768 18.8384889559278
vertex 453.130684657744 1590.21580190768 18.8384889559277
endloop
endfacet
facet normal 9.16868836021595e-013 2.15265509104021e-013 -1.0
outer loop
vertex 453.130684657744 1590.61580190768 18.8384889559278
vertex 451.620709610966 1590.21580190768 18.8384889559263
vertex 451.615709610966 1590.61580190768 18.8384889559264
endloop
endfacet
facet normal 9.01514978018375e-013 2.16027190758307e-013 -1.0
outer loop
vertex 453.130684657743 1580.21630097213 18.8384889559255
vertex 452.110709610966 1580.61580190768 18.8384889559247
vertex 453.130684657743 1580.61580190768 18.8384889559256
endloop
endfacet
facet normal 9.01514978018375e-013 2.16027190758307e-013 -1.0
outer loop
vertex 452.110709610966 1580.61580190768 18.8384889559247
vertex 453.130684657743 1580.21630097213 18.8384889559255
vertex 452.130684657743 1580.21630097213 18.8384889559246
endloop
endfacet
facet normal 1.0 -7.0190964711647e-014 9.23653005931615e-013
outer loop
vertex 454.630684657735 1617.69365769924 30.2384889559349
vertex 454.630684657749 1622.69365769924 15.238488955936
vertex 454.630684657735 1622.69365769924 30.238488955936
endloop
endfacet
facet normal 1.0 -7.0190964711647e-014 9.23653005931615e-013
outer loop
vertex 454.630684657749 1622.69365769924 15.238488955936
vertex 454.630684657735 1617.69365769924 30.2384889559349
vertex 454.630684657749 1617.69365769924 15.2384889559349
endloop
endfacet
facet normal 0.130526192220104 0.991444861373804 3.29287417310051e-013
outer loop
vertex 454.630684657749 1625.69365769924 15.2384889559366
vertex 455.018913225389 1625.64254643867 30.238488955937
vertex 455.018913225403 1625.64254643867 15.2384889559369
endloop
endfacet
facet normal 0.25881904510258 0.965925826289052 4.3805682438283e-013
outer loop
vertex 455.018913225389 1625.64254643867 30.238488955937
vertex 454.630684657749 1625.69365769924 15.2384889559366
vertex 454.630684657735 1625.69365769924 30.2384889559366
endloop
endfacet
facet normal 0.25881904510258 0.965925826289052 4.3805682438283e-013
outer loop
vertex 455.018913225389 1625.64254643867 30.238488955937
vertex 455.380684657749 1625.49269580492 15.2384889559373
vertex 455.018913225403 1625.64254643867 15.2384889559369
endloop
endfacet
facet normal 0.500000000000065 0.866025403784401 6.31377019932933e-013
outer loop
vertex 455.380684657749 1625.49269580492 15.2384889559373
vertex 455.018913225389 1625.64254643867 30.238488955937
vertex 455.380684657735 1625.49269580491 30.2384889559373
endloop
endfacet
facet normal 0.500000000000065 0.866025403784401 6.31377019932933e-013
outer loop
vertex 455.380684657749 1625.49269580492 15.2384889559373
vertex 455.691344829515 1625.25431787102 30.2384889559375
vertex 455.691344829529 1625.25431787102 15.2384889559375
endloop
endfacet
facet normal 0.707106781186576 0.707106781186519 7.81670281765333e-013
outer loop
vertex 455.691344829515 1625.25431787102 30.2384889559375
vertex 455.380684657749 1625.49269580492 15.2384889559373
vertex 455.380684657735 1625.49269580491 30.2384889559373
endloop
endfacet
facet normal 0.866025403784457 0.499999999999969 8.78694092633053e-013
outer loop
vertex 455.929722763412 1624.94365769924 30.2384889559377
vertex 455.691344829529 1625.25431787102 15.2384889559375
vertex 455.691344829515 1625.25431787102 30.2384889559375
endloop
endfacet
facet normal 0.707106781186573 0.707106781186522 7.81670281765331e-013
outer loop
vertex 455.691344829529 1625.25431787102 15.2384889559375
vertex 455.929722763412 1624.94365769924 30.2384889559377
vertex 455.929722763425 1624.94365769924 15.2384889559377
endloop
endfacet
facet normal 0.965925826289086 0.258819045102454 9.1658812317946e-013
outer loop
vertex 456.079573397169 1624.58188626689 30.2384889559377
vertex 455.929722763425 1624.94365769924 15.2384889559377
vertex 455.929722763412 1624.94365769924 30.2384889559377
endloop
endfacet
facet normal 0.866025403784453 0.499999999999974 8.78694092633052e-013
outer loop
vertex 455.929722763425 1624.94365769924 15.2384889559377
vertex 456.079573397169 1624.58188626689 30.2384889559377
vertex 456.079573397182 1624.58188626689 15.2384889559377
endloop
endfacet
facet normal 0.866025403784404 -0.50000000000006 6.6381023536363e-013
outer loop
vertex 455.929722763412 1623.44365769924 30.2384889559374
vertex 456.079573397182 1623.80542913159 15.2384889559383
vertex 456.079573397169 1623.80542913158 30.2384889559376
endloop
endfacet
facet normal 0.965925826289064 -0.258819045102536 8.0535618694443e-013
outer loop
vertex 456.079573397182 1623.80542913159 15.2384889559383
vertex 455.929722763412 1623.44365769924 30.2384889559374
vertex 455.929722763425 1623.44365769924 15.238488955938
endloop
endfacet
facet normal 0.707106781186528 -0.707106781186567 4.77778944314706e-013
outer loop
vertex 455.691344829515 1623.13299752746 30.2384889559371
vertex 455.929722763425 1623.44365769924 15.238488955938
vertex 455.929722763412 1623.44365769924 30.2384889559374
endloop
endfacet
facet normal 0.8660254037844 -0.500000000000066 6.63810235363626e-013
outer loop
vertex 455.929722763425 1623.44365769924 15.238488955938
vertex 455.691344829515 1623.13299752746 30.2384889559371
vertex 455.691344829528 1623.13299752746 15.2384889559377
endloop
endfacet
facet normal 0.707106781186528 -0.707106781186567 4.77778944314706e-013
outer loop
vertex 455.691344829515 1623.13299752746 30.2384889559371
vertex 455.380684657748 1622.89461959356 15.2384889559374
vertex 455.691344829528 1623.13299752746 15.2384889559377
endloop
endfacet
facet normal 0.50000000000001 -0.866025403784433 2.59187985655081e-013
outer loop
vertex 455.380684657748 1622.89461959356 15.2384889559374
vertex 455.691344829515 1623.13299752746 30.2384889559371
vertex 455.380684657735 1622.89461959356 30.2384889559367
endloop
endfacet
facet normal 0.50000000000001 -0.866025403784433 2.59187985655081e-013
outer loop
vertex 455.380684657748 1622.89461959356 15.2384889559374
vertex 455.018913225389 1622.7447689598 30.2384889559364
vertex 455.018913225402 1622.74476895981 15.238488955937
endloop
endfacet
facet normal 0.258819045102518 -0.965925826289069 2.41216976829277e-014
outer loop
vertex 455.018913225389 1622.7447689598 30.2384889559364
vertex 455.380684657748 1622.89461959356 15.2384889559374
vertex 455.380684657735 1622.89461959356 30.2384889559367
endloop
endfacet
facet normal 0.258819045102438 -0.965925826289091 2.41216976828524e-014
outer loop
vertex 455.018913225402 1622.74476895981 15.238488955937
vertex 454.630684657735 1622.69365769924 30.238488955936
vertex 454.630684657749 1622.69365769924 15.238488955936
endloop
endfacet
facet normal 0.130526192220077 -0.991444861373807 -9.44473360391728e-014
outer loop
vertex 454.630684657735 1622.69365769924 30.238488955936
vertex 455.018913225402 1622.74476895981 15.238488955937
vertex 455.018913225389 1622.7447689598 30.2384889559364
endloop
endfacet
facet normal 0.991444861373818 0.130526192219992 9.12485605747777e-013
outer loop
vertex 456.130684657735 1624.19365769924 30.2384889559377
vertex 456.079573397182 1624.58188626689 15.2384889559377
vertex 456.079573397169 1624.58188626689 30.2384889559377
endloop
endfacet
facet normal 0.965925826289087 0.258819045102452 9.1658812317946e-013
outer loop
vertex 456.079573397182 1624.58188626689 15.2384889559377
vertex 456.130684657735 1624.19365769924 30.2384889559377
vertex 456.130684657749 1624.19365769924 15.2384889559377
endloop
endfacet
facet normal 0.965925826289045 -0.258819045102608 8.05356186944398e-013
outer loop
vertex 456.079573397169 1623.80542913158 30.2384889559376
vertex 456.130684657749 1624.19365769924 15.2384889559377
vertex 456.130684657735 1624.19365769924 30.2384889559377
endloop
endfacet
facet normal 0.99144486137379 -0.130526192220211 8.56389780567663e-013
outer loop
vertex 456.130684657749 1624.19365769924 15.2384889559377
vertex 456.079573397169 1623.80542913158 30.2384889559376
vertex 456.079573397182 1623.80542913159 15.2384889559383
endloop
endfacet
facet normal 9.20136231135462e-013 2.21132353117088e-013 -1.0
outer loop
vertex 451.130684657746 1582.21630097213 15.2384889559241
vertex 453.130684657749 1617.69365769924 15.2384889559335
vertex 453.130684657746 1582.21630097213 15.2384889559259
endloop
endfacet
facet normal 9.20136231135462e-013 2.21132353117088e-013 -1.0
outer loop
vertex 456.079573397182 1623.80542913159 15.2384889559383
vertex 456.079573397182 1624.58188626689 15.2384889559377
vertex 456.130684657749 1624.19365769924 15.2384889559377
endloop
endfacet
facet normal 9.20136231135462e-013 2.21132353117088e-013 -1.0
outer loop
vertex 456.079573397182 1624.58188626689 15.2384889559377
vertex 456.079573397182 1623.80542913159 15.2384889559383
vertex 455.929722763425 1623.44365769924 15.238488955938
endloop
endfacet
facet normal 9.20136231135462e-013 2.21132353117088e-013 -1.0
outer loop
vertex 456.079573397182 1624.58188626689 15.2384889559377
vertex 455.929722763425 1623.44365769924 15.238488955938
vertex 455.929722763425 1624.94365769924 15.2384889559377
endloop
endfacet
facet normal 9.20136231135462e-013 2.21132353117088e-013 -1.0
outer loop
vertex 455.929722763425 1624.94365769924 15.2384889559377
vertex 455.929722763425 1623.44365769924 15.238488955938
vertex 455.691344829528 1623.13299752746 15.2384889559377
endloop
endfacet
facet normal 9.20136231135462e-013 2.21132353117088e-013 -1.0
outer loop
vertex 455.929722763425 1624.94365769924 15.2384889559377
vertex 455.691344829528 1623.13299752746 15.2384889559377
vertex 455.691344829529 1625.25431787102 15.2384889559375
endloop
endfacet
facet normal 9.20136231135462e-013 2.21132353117088e-013 -1.0
outer loop
vertex 455.691344829529 1625.25431787102 15.2384889559375
vertex 455.691344829528 1623.13299752746 15.2384889559377
vertex 455.380684657748 1622.89461959356 15.2384889559374
endloop
endfacet
facet normal 9.20136231135462e-013 2.21132353117088e-013 -1.0
outer loop
vertex 455.691344829529 1625.25431787102 15.2384889559375
vertex 455.380684657748 1622.89461959356 15.2384889559374
vertex 455.380684657749 1625.49269580492 15.2384889559373
endloop
endfacet
facet normal 9.20136231135462e-013 2.21132353117088e-013 -1.0
outer loop
vertex 455.380684657749 1625.49269580492 15.2384889559373
vertex 455.380684657748 1622.89461959356 15.2384889559374
vertex 455.018913225403 1625.64254643867 15.2384889559369
endloop
endfacet
facet normal 9.20136231135462e-013 2.21132353117088e-013 -1.0
outer loop
vertex 455.018913225403 1625.64254643867 15.2384889559369
vertex 455.380684657748 1622.89461959356 15.2384889559374
vertex 455.018913225402 1622.74476895981 15.238488955937
endloop
endfacet
facet normal 9.20136231135462e-013 2.21132353117088e-013 -1.0
outer loop
vertex 455.018913225403 1625.64254643867 15.2384889559369
vertex 455.018913225402 1622.74476895981 15.238488955937
vertex 454.630684657749 1622.69365769924 15.238488955936
endloop
endfacet
facet normal 9.20136231135462e-013 2.21132353117088e-013 -1.0
outer loop
vertex 455.018913225403 1625.64254643867 15.2384889559369
vertex 454.630684657749 1622.69365769924 15.238488955936
vertex 454.630684657749 1625.69365769924 15.2384889559366
endloop
endfacet
facet normal 9.20136231135462e-013 2.21132353117088e-013 -1.0
outer loop
vertex 454.630684657749 1625.69365769924 15.2384889559366
vertex 454.630684657749 1622.69365769924 15.238488955936
vertex 454.630684657749 1617.69365769924 15.2384889559349
endloop
endfacet
facet normal 9.20136231135462e-013 2.21132353117088e-013 -1.0
outer loop
vertex 454.630684657749 1625.69365769924 15.2384889559366
vertex 454.630684657749 1617.69365769924 15.2384889559349
vertex 453.130684657749 1617.69365769924 15.2384889559335
endloop
endfacet
facet normal 9.20136231135462e-013 2.21132353117088e-013 -1.0
outer loop
vertex 454.630684657749 1625.69365769924 15.2384889559366
vertex 453.130684657749 1617.69365769924 15.2384889559335
vertex 449.630684657749 1625.69365769924 15.2384889559322
endloop
endfacet
facet normal 9.20136231135462e-013 2.21132353117088e-013 -1.0
outer loop
vertex 449.630684657749 1625.69365769924 15.2384889559322
vertex 453.130684657749 1617.69365769924 15.2384889559335
vertex 451.130684657749 1617.69365769924 15.2384889559317
endloop
endfacet
facet normal 9.20136231135462e-013 2.21132353117088e-013 -1.0
outer loop
vertex 451.130684657749 1617.69365769924 15.2384889559317
vertex 453.130684657749 1617.69365769924 15.2384889559335
vertex 451.130684657746 1582.21630097213 15.2384889559241
endloop
endfacet
facet normal 9.20136231135462e-013 2.21132353117088e-013 -1.0
outer loop
vertex 449.630684657749 1625.69365769924 15.2384889559322
vertex 451.130684657749 1617.69365769924 15.2384889559317
vertex 449.630684657749 1617.69365769924 15.2384889559303
endloop
endfacet
facet normal 9.20136231135462e-013 2.21132353117088e-013 -1.0
outer loop
vertex 449.630684657749 1625.69365769924 15.2384889559322
vertex 449.630684657749 1617.69365769924 15.2384889559303
vertex 449.630684657749 1622.69365769924 15.2384889559322
endloop
endfacet
facet normal -8.97408384976103e-013 -2.13042652646595e-013 1.0
outer loop
vertex 449.242456090082 1625.64254643867 30.2384889559318
vertex 449.630684657735 1622.69365769924 30.2384889559316
vertex 449.630684657735 1625.69365769924 30.2384889559322
endloop
endfacet
facet normal -8.97408384976103e-013 -2.13042652646595e-013 1.0
outer loop
vertex 449.630684657735 1622.69365769924 30.2384889559316
vertex 449.242456090082 1625.64254643867 30.2384889559318
vertex 449.242456090082 1622.7447689598 30.2384889559312
endloop
endfacet
facet normal -8.97408384976103e-013 -2.13042652646595e-013 1.0
outer loop
vertex 449.242456090082 1622.7447689598 30.2384889559312
vertex 449.242456090082 1625.64254643867 30.2384889559318
vertex 448.880684657736 1625.49269580491 30.2384889559315
endloop
endfacet
facet normal -8.97408384976103e-013 -2.13042652646595e-013 1.0
outer loop
vertex 449.242456090082 1622.7447689598 30.2384889559312
vertex 448.880684657736 1625.49269580491 30.2384889559315
vertex 448.880684657735 1622.89461959356 30.2384889559309
endloop
endfacet
facet normal -8.97408384976103e-013 -2.13042652646595e-013 1.0
outer loop
vertex 448.880684657735 1622.89461959356 30.2384889559309
vertex 448.880684657736 1625.49269580491 30.2384889559315
vertex 448.570024485956 1625.25431787102 30.2384889559311
endloop
endfacet
facet normal -8.97408384976103e-013 -2.13042652646595e-013 1.0
outer loop
vertex 448.880684657735 1622.89461959356 30.2384889559309
vertex 448.570024485956 1625.25431787102 30.2384889559311
vertex 448.570024485955 1623.13299752746 30.2384889559307
endloop
endfacet
facet normal -8.97408384976103e-013 -2.13042652646595e-013 1.0
outer loop
vertex 448.570024485955 1623.13299752746 30.2384889559307
vertex 448.570024485956 1625.25431787102 30.2384889559311
vertex 448.331646552059 1624.94365769924 30.2384889559309
endloop
endfacet
facet normal -8.97408384976103e-013 -2.13042652646595e-013 1.0
outer loop
vertex 448.570024485955 1623.13299752746 30.2384889559307
vertex 448.331646552059 1624.94365769924 30.2384889559309
vertex 448.331646552059 1623.44365769924 30.2384889559305
endloop
endfacet
facet normal -8.97408384976103e-013 -2.13042652646595e-013 1.0
outer loop
vertex 448.331646552059 1623.44365769924 30.2384889559305
vertex 448.331646552059 1624.94365769924 30.2384889559309
vertex 448.181795918302 1624.58188626689 30.2384889559306
endloop
endfacet
facet normal -8.97408384976103e-013 -2.13042652646595e-013 1.0
outer loop
vertex 448.331646552059 1623.44365769924 30.2384889559305
vertex 448.181795918302 1624.58188626689 30.2384889559306
vertex 448.181795918302 1623.80542913158 30.2384889559305
endloop
endfacet
facet normal -8.97408384976103e-013 -2.13042652646595e-013 1.0
outer loop
vertex 448.181795918302 1623.80542913158 30.2384889559305
vertex 448.181795918302 1624.58188626689 30.2384889559306
vertex 448.130684657736 1624.19365769924 30.2384889559305
endloop
endfacet
facet normal -8.97408384976103e-013 -2.13042652646595e-013 1.0
outer loop
vertex 456.079573397169 1624.58188626689 30.2384889559377
vertex 456.079573397169 1623.80542913158 30.2384889559376
vertex 456.130684657735 1624.19365769924 30.2384889559377
endloop
endfacet
facet normal -8.97408384976103e-013 -2.13042652646595e-013 1.0
outer loop
vertex 456.079573397169 1623.80542913158 30.2384889559376
vertex 456.079573397169 1624.58188626689 30.2384889559377
vertex 455.929722763412 1624.94365769924 30.2384889559377
endloop
endfacet
facet normal -8.97408384976103e-013 -2.13042652646595e-013 1.0
outer loop
vertex 456.079573397169 1623.80542913158 30.2384889559376
vertex 455.929722763412 1624.94365769924 30.2384889559377
vertex 455.929722763412 1623.44365769924 30.2384889559374
endloop
endfacet
facet normal -8.97408384976103e-013 -2.13042652646595e-013 1.0
outer loop
vertex 455.929722763412 1623.44365769924 30.2384889559374
vertex 455.929722763412 1624.94365769924 30.2384889559377
vertex 455.691344829515 1623.13299752746 30.2384889559371
endloop
endfacet
facet normal -8.97408384976103e-013 -2.13042652646595e-013 1.0
outer loop
vertex 455.691344829515 1623.13299752746 30.2384889559371
vertex 455.929722763412 1624.94365769924 30.2384889559377
vertex 455.691344829515 1625.25431787102 30.2384889559375
endloop
endfacet
facet normal -8.97408384976103e-013 -2.13042652646595e-013 1.0
outer loop
vertex 455.691344829515 1623.13299752746 30.2384889559371
vertex 455.691344829515 1625.25431787102 30.2384889559375
vertex 455.380684657735 1625.49269580491 30.2384889559373
endloop
endfacet
facet normal -8.97408384976103e-013 -2.13042652646595e-013 1.0
outer loop
vertex 455.691344829515 1623.13299752746 30.2384889559371
vertex 455.380684657735 1625.49269580491 30.2384889559373
vertex 455.380684657735 1622.89461959356 30.2384889559367
endloop
endfacet
facet normal -8.97408384976103e-013 -2.13042652646595e-013 1.0
outer loop
vertex 455.380684657735 1622.89461959356 30.2384889559367
vertex 455.380684657735 1625.49269580491 30.2384889559373
vertex 455.018913225389 1625.64254643867 30.238488955937
endloop
endfacet
facet normal -8.97408384976103e-013 -2.13042652646595e-013 1.0
outer loop
vertex 455.380684657735 1622.89461959356 30.2384889559367
vertex 455.018913225389 1625.64254643867 30.238488955937
vertex 455.018913225389 1622.7447689598 30.2384889559364
endloop
endfacet
facet normal -8.97408384976103e-013 -2.13042652646595e-013 1.0
outer loop
vertex 455.018913225389 1622.7447689598 30.2384889559364
vertex 455.018913225389 1625.64254643867 30.238488955937
vertex 454.630684657735 1622.69365769924 30.238488955936
endloop
endfacet
facet normal -8.97408384976103e-013 -2.13042652646595e-013 1.0
outer loop
vertex 454.630684657735 1622.69365769924 30.238488955936
vertex 455.018913225389 1625.64254643867 30.238488955937
vertex 454.630684657735 1625.69365769924 30.2384889559366
endloop
endfacet
facet normal -8.97408384976103e-013 -2.13042652646595e-013 1.0
outer loop
vertex 454.630684657735 1622.69365769924 30.238488955936
vertex 454.630684657735 1625.69365769924 30.2384889559366
vertex 454.630684657735 1617.69365769924 30.2384889559349
endloop
endfacet
facet normal -8.97408384976103e-013 -2.13042652646595e-013 1.0
outer loop
vertex 454.630684657735 1617.69365769924 30.2384889559349
vertex 454.630684657735 1625.69365769924 30.2384889559366
vertex 449.630684657735 1625.69365769924 30.2384889559322
endloop
endfacet
facet normal -8.97408384976103e-013 -2.13042652646595e-013 1.0
outer loop
vertex 454.630684657735 1617.69365769924 30.2384889559349
vertex 449.630684657735 1625.69365769924 30.2384889559322
vertex 453.130684657735 1617.69365769924 30.2384889559339
endloop
endfacet
facet normal -8.97408384976103e-013 -2.13042652646595e-013 1.0
outer loop
vertex 453.130684657735 1617.69365769924 30.2384889559339
vertex 449.630684657735 1625.69365769924 30.2384889559322
vertex 451.130684657735 1617.69365769924 30.2384889559317
endloop
endfacet
facet normal -8.97408384976103e-013 -2.13042652646595e-013 1.0
outer loop
vertex 453.130684657735 1617.69365769924 30.2384889559339
vertex 451.130684657735 1617.69365769924 30.2384889559317
vertex 453.130684657733 1582.21630097213 30.2384889559263
endloop
endfacet
facet normal -8.97408384976103e-013 -2.13042652646595e-013 1.0
outer loop
vertex 451.130684657735 1617.69365769924 30.2384889559317
vertex 449.630684657735 1625.69365769924 30.2384889559322
vertex 449.630684657735 1622.69365769924 30.2384889559316
endloop
endfacet
facet normal -8.97408384976103e-013 -2.13042652646595e-013 1.0
outer loop
vertex 451.130684657735 1617.69365769924 30.2384889559317
vertex 449.630684657735 1622.69365769924 30.2384889559316
vertex 449.630684657735 1617.69365769924 30.2384889559303
endloop
endfacet
facet normal -8.97408384976103e-013 -2.13042652646595e-013 1.0
outer loop
vertex 451.130684657733 1582.21630097213 30.2384889559241
vertex 453.130684657733 1582.21630097213 30.2384889559263
vertex 451.130684657735 1617.69365769924 30.2384889559317
endloop
endfacet
facet normal 1.0 -6.52181272350998e-014 9.19295300696891e-013
outer loop
vertex 453.130684657735 1617.69365769924 30.2384889559339
vertex 453.130684657737 1600.21630097213 26.7384889559299
vertex 453.130684657749 1617.69365769924 15.2384889559335
endloop
endfacet
facet normal 1.0 -6.52181272350998e-014 9.19295300696891e-013
outer loop
vertex 453.130684657737 1600.21630097213 26.7384889559299
vertex 453.130684657735 1617.69365769924 30.2384889559339
vertex 453.130684657733 1582.21630097213 30.2384889559263
endloop
endfacet
facet normal 1.0 -6.52181272350998e-014 9.19295300696891e-013
outer loop
vertex 453.130684657737 1600.21630097213 26.7384889559299
vertex 453.130684657733 1582.21630097213 30.2384889559263
vertex 453.130684657736 1580.21630097213 26.7384889559256
endloop
endfacet
facet normal 1.0 -6.52181272350998e-014 9.19295300696891e-013
outer loop
vertex 453.130684657736 1580.21630097213 26.7384889559256
vertex 453.130684657733 1582.21630097213 30.2384889559263
vertex 453.130684657733 1581.69866288192 30.1703406085042
endloop
endfacet
facet normal 1.0 -6.52181272350998e-014 9.19295300696891e-013
outer loop
vertex 453.130684657736 1580.21630097213 26.7384889559256
vertex 453.130684657733 1581.69866288192 30.1703406085042
vertex 453.130684657733 1581.21630097213 29.970539763495
endloop
endfacet
facet normal 1.0 -6.52181272350998e-014 9.19295300696891e-013
outer loop
vertex 453.130684657736 1580.21630097213 26.7384889559256
vertex 453.130684657733 1581.21630097213 29.970539763495
vertex 453.130684657733 1580.80208740976 29.6527025182989
endloop
endfacet
facet normal 1.0 -6.52181272350998e-014 9.19295300696891e-013
outer loop
vertex 453.130684657736 1580.21630097213 26.7384889559256
vertex 453.130684657733 1580.80208740976 29.6527025182989
vertex 453.130684657733 1580.48425016456 29.2384889559258
endloop
endfacet
facet normal 1.0 -6.52181272350998e-014 9.19295300696891e-013
outer loop
vertex 453.130684657736 1580.21630097213 26.7384889559256
vertex 453.130684657733 1580.48425016456 29.2384889559258
vertex 453.130684657734 1580.28444931955 28.7561270461307
endloop
endfacet
facet normal 1.0 -6.52181272350998e-014 9.19295300696891e-013
outer loop
vertex 453.130684657736 1580.21630097213 26.7384889559256
vertex 453.130684657734 1580.28444931955 28.7561270461307
vertex 453.130684657734 1580.21630097213 28.2384889559256
endloop
endfacet
facet normal 1.0 -6.52181272350998e-014 9.19295300696891e-013
outer loop
vertex 453.130684657749 1617.69365769924 15.2384889559335
vertex 453.130684657744 1600.21630097213 18.7384889559299
vertex 453.130684657746 1582.21630097213 15.2384889559259
endloop
endfacet
facet normal 1.0 -6.52181272350998e-014 9.19295300696891e-013
outer loop
vertex 453.130684657744 1600.21630097213 18.7384889559299
vertex 453.130684657749 1617.69365769924 15.2384889559335
vertex 453.130684657737 1600.21630097213 26.7384889559299
endloop
endfacet
facet normal 1.0 -6.52181272350998e-014 9.19295300696891e-013
outer loop
vertex 453.130684657744 1600.21630097213 18.7384889559299
vertex 453.130684657737 1600.21630097213 26.7384889559299
vertex 453.130684657738 1600.21630097213 25.7384889559299
endloop
endfacet
facet normal 1.0 -6.52181272350998e-014 9.19295300696891e-013
outer loop
vertex 453.130684657744 1600.21630097213 18.7384889559299
vertex 453.130684657738 1600.21630097213 25.7384889559299
vertex 453.130684657743 1600.21630097213 19.7384889559298
endloop
endfacet
facet normal 1.0 -6.52181272350998e-014 9.19295300696891e-013
outer loop
vertex 453.130684657746 1582.21630097213 15.2384889559259
vertex 453.130684657744 1600.21630097213 18.7384889559299
vertex 453.130684657743 1580.21630097213 18.7384889559256
endloop
endfacet
facet normal 1.0 -6.52181272350998e-014 9.19295300696891e-013
outer loop
vertex 453.130684657746 1582.21630097213 15.2384889559259
vertex 453.130684657743 1580.21630097213 18.7384889559256
vertex 453.130684657746 1581.69866288193 15.3066373033478
endloop
endfacet
facet normal 1.0 -6.52181272350998e-014 9.19295300696891e-013
outer loop
vertex 453.130684657746 1581.69866288193 15.3066373033478
vertex 453.130684657743 1580.21630097213 18.7384889559256
vertex 453.130684657746 1581.21630097213 15.5064381483568
endloop
endfacet
facet normal 1.0 -6.52181272350998e-014 9.19295300696891e-013
outer loop
vertex 453.130684657746 1581.21630097213 15.5064381483568
vertex 453.130684657743 1580.21630097213 18.7384889559256
vertex 453.130684657746 1580.80208740976 15.8242753935527
endloop
endfacet
facet normal 1.0 -6.52181272350998e-014 9.19295300696891e-013
outer loop
vertex 453.130684657746 1580.80208740976 15.8242753935527
vertex 453.130684657743 1580.21630097213 18.7384889559256
vertex 453.130684657745 1580.48425016456 16.2384889559257
endloop
endfacet
facet normal 1.0 -6.52181272350998e-014 9.19295300696891e-013
outer loop
vertex 453.130684657745 1580.48425016456 16.2384889559257
vertex 453.130684657743 1580.21630097213 18.7384889559256
vertex 453.130684657745 1580.28444931955 16.7208508657205
endloop
endfacet
facet normal 1.0 -6.52181272350998e-014 9.19295300696891e-013
outer loop
vertex 453.130684657745 1580.28444931955 16.7208508657205
vertex 453.130684657743 1580.21630097213 18.7384889559256
vertex 453.130684657744 1580.21630097213 17.2384889559255
endloop
endfacet
facet normal -6.3395289577718e-014 -1.0 -2.14883666383571e-013
outer loop
vertex 454.630684657735 1617.69365769924 30.2384889559349
vertex 453.130684657749 1617.69365769924 15.2384889559335
vertex 454.630684657749 1617.69365769924 15.2384889559349
endloop
endfacet
facet normal -6.3395289577718e-014 -1.0 -2.14883666383571e-013
outer loop
vertex 453.130684657749 1617.69365769924 15.2384889559335
vertex 454.630684657735 1617.69365769924 30.2384889559349
vertex 453.130684657735 1617.69365769924 30.2384889559339
endloop
endfacet
facet normal -1.0 6.55990882042506e-014 -9.18682075376897e-013
outer loop
vertex 451.130684657749 1617.69365769924 15.2384889559317
vertex 451.130684657744 1601.41630097213 18.7384889559283
vertex 451.130684657735 1617.69365769924 30.2384889559317
endloop
endfacet
facet normal -1.0 6.55990882042506e-014 -9.18682075376897e-013
outer loop
vertex 451.130684657744 1601.41630097213 18.7384889559283
vertex 451.130684657749 1617.69365769924 15.2384889559317
vertex 451.130684657746 1582.21630097213 15.2384889559241
endloop
endfacet
facet normal -1.0 6.55990882042506e-014 -9.18682075376897e-013
outer loop
vertex 451.130684657744 1601.41630097213 18.7384889559283
vertex 451.130684657746 1582.21630097213 15.2384889559241
vertex 451.130684657745 1600.71630097213 18.7384889559281
endloop
endfacet
facet normal -1.0 6.55990882042506e-014 -9.18682075376897e-013
outer loop
vertex 451.130684657745 1600.71630097213 18.7384889559281
vertex 451.130684657746 1582.21630097213 15.2384889559241
vertex 451.130684657744 1600.21630097213 18.738488955928
endloop
endfacet
facet normal -1.0 6.55990882042506e-014 -9.18682075376897e-013
outer loop
vertex 451.130684657745 1600.71630097213 18.7384889559281
vertex 451.130684657744 1600.21630097213 18.738488955928
vertex 451.130684657737 1600.71630097213 26.7384889559281
endloop
endfacet
facet normal -1.0 6.55990882042506e-014 -9.18682075376897e-013
outer loop
vertex 451.130684657744 1600.21630097213 18.738488955928
vertex 451.130684657746 1582.21630097213 15.2384889559241
vertex 451.130684657743 1580.21630097213 18.7384889559237
endloop
endfacet
facet normal -1.0 6.55990882042506e-014 -9.18682075376897e-013
outer loop
vertex 451.130684657743 1580.21630097213 18.7384889559237
vertex 451.130684657746 1582.21630097213 15.2384889559241
vertex 451.130684657746 1581.69866288193 15.3066373033457
endloop
endfacet
facet normal -1.0 6.55990882042506e-014 -9.18682075376897e-013
outer loop
vertex 451.130684657743 1580.21630097213 18.7384889559237
vertex 451.130684657746 1581.69866288193 15.3066373033457
vertex 451.130684657746 1581.21630097213 15.506438148355
endloop
endfacet
facet normal -1.0 6.55990882042506e-014 -9.18682075376897e-013
outer loop
vertex 451.130684657743 1580.21630097213 18.7384889559237
vertex 451.130684657746 1581.21630097213 15.506438148355
vertex 451.130684657746 1580.80208740976 15.8242753935506
endloop
endfacet
facet normal -1.0 6.55990882042506e-014 -9.18682075376897e-013
outer loop
vertex 451.130684657743 1580.21630097213 18.7384889559237
vertex 451.130684657746 1580.80208740976 15.8242753935506
vertex 451.130684657746 1580.48425016456 16.2384889559236
endloop
endfacet
facet normal -1.0 6.55990882042506e-014 -9.18682075376897e-013
outer loop
vertex 451.130684657743 1580.21630097213 18.7384889559237
vertex 451.130684657746 1580.48425016456 16.2384889559236
vertex 451.130684657745 1580.28444931955 16.7208508657187
endloop
endfacet
facet normal -1.0 6.55990882042506e-014 -9.18682075376897e-013
outer loop
vertex 451.130684657743 1580.21630097213 18.7384889559237
vertex 451.130684657745 1580.28444931955 16.7208508657187
vertex 451.130684657745 1580.21630097213 17.2384889559237
endloop
endfacet
facet normal -1.0 6.55990882042506e-014 -9.18682075376897e-013
outer loop
vertex 451.130684657735 1617.69365769924 30.2384889559317
vertex 451.130684657737 1601.41630097213 26.7384889559283
vertex 451.130684657733 1582.21630097213 30.2384889559241
endloop
endfacet
facet normal -1.0 6.55990882042506e-014 -9.18682075376897e-013
outer loop
vertex 451.130684657737 1601.41630097213 26.7384889559283
vertex 451.130684657735 1617.69365769924 30.2384889559317
vertex 451.130684657744 1601.41630097213 18.7384889559283
endloop
endfacet
facet normal -1.0 6.55990882042506e-014 -9.18682075376897e-013
outer loop
vertex 451.130684657733 1582.21630097213 30.2384889559241
vertex 451.130684657737 1601.41630097213 26.7384889559283
vertex 451.130684657737 1600.71630097213 26.7384889559281
endloop
endfacet
facet normal -1.0 6.55990882042506e-014 -9.18682075376897e-013
outer loop
vertex 451.130684657733 1582.21630097213 30.2384889559241
vertex 451.130684657737 1600.71630097213 26.7384889559281
vertex 451.130684657737 1600.21630097213 26.738488955928
endloop
endfacet
facet normal -1.0 6.55990882042506e-014 -9.18682075376897e-013
outer loop
vertex 451.130684657737 1600.21630097213 26.738488955928
vertex 451.130684657737 1600.71630097213 26.7384889559281
vertex 451.130684657744 1600.21630097213 18.738488955928
endloop
endfacet
facet normal -1.0 6.55990882042506e-014 -9.18682075376897e-013
outer loop
vertex 451.130684657737 1600.21630097213 26.738488955928
vertex 451.130684657744 1600.21630097213 18.738488955928
vertex 451.130684657744 1600.21630097213 19.738488955928
endloop
endfacet
facet normal -1.0 6.55990882042506e-014 -9.18682075376897e-013
outer loop
vertex 451.130684657737 1600.21630097213 26.738488955928
vertex 451.130684657744 1600.21630097213 19.738488955928
vertex 451.130684657738 1600.21630097213 25.7384889559281
endloop
endfacet
facet normal -1.0 6.55990882042506e-014 -9.18682075376897e-013
outer loop
vertex 451.130684657733 1582.21630097213 30.2384889559241
vertex 451.130684657737 1600.21630097213 26.738488955928
vertex 451.130684657734 1580.21630097213 28.2384889559238
endloop
endfacet
facet normal -1.0 6.55990882042506e-014 -9.18682075376897e-013
outer loop
vertex 451.130684657733 1582.21630097213 30.2384889559241
vertex 451.130684657734 1580.21630097213 28.2384889559238
vertex 451.130684657733 1581.69866288192 30.1703406085022
endloop
endfacet
facet normal -1.0 6.55990882042506e-014 -9.18682075376897e-013
outer loop
vertex 451.130684657733 1581.69866288192 30.1703406085022
vertex 451.130684657734 1580.21630097213 28.2384889559238
vertex 451.130684657733 1581.21630097213 29.9705397634927
endloop
endfacet
facet normal -1.0 6.55990882042506e-014 -9.18682075376897e-013
outer loop
vertex 451.130684657733 1581.21630097213 29.9705397634927
vertex 451.130684657734 1580.21630097213 28.2384889559238
vertex 451.130684657733 1580.80208740976 29.6527025182969
endloop
endfacet
facet normal -1.0 6.55990882042506e-014 -9.18682075376897e-013
outer loop
vertex 451.130684657733 1580.80208740976 29.6527025182969
vertex 451.130684657734 1580.21630097213 28.2384889559238
vertex 451.130684657733 1580.48425016456 29.2384889559237
endloop
endfacet
facet normal -1.0 6.55990882042506e-014 -9.18682075376897e-013
outer loop
vertex 451.130684657733 1580.48425016456 29.2384889559237
vertex 451.130684657734 1580.21630097213 28.2384889559238
vertex 451.130684657734 1580.28444931955 28.7561270461288
endloop
endfacet
facet normal -5.96353342857242e-014 -1.0 -2.14883666383567e-013
outer loop
vertex 451.130684657735 1617.69365769924 30.2384889559317
vertex 449.630684657749 1617.69365769924 15.2384889559303
vertex 451.130684657749 1617.69365769924 15.2384889559317
endloop
endfacet
facet normal -5.96353342857242e-014 -1.0 -2.14883666383567e-013
outer loop
vertex 449.630684657749 1617.69365769924 15.2384889559303
vertex 451.130684657735 1617.69365769924 30.2384889559317
vertex 449.630684657735 1617.69365769924 30.2384889559303
endloop
endfacet
facet normal 7.10621784975839e-013 1.46130197889275e-013 -1.0
outer loop
vertex 449.630684657749 1622.69365769924 15.2384889559322
vertex 449.242456090095 1625.64254643867 15.2384889559326
vertex 449.630684657749 1625.69365769924 15.2384889559322
endloop
endfacet
facet normal 7.10621784975839e-013 1.46130197889275e-013 -1.0
outer loop
vertex 449.242456090095 1625.64254643867 15.2384889559326
vertex 449.630684657749 1622.69365769924 15.2384889559322
vertex 449.242456090095 1622.74476895981 15.2384889559319
endloop
endfacet
facet normal 7.10621784975839e-013 1.46130197889275e-013 -1.0
outer loop
vertex 449.242456090095 1625.64254643867 15.2384889559326
vertex 449.242456090095 1622.74476895981 15.2384889559319
vertex 448.880684657749 1622.89461959356 15.2384889559316
endloop
endfacet
facet normal 7.10621784975839e-013 1.46130197889275e-013 -1.0
outer loop
vertex 449.242456090095 1625.64254643867 15.2384889559326
vertex 448.880684657749 1622.89461959356 15.2384889559316
vertex 448.880684657749 1625.49269580492 15.2384889559321
endloop
endfacet
facet normal 7.10621784975839e-013 1.46130197889275e-013 -1.0
outer loop
vertex 448.880684657749 1625.49269580492 15.2384889559321
vertex 448.880684657749 1622.89461959356 15.2384889559316
vertex 448.570024485969 1623.13299752746 15.2384889559314
endloop
endfacet
facet normal 7.10621784975839e-013 1.46130197889275e-013 -1.0
outer loop
vertex 448.880684657749 1625.49269580492 15.2384889559321
vertex 448.570024485969 1623.13299752746 15.2384889559314
vertex 448.570024485969 1625.25431787102 15.2384889559319
endloop
endfacet
facet normal 7.10621784975839e-013 1.46130197889275e-013 -1.0
outer loop
vertex 448.570024485969 1625.25431787102 15.2384889559319
vertex 448.570024485969 1623.13299752746 15.2384889559314
vertex 448.331646552072 1623.44365769924 15.2384889559312
endloop
endfacet
facet normal 7.10621784975839e-013 1.46130197889275e-013 -1.0
outer loop
vertex 448.570024485969 1625.25431787102 15.2384889559319
vertex 448.331646552072 1623.44365769924 15.2384889559312
vertex 448.331646552072 1624.94365769924 15.2384889559316
endloop
endfacet
facet normal 7.10621784975839e-013 1.46130197889275e-013 -1.0
outer loop
vertex 448.331646552072 1624.94365769924 15.2384889559316
vertex 448.331646552072 1623.44365769924 15.2384889559312
vertex 448.181795918315 1623.80542913159 15.2384889559311
endloop
endfacet
facet normal 7.10621784975839e-013 1.46130197889275e-013 -1.0
outer loop
vertex 448.331646552072 1624.94365769924 15.2384889559316
vertex 448.181795918315 1623.80542913159 15.2384889559311
vertex 448.181795918315 1624.58188626689 15.2384889559313
endloop
endfacet
facet normal 7.10621784975839e-013 1.46130197889275e-013 -1.0
outer loop
vertex 448.181795918315 1624.58188626689 15.2384889559313
vertex 448.181795918315 1623.80542913159 15.2384889559311
vertex 448.130684657749 1624.19365769924 15.2384889559312
endloop
endfacet
facet normal -0.130526192220133 -0.9914448613738 -3.29287417310076e-013
outer loop
vertex 449.630684657735 1622.69365769924 30.2384889559316
vertex 449.242456090095 1622.74476895981 15.2384889559319
vertex 449.630684657749 1622.69365769924 15.2384889559322
endloop
endfacet
facet normal -0.25881904510261 -0.965925826289044 -4.38057209222409e-013
outer loop
vertex 449.242456090095 1622.74476895981 15.2384889559319
vertex 449.630684657735 1622.69365769924 30.2384889559316
vertex 449.242456090082 1622.7447689598 30.2384889559312
endloop
endfacet
facet normal -0.499999999999921 0.866025403784484 -2.59187985654991e-013
outer loop
vertex 448.880684657736 1625.49269580491 30.2384889559315
vertex 449.242456090095 1625.64254643867 15.2384889559326
vertex 448.880684657749 1625.49269580492 15.2384889559321
endloop
endfacet
facet normal -0.258819045102328 0.96592582628912 -2.39235520931728e-014
outer loop
vertex 449.242456090095 1625.64254643867 15.2384889559326
vertex 448.880684657736 1625.49269580491 30.2384889559315
vertex 449.242456090082 1625.64254643867 30.2384889559318
endloop
endfacet
facet normal -0.707106781186495 0.7071067811866 -4.77779135200526e-013
outer loop
vertex 448.570024485969 1625.25431787102 15.2384889559319
vertex 448.880684657736 1625.49269580491 30.2384889559315
vertex 448.880684657749 1625.49269580492 15.2384889559321
endloop
endfacet
facet normal -0.499999999999921 0.866025403784484 -2.59187985654991e-013
outer loop
vertex 448.880684657736 1625.49269580491 30.2384889559315
vertex 448.570024485969 1625.25431787102 15.2384889559319
vertex 448.570024485956 1625.25431787102 30.2384889559311
endloop
endfacet
facet normal -0.866025403784411 0.500000000000048 -6.63810426249495e-013
outer loop
vertex 448.331646552072 1624.94365769924 15.2384889559316
vertex 448.570024485956 1625.25431787102 30.2384889559311
vertex 448.570024485969 1625.25431787102 15.2384889559319
endloop
endfacet
facet normal -0.707106781186497 0.707106781186599 -4.77779135200528e-013
outer loop
vertex 448.570024485956 1625.25431787102 30.2384889559311
vertex 448.331646552072 1624.94365769924 15.2384889559316
vertex 448.331646552059 1624.94365769924 30.2384889559309
endloop
endfacet
facet normal -0.965925826289048 0.258819045102596 -8.04604051891424e-013
outer loop
vertex 448.181795918315 1624.58188626689 15.2384889559313
vertex 448.331646552059 1624.94365769924 30.2384889559309
vertex 448.331646552072 1624.94365769924 15.2384889559316
endloop
endfacet
facet normal -0.866025403784407 0.500000000000054 -6.6381042624949e-013
outer loop
vertex 448.331646552059 1624.94365769924 30.2384889559309
vertex 448.181795918315 1624.58188626689 15.2384889559313
vertex 448.181795918302 1624.58188626689 30.2384889559306
endloop
endfacet
facet normal -1.0 8.2579369821156e-014 -8.91317258374181e-013
outer loop
vertex 448.130684657749 1624.19365769924 15.2384889559312
vertex 448.181795918302 1624.58188626689 30.2384889559306
vertex 448.181795918315 1624.58188626689 15.2384889559313
endloop
endfacet
facet normal -0.965925826289047 0.2588190451026 -8.04604051891422e-013
outer loop
vertex 448.181795918302 1624.58188626689 30.2384889559306
vertex 448.130684657749 1624.19365769924 15.2384889559312
vertex 448.130684657736 1624.19365769924 30.2384889559305
endloop
endfacet
facet normal -0.965925826289091 -0.258819045102435 -9.17289059218507e-013
outer loop
vertex 448.181795918315 1623.80542913159 15.2384889559311
vertex 448.130684657736 1624.19365769924 30.2384889559305
vertex 448.130684657749 1624.19365769924 15.2384889559312
endloop
endfacet
facet normal -1.0 8.25793698211565e-014 -8.91317258374181e-013
outer loop
vertex 448.130684657736 1624.19365769924 30.2384889559305
vertex 448.181795918315 1623.80542913159 15.2384889559311
vertex 448.181795918302 1623.80542913158 30.2384889559305
endloop
endfacet
facet normal -0.866025403784483 -0.499999999999923 -8.793952972784e-013
outer loop
vertex 448.331646552072 1623.44365769924 15.2384889559312
vertex 448.181795918302 1623.80542913158 30.2384889559305
vertex 448.181795918315 1623.80542913159 15.2384889559311
endloop
endfacet
facet normal -0.96592582628909 -0.258819045102439 -9.17289059218507e-013
outer loop
vertex 448.181795918302 1623.80542913158 30.2384889559305
vertex 448.331646552072 1623.44365769924 15.2384889559312
vertex 448.331646552059 1623.44365769924 30.2384889559305
endloop
endfacet
facet normal -0.707106781186591 -0.707106781186504 -7.8167072141849e-013
outer loop
vertex 448.570024485969 1623.13299752746 15.2384889559314
vertex 448.331646552059 1623.44365769924 30.2384889559305
vertex 448.331646552072 1623.44365769924 15.2384889559312
endloop
endfacet
facet normal -0.86602540378448 -0.499999999999929 -8.79395297278398e-013
outer loop
vertex 448.331646552059 1623.44365769924 30.2384889559305
vertex 448.570024485969 1623.13299752746 15.2384889559314
vertex 448.570024485955 1623.13299752746 30.2384889559307
endloop
endfacet
facet normal -0.500000000000074 -0.866025403784396 -6.31377653539785e-013
outer loop
vertex 448.880684657735 1622.89461959356 30.2384889559309
vertex 448.570024485969 1623.13299752746 15.2384889559314
vertex 448.880684657749 1622.89461959356 15.2384889559316
endloop
endfacet
facet normal -0.707106781186591 -0.707106781186504 -7.8167072141849e-013
outer loop
vertex 448.570024485969 1623.13299752746 15.2384889559314
vertex 448.880684657735 1622.89461959356 30.2384889559309
vertex 448.570024485955 1623.13299752746 30.2384889559307
endloop
endfacet
facet normal -0.25881904510261 -0.965925826289044 -4.38057209222409e-013
outer loop
vertex 449.242456090095 1622.74476895981 15.2384889559319
vertex 448.880684657735 1622.89461959356 30.2384889559309
vertex 448.880684657749 1622.89461959356 15.2384889559316
endloop
endfacet
facet normal -0.500000000000074 -0.866025403784396 -6.31377653539785e-013
outer loop
vertex 448.880684657735 1622.89461959356 30.2384889559309
vertex 449.242456090095 1622.74476895981 15.2384889559319
vertex 449.242456090082 1622.7447689598 30.2384889559312
endloop
endfacet
facet normal 6.45232761842897e-014 1.0 2.14883666383572e-013
outer loop
vertex 449.630684657749 1625.69365769924 15.2384889559322
vertex 454.630684657735 1625.69365769924 30.2384889559366
vertex 454.630684657749 1625.69365769924 15.2384889559366
endloop
endfacet
facet normal 6.45232761842897e-014 1.0 2.14883666383572e-013
outer loop
vertex 454.630684657735 1625.69365769924 30.2384889559366
vertex 449.630684657749 1625.69365769924 15.2384889559322
vertex 449.630684657735 1625.69365769924 30.2384889559322
endloop
endfacet
facet normal -0.258819045102328 0.96592582628912 -2.39235520931728e-014
outer loop
vertex 449.242456090095 1625.64254643867 15.2384889559326
vertex 449.630684657735 1625.69365769924 30.2384889559322
vertex 449.630684657749 1625.69365769924 15.2384889559322
endloop
endfacet
facet normal -0.130526192219898 0.991444861373831 9.48402368925151e-014
outer loop
vertex 449.630684657735 1625.69365769924 30.2384889559322
vertex 449.242456090095 1625.64254643867 15.2384889559326
vertex 449.242456090082 1625.64254643867 30.2384889559318
endloop
endfacet
endsolid model
