solid model
facet normal 0.819152044288538 -3.04055965408422e-012 -0.573576436351695
outer loop
vertex 561.192338625383 302.042511484462 7.31377761353826
vertex 559.99233862566 377.042511484467 5.60000000544866
vertex 561.192338625661 377.042511484462 7.31377761353827
endloop
endfacet
facet normal 0.819152044288538 -3.04055965408422e-012 -0.573576436351695
outer loop
vertex 559.99233862566 377.042511484467 5.60000000544866
vertex 561.192338625383 302.042511484462 7.31377761353826
vertex 559.992338625382 302.042511484466 5.60000000544866
endloop
endfacet
facet normal 3.71217012684609e-012 1.0 -2.92457427670725e-024
outer loop
vertex 564.392338625656 377.04251148445 1.20000000544547
vertex 563.192338625656 377.042511484455 1.20000000544642
vertex 564.392338625662 377.04251148445 8.80000000544537
endloop
endfacet
facet normal 3.71217012684609e-012 1.0 -2.92457427670725e-024
outer loop
vertex 563.192338625656 377.042511484455 1.20000000544642
vertex 564.392338625656 377.04251148445 1.20000000544547
vertex 562.233002747927 377.042511484458 1.20000000544717
endloop
endfacet
facet normal 3.71217012684609e-012 1.0 -2.92457427670725e-024
outer loop
vertex 564.392338625662 377.04251148445 8.80000000544537
vertex 563.192338625656 377.042511484455 1.20000000544642
vertex 563.192338625662 377.042511484455 8.80000000544632
endloop
endfacet
facet normal 3.71217012684609e-012 1.0 -2.92457427670725e-024
outer loop
vertex 564.392338625662 377.04251148445 8.80000000544537
vertex 563.192338625662 377.042511484455 8.80000000544632
vertex 565.351674503392 377.042511484447 8.80000000544462
endloop
endfacet
facet normal 3.71217012684609e-012 1.0 -2.92457427670725e-024
outer loop
vertex 561.873251793778 377.04251148446 5.44736908315044e-009
vertex 562.233002747927 377.042511484458 1.20000000544717
vertex 565.711425457533 377.042511484445 5.4443458838447e-009
endloop
endfacet
facet normal 3.71217012684609e-012 1.0 -2.92457427670725e-024
outer loop
vertex 562.233002747927 377.042511484458 1.20000000544717
vertex 561.873251793778 377.04251148446 5.44736908315044e-009
vertex 558.792338625659 377.042511484471 4.4000000054497
endloop
endfacet
facet normal 3.71217012684609e-012 1.0 -2.92457427670725e-024
outer loop
vertex 565.711425457533 377.042511484445 5.4443458838447e-009
vertex 562.233002747927 377.042511484458 1.20000000544717
vertex 564.392338625656 377.04251148445 1.20000000544547
endloop
endfacet
facet normal 3.71217012684609e-012 1.0 -2.92457427670725e-024
outer loop
vertex 562.233002747927 377.042511484458 1.20000000544717
vertex 558.792338625659 377.042511484471 4.4000000054497
vertex 561.192338625658 377.042511484462 2.68622239735708
endloop
endfacet
facet normal 3.71217012684609e-012 1.0 -2.92457427670725e-024
outer loop
vertex 561.192338625658 377.042511484462 2.68622239735708
vertex 558.792338625659 377.042511484471 4.4000000054497
vertex 559.992338625659 377.042511484467 4.40000000544876
endloop
endfacet
facet normal 3.71217012684609e-012 1.0 -2.92457427670725e-024
outer loop
vertex 559.992338625659 377.042511484467 4.40000000544876
vertex 558.792338625659 377.042511484471 4.4000000054497
vertex 558.79233862566 377.042511484471 5.60000000544961
endloop
endfacet
facet normal 3.71217012684609e-012 1.0 -2.92457427670725e-024
outer loop
vertex 559.992338625659 377.042511484467 4.40000000544876
vertex 558.79233862566 377.042511484471 5.60000000544961
vertex 559.99233862566 377.042511484467 5.60000000544866
endloop
endfacet
facet normal 3.71217012684609e-012 1.0 -2.92457427670725e-024
outer loop
vertex 559.99233862566 377.042511484467 5.60000000544866
vertex 558.79233862566 377.042511484471 5.60000000544961
vertex 561.873251793786 377.04251148446 10.0000000054473
endloop
endfacet
facet normal 3.71217012684609e-012 1.0 -2.92457427670725e-024
outer loop
vertex 559.99233862566 377.042511484467 5.60000000544866
vertex 561.873251793786 377.04251148446 10.0000000054473
vertex 561.192338625661 377.042511484462 7.31377761353827
endloop
endfacet
facet normal 3.71217012684609e-012 1.0 -2.92457427670725e-024
outer loop
vertex 561.192338625661 377.042511484462 7.31377761353827
vertex 561.873251793786 377.04251148446 10.0000000054473
vertex 562.233002747934 377.042511484458 8.80000000544707
endloop
endfacet
facet normal 3.71217012684609e-012 1.0 -2.92457427670725e-024
outer loop
vertex 562.233002747934 377.042511484458 8.80000000544707
vertex 561.873251793786 377.04251148446 10.0000000054473
vertex 563.192338625662 377.042511484455 8.80000000544632
endloop
endfacet
facet normal 3.71217012684609e-012 1.0 -2.92457427670725e-024
outer loop
vertex 565.711425457533 377.042511484445 5.4443458838447e-009
vertex 565.351674503385 377.042511484447 1.20000000544472
vertex 568.792338625659 377.042511484434 4.40000000544182
endloop
endfacet
facet normal 3.71217012684609e-012 1.0 -2.92457427670725e-024
outer loop
vertex 565.351674503385 377.042511484447 1.20000000544472
vertex 565.711425457533 377.042511484445 5.4443458838447e-009
vertex 564.392338625656 377.04251148445 1.20000000544547
endloop
endfacet
facet normal 3.71217012684609e-012 1.0 -2.92457427670725e-024
outer loop
vertex 568.792338625659 377.042511484434 4.40000000544182
vertex 565.351674503385 377.042511484447 1.20000000544472
vertex 566.392338625658 377.042511484443 2.68622239735334
endloop
endfacet
facet normal 3.71217012684609e-012 1.0 -2.92457427670725e-024
outer loop
vertex 568.792338625659 377.042511484434 4.40000000544182
vertex 566.392338625658 377.042511484443 2.68622239735334
vertex 567.592338625659 377.042511484438 4.40000000544277
endloop
endfacet
facet normal 3.71217012684609e-012 1.0 -2.92457427670725e-024
outer loop
vertex 568.792338625659 377.042511484434 4.40000000544182
vertex 567.592338625659 377.042511484438 4.40000000544277
vertex 568.79233862566 377.042511484434 5.60000000544173
endloop
endfacet
facet normal 3.71217012684609e-012 1.0 -2.92457427670725e-024
outer loop
vertex 568.79233862566 377.042511484434 5.60000000544173
vertex 567.592338625659 377.042511484438 4.40000000544277
vertex 567.59233862566 377.042511484438 5.60000000544268
endloop
endfacet
facet normal 3.71217012684609e-012 1.0 -2.92457427670725e-024
outer loop
vertex 568.79233862566 377.042511484434 5.60000000544173
vertex 567.59233862566 377.042511484438 5.60000000544268
vertex 565.711425457541 377.042511484445 10.0000000054442
endloop
endfacet
facet normal 3.71217012684609e-012 1.0 -2.92457427670725e-024
outer loop
vertex 565.711425457541 377.042511484445 10.0000000054442
vertex 567.59233862566 377.042511484438 5.60000000544268
vertex 566.392338625661 377.042511484443 7.31377761353453
endloop
endfacet
facet normal 3.71217012684609e-012 1.0 -2.92457427670725e-024
outer loop
vertex 565.711425457541 377.042511484445 10.0000000054442
vertex 566.392338625661 377.042511484443 7.31377761353453
vertex 565.351674503392 377.042511484447 8.80000000544462
endloop
endfacet
facet normal 3.71217012684609e-012 1.0 -2.92457427670725e-024
outer loop
vertex 565.711425457541 377.042511484445 10.0000000054442
vertex 565.351674503392 377.042511484447 8.80000000544462
vertex 563.192338625662 377.042511484455 8.80000000544632
endloop
endfacet
facet normal 3.71217012684609e-012 1.0 -2.92457427670725e-024
outer loop
vertex 565.711425457541 377.042511484445 10.0000000054442
vertex 563.192338625662 377.042511484455 8.80000000544632
vertex 561.873251793786 377.04251148446 10.0000000054473
endloop
endfacet
facet normal 1.0 -3.71251129157219e-012 -8.6629370343907e-013
outer loop
vertex 559.992338625382 302.042511484466 5.60000000544866
vertex 559.992338625659 377.042511484467 4.40000000544876
vertex 559.99233862566 377.042511484467 5.60000000544866
endloop
endfacet
facet normal 1.0 -3.71251129157219e-012 -8.6629370343907e-013
outer loop
vertex 559.992338625659 377.042511484467 4.40000000544876
vertex 559.992338625382 302.042511484466 5.60000000544866
vertex 559.992338625381 302.042511484467 4.40000000544875
endloop
endfacet
facet normal 7.87973756352366e-013 -7.33943305770797e-017 1.0
outer loop
vertex 564.392338625656 377.04251148445 1.20000000544547
vertex 565.351674503107 302.042511484447 1.20000000544471
vertex 565.351674503385 377.042511484447 1.20000000544472
endloop
endfacet
facet normal 7.87973756352366e-013 -7.33943305770797e-017 1.0
outer loop
vertex 565.351674503107 302.042511484447 1.20000000544471
vertex 564.392338625656 377.04251148445 1.20000000544547
vertex 564.392338625378 302.04251148445 1.20000000544547
endloop
endfacet
facet normal 7.88085457519682e-013 -9.62548588631661e-017 1.0
outer loop
vertex 561.873251793786 377.04251148446 10.0000000054473
vertex 565.711425457263 302.042511484445 10.0000000054442
vertex 565.711425457541 377.042511484445 10.0000000054442
endloop
endfacet
facet normal 7.88085457519682e-013 -9.62548588631661e-017 1.0
outer loop
vertex 565.711425457263 302.042511484445 10.0000000054442
vertex 561.873251793786 377.04251148446 10.0000000054473
vertex 561.873251793508 302.04251148446 10.0000000054473
endloop
endfacet
facet normal -3.71217012684608e-012 -1.0 6.27363566226436e-015
outer loop
vertex 564.392338625384 302.04251148445 8.80000000544537
vertex 563.192338625378 302.042511484455 1.20000000544642
vertex 564.392338625378 302.04251148445 1.20000000544547
endloop
endfacet
facet normal -3.71217012684608e-012 -1.0 6.27363566226436e-015
outer loop
vertex 563.192338625378 302.042511484455 1.20000000544642
vertex 564.392338625384 302.04251148445 8.80000000544537
vertex 563.192338625384 302.042511484455 8.80000000544631
endloop
endfacet
facet normal -3.71217012684608e-012 -1.0 6.27363566226436e-015
outer loop
vertex 563.192338625384 302.042511484455 8.80000000544631
vertex 564.392338625384 302.04251148445 8.80000000544537
vertex 565.351674503113 302.042511484447 8.80000000544461
endloop
endfacet
facet normal -3.71217012684608e-012 -1.0 6.27363566226436e-015
outer loop
vertex 563.192338625384 302.042511484455 8.80000000544631
vertex 565.351674503113 302.042511484447 8.80000000544461
vertex 562.233002747655 302.042511484458 8.80000000544707
endloop
endfacet
facet normal -3.71217012684608e-012 -1.0 6.27363566226436e-015
outer loop
vertex 568.792338625381 302.042511484434 4.40000000544182
vertex 565.351674503107 302.042511484447 1.20000000544471
vertex 565.711425457254 302.042511484445 5.44434130139946e-009
endloop
endfacet
facet normal -3.71217012684608e-012 -1.0 6.27363566226436e-015
outer loop
vertex 565.351674503107 302.042511484447 1.20000000544471
vertex 568.792338625381 302.042511484434 4.40000000544182
vertex 566.392338625379 302.042511484443 2.68622239735334
endloop
endfacet
facet normal -3.71217012684608e-012 -1.0 6.27363566226436e-015
outer loop
vertex 566.392338625379 302.042511484443 2.68622239735334
vertex 568.792338625381 302.042511484434 4.40000000544182
vertex 567.592338625381 302.042511484438 4.40000000544276
endloop
endfacet
facet normal -3.71217012684608e-012 -1.0 6.27363566226436e-015
outer loop
vertex 567.592338625381 302.042511484438 4.40000000544276
vertex 568.792338625381 302.042511484434 4.40000000544182
vertex 568.792338625381 302.042511484434 5.60000000544173
endloop
endfacet
facet normal -3.71217012684608e-012 -1.0 6.27363566226436e-015
outer loop
vertex 567.592338625381 302.042511484438 4.40000000544276
vertex 568.792338625381 302.042511484434 5.60000000544173
vertex 567.592338625381 302.042511484438 5.60000000544267
endloop
endfacet
facet normal -3.71217012684608e-012 -1.0 6.27363566226436e-015
outer loop
vertex 567.592338625381 302.042511484438 5.60000000544267
vertex 568.792338625381 302.042511484434 5.60000000544173
vertex 565.711425457263 302.042511484445 10.0000000054442
endloop
endfacet
facet normal -3.71217012684608e-012 -1.0 6.27363566226436e-015
outer loop
vertex 567.592338625381 302.042511484438 5.60000000544267
vertex 565.711425457263 302.042511484445 10.0000000054442
vertex 566.392338625383 302.042511484443 7.31377761353453
endloop
endfacet
facet normal -3.71217012684608e-012 -1.0 6.27363566226436e-015
outer loop
vertex 566.392338625383 302.042511484443 7.31377761353453
vertex 565.711425457263 302.042511484445 10.0000000054442
vertex 565.351674503113 302.042511484447 8.80000000544461
endloop
endfacet
facet normal -3.71217012684608e-012 -1.0 6.27363566226436e-015
outer loop
vertex 561.873251793499 302.04251148446 5.44736379571358e-009
vertex 562.233002747649 302.042511484458 1.20000000544717
vertex 558.792338625381 302.042511484471 4.4000000054497
endloop
endfacet
facet normal -3.71217012684608e-012 -1.0 6.27363566226436e-015
outer loop
vertex 562.233002747649 302.042511484458 1.20000000544717
vertex 561.873251793499 302.04251148446 5.44736379571358e-009
vertex 565.711425457254 302.042511484445 5.44434130139946e-009
endloop
endfacet
facet normal -3.71217012684608e-012 -1.0 6.27363566226436e-015
outer loop
vertex 562.233002747649 302.042511484458 1.20000000544717
vertex 565.711425457254 302.042511484445 5.44434130139946e-009
vertex 564.392338625378 302.04251148445 1.20000000544547
endloop
endfacet
facet normal -3.71217012684608e-012 -1.0 6.27363566226436e-015
outer loop
vertex 564.392338625378 302.04251148445 1.20000000544547
vertex 565.711425457254 302.042511484445 5.44434130139946e-009
vertex 565.351674503107 302.042511484447 1.20000000544471
endloop
endfacet
facet normal -3.71217012684608e-012 -1.0 6.27363566226436e-015
outer loop
vertex 562.233002747649 302.042511484458 1.20000000544717
vertex 564.392338625378 302.04251148445 1.20000000544547
vertex 563.192338625378 302.042511484455 1.20000000544642
endloop
endfacet
facet normal -3.71217012684608e-012 -1.0 6.27363566226436e-015
outer loop
vertex 558.792338625381 302.042511484471 4.4000000054497
vertex 562.233002747649 302.042511484458 1.20000000544717
vertex 561.192338625379 302.042511484462 2.68622239735707
endloop
endfacet
facet normal -3.71217012684608e-012 -1.0 6.27363566226436e-015
outer loop
vertex 558.792338625381 302.042511484471 4.4000000054497
vertex 561.192338625379 302.042511484462 2.68622239735707
vertex 559.992338625381 302.042511484467 4.40000000544875
endloop
endfacet
facet normal -3.71217012684608e-012 -1.0 6.27363566226436e-015
outer loop
vertex 558.792338625381 302.042511484471 4.4000000054497
vertex 559.992338625381 302.042511484467 4.40000000544875
vertex 559.992338625382 302.042511484466 5.60000000544866
endloop
endfacet
facet normal -3.71217012684608e-012 -1.0 6.27363566226436e-015
outer loop
vertex 558.792338625381 302.042511484471 4.4000000054497
vertex 559.992338625382 302.042511484466 5.60000000544866
vertex 558.792338625382 302.042511484471 5.6000000054496
endloop
endfacet
facet normal -3.71217012684608e-012 -1.0 6.27363566226436e-015
outer loop
vertex 558.792338625382 302.042511484471 5.6000000054496
vertex 559.992338625382 302.042511484466 5.60000000544866
vertex 561.192338625383 302.042511484462 7.31377761353826
endloop
endfacet
facet normal -3.71217012684608e-012 -1.0 6.27363566226436e-015
outer loop
vertex 558.792338625382 302.042511484471 5.6000000054496
vertex 561.192338625383 302.042511484462 7.31377761353826
vertex 561.873251793508 302.04251148446 10.0000000054473
endloop
endfacet
facet normal -3.71217012684608e-012 -1.0 6.27363566226436e-015
outer loop
vertex 561.873251793508 302.04251148446 10.0000000054473
vertex 561.192338625383 302.042511484462 7.31377761353826
vertex 562.233002747655 302.042511484458 8.80000000544707
endloop
endfacet
facet normal -3.71217012684608e-012 -1.0 6.27363566226436e-015
outer loop
vertex 561.873251793508 302.04251148446 10.0000000054473
vertex 562.233002747655 302.042511484458 8.80000000544707
vertex 565.351674503113 302.042511484447 8.80000000544461
endloop
endfacet
facet normal -3.71217012684608e-012 -1.0 6.27363566226436e-015
outer loop
vertex 561.873251793508 302.04251148446 10.0000000054473
vertex 565.351674503113 302.042511484447 8.80000000544461
vertex 565.711425457263 302.042511484445 10.0000000054442
endloop
endfacet
facet normal 0.819152044289466 -3.0411467511176e-012 0.57357643635037
outer loop
vertex 559.992338625381 302.042511484467 4.40000000544875
vertex 561.192338625658 377.042511484462 2.68622239735708
vertex 559.992338625659 377.042511484467 4.40000000544876
endloop
endfacet
facet normal 0.819152044289466 -3.0411467511176e-012 0.57357643635037
outer loop
vertex 561.192338625658 377.042511484462 2.68622239735708
vertex 559.992338625381 302.042511484467 4.40000000544875
vertex 561.192338625379 302.042511484462 2.68622239735707
endloop
endfacet
facet normal 0.819152044289485 -3.04038476196877e-012 0.573576436350342
outer loop
vertex 561.192338625379 302.042511484462 2.68622239735707
vertex 562.233002747927 377.042511484458 1.20000000544717
vertex 561.192338625658 377.042511484462 2.68622239735708
endloop
endfacet
facet normal 0.819152044289485 -3.04038476196877e-012 0.573576436350342
outer loop
vertex 562.233002747927 377.042511484458 1.20000000544717
vertex 561.192338625379 302.042511484462 2.68622239735707
vertex 562.233002747649 302.042511484458 1.20000000544717
endloop
endfacet
facet normal -0.819152044288484 3.04133246445834e-012 0.573576436351771
outer loop
vertex 566.392338625658 377.042511484443 2.68622239735334
vertex 567.592338625381 302.042511484438 4.40000000544276
vertex 567.592338625659 377.042511484438 4.40000000544277
endloop
endfacet
facet normal -0.819152044288484 3.04133246445834e-012 0.573576436351771
outer loop
vertex 567.592338625381 302.042511484438 4.40000000544276
vertex 566.392338625658 377.042511484443 2.68622239735334
vertex 566.392338625379 302.042511484443 2.68622239735334
endloop
endfacet
facet normal -0.81915204428952 3.0408916321962e-012 -0.573576436350292
outer loop
vertex 567.592338625381 302.042511484438 5.60000000544267
vertex 566.392338625661 377.042511484443 7.31377761353453
vertex 567.59233862566 377.042511484438 5.60000000544268
endloop
endfacet
facet normal -0.81915204428952 3.0408916321962e-012 -0.573576436350292
outer loop
vertex 566.392338625661 377.042511484443 7.31377761353453
vertex 567.592338625381 302.042511484438 5.60000000544267
vertex 566.392338625383 302.042511484443 7.31377761353453
endloop
endfacet
facet normal -0.81915204428947 3.04089212360083e-012 -0.573576436350364
outer loop
vertex 566.392338625661 377.042511484443 7.31377761353453
vertex 565.351674503113 302.042511484447 8.80000000544461
vertex 565.351674503392 377.042511484447 8.80000000544462
endloop
endfacet
facet normal -0.81915204428947 3.04089212360083e-012 -0.573576436350364
outer loop
vertex 565.351674503113 302.042511484447 8.80000000544461
vertex 566.392338625661 377.042511484443 7.31377761353453
vertex 566.392338625383 302.042511484443 7.31377761353453
endloop
endfacet
facet normal 1.0 -3.71158724495519e-012 -8.02461535816924e-013
outer loop
vertex 564.392338625384 302.04251148445 8.80000000544537
vertex 564.392338625656 377.04251148445 1.20000000544547
vertex 564.392338625662 377.04251148445 8.80000000544537
endloop
endfacet
facet normal 1.0 -3.71158724495519e-012 -8.02461535816924e-013
outer loop
vertex 564.392338625656 377.04251148445 1.20000000544547
vertex 564.392338625384 302.04251148445 8.80000000544537
vertex 564.392338625378 302.04251148445 1.20000000544547
endloop
endfacet
facet normal -7.87574267020125e-013 6.57992169505432e-017 -1.0
outer loop
vertex 561.873251793499 302.04251148446 5.44736379571358e-009
vertex 565.711425457533 377.042511484445 5.4443458838447e-009
vertex 565.711425457254 302.042511484445 5.44434130139946e-009
endloop
endfacet
facet normal -7.87574267020125e-013 6.57992169505432e-017 -1.0
outer loop
vertex 565.711425457533 377.042511484445 5.4443458838447e-009
vertex 561.873251793499 302.04251148446 5.44736379571358e-009
vertex 561.873251793778 377.04251148446 5.44736908315044e-009
endloop
endfacet
facet normal -0.81915204428948 3.0406414314862e-012 -0.573576436350349
outer loop
vertex 561.873251793778 377.04251148446 5.44736908315044e-009
vertex 558.792338625381 302.042511484471 4.4000000054497
vertex 558.792338625659 377.042511484471 4.4000000054497
endloop
endfacet
facet normal -0.81915204428948 3.0406414314862e-012 -0.573576436350349
outer loop
vertex 558.792338625381 302.042511484471 4.4000000054497
vertex 561.873251793778 377.04251148446 5.44736908315044e-009
vertex 561.873251793499 302.04251148446 5.44736379571358e-009
endloop
endfacet
facet normal -1.0 3.71281930711119e-012 6.93034962751021e-013
outer loop
vertex 567.592338625381 302.042511484438 4.40000000544276
vertex 567.59233862566 377.042511484438 5.60000000544268
vertex 567.592338625659 377.042511484438 4.40000000544277
endloop
endfacet
facet normal -1.0 3.71281930711119e-012 6.93034962751021e-013
outer loop
vertex 567.59233862566 377.042511484438 5.60000000544268
vertex 567.592338625381 302.042511484438 4.40000000544276
vertex 567.592338625381 302.042511484438 5.60000000544267
endloop
endfacet
facet normal -0.819152044288541 3.04031519728425e-012 0.57357643635169
outer loop
vertex 558.792338625382 302.042511484471 5.6000000054496
vertex 561.873251793786 377.04251148446 10.0000000054473
vertex 558.79233862566 377.042511484471 5.60000000544961
endloop
endfacet
facet normal -0.819152044288541 3.04031519728425e-012 0.57357643635169
outer loop
vertex 561.873251793786 377.04251148446 10.0000000054473
vertex 558.792338625382 302.042511484471 5.6000000054496
vertex 561.873251793508 302.04251148446 10.0000000054473
endloop
endfacet
facet normal -0.819152044288541 3.04056568446194e-012 0.57357643635169
outer loop
vertex 565.351674503107 302.042511484447 1.20000000544471
vertex 566.392338625658 377.042511484443 2.68622239735334
vertex 565.351674503385 377.042511484447 1.20000000544472
endloop
endfacet
facet normal -0.819152044288541 3.04056568446194e-012 0.57357643635169
outer loop
vertex 566.392338625658 377.042511484443 2.68622239735334
vertex 565.351674503107 302.042511484447 1.20000000544471
vertex 566.392338625379 302.042511484443 2.68622239735334
endloop
endfacet
facet normal 0.819152044289487 -3.04115358396605e-012 0.573576436350339
outer loop
vertex 565.711425457263 302.042511484445 10.0000000054442
vertex 568.79233862566 377.042511484434 5.60000000544173
vertex 565.711425457541 377.042511484445 10.0000000054442
endloop
endfacet
facet normal 0.819152044289487 -3.04115358396605e-012 0.573576436350339
outer loop
vertex 568.79233862566 377.042511484434 5.60000000544173
vertex 565.711425457263 302.042511484445 10.0000000054442
vertex 568.792338625381 302.042511484434 5.60000000544173
endloop
endfacet
facet normal 1.0 -3.7125112915722e-012 -5.96780106813395e-013
outer loop
vertex 568.792338625381 302.042511484434 5.60000000544173
vertex 568.792338625659 377.042511484434 4.40000000544182
vertex 568.79233862566 377.042511484434 5.60000000544173
endloop
endfacet
facet normal 1.0 -3.7125112915722e-012 -5.96780106813395e-013
outer loop
vertex 568.792338625659 377.042511484434 4.40000000544182
vertex 568.792338625381 302.042511484434 5.60000000544173
vertex 568.792338625381 302.042511484434 4.40000000544182
endloop
endfacet
facet normal 0.819152044288528 -3.04057659479151e-012 -0.573576436351709
outer loop
vertex 568.792338625381 302.042511484434 4.40000000544182
vertex 565.711425457533 377.042511484445 5.4443458838447e-009
vertex 568.792338625659 377.042511484434 4.40000000544182
endloop
endfacet
facet normal 0.819152044288528 -3.04057659479151e-012 -0.573576436351709
outer loop
vertex 565.711425457533 377.042511484445 5.4443458838447e-009
vertex 568.792338625381 302.042511484434 4.40000000544182
vertex 565.711425457254 302.042511484445 5.44434130139946e-009
endloop
endfacet
facet normal -1.0 3.71127922941619e-012 8.66293703438774e-013
outer loop
vertex 558.792338625381 302.042511484471 4.4000000054497
vertex 558.79233862566 377.042511484471 5.60000000544961
vertex 558.792338625659 377.042511484471 4.4000000054497
endloop
endfacet
facet normal -1.0 3.71127922941619e-012 8.66293703438774e-013
outer loop
vertex 558.79233862566 377.042511484471 5.60000000544961
vertex 558.792338625381 302.042511484471 4.4000000054497
vertex 558.792338625382 302.042511484471 5.6000000054496
endloop
endfacet
facet normal 7.8806782030783e-013 -5.29401736909241e-017 1.0
outer loop
vertex 562.233002747927 377.042511484458 1.20000000544717
vertex 563.192338625378 302.042511484455 1.20000000544642
vertex 563.192338625656 377.042511484455 1.20000000544642
endloop
endfacet
facet normal 7.8806782030783e-013 -5.29401736909241e-017 1.0
outer loop
vertex 563.192338625378 302.042511484455 1.20000000544642
vertex 562.233002747927 377.042511484458 1.20000000544717
vertex 562.233002747649 302.042511484458 1.20000000544717
endloop
endfacet
facet normal 0.81915204428852 -3.04081471767557e-012 -0.57357643635172
outer loop
vertex 562.233002747934 377.042511484458 8.80000000544707
vertex 561.192338625383 302.042511484462 7.31377761353826
vertex 561.192338625661 377.042511484462 7.31377761353827
endloop
endfacet
facet normal 0.81915204428852 -3.04081471767557e-012 -0.57357643635172
outer loop
vertex 561.192338625383 302.042511484462 7.31377761353826
vertex 562.233002747934 377.042511484458 8.80000000544707
vertex 562.233002747655 302.042511484458 8.80000000544707
endloop
endfacet
facet normal -7.87879692397035e-013 6.73784020815996e-017 -1.0
outer loop
vertex 563.192338625384 302.042511484455 8.80000000544631
vertex 562.233002747934 377.042511484458 8.80000000544707
vertex 563.192338625662 377.042511484455 8.80000000544632
endloop
endfacet
facet normal -7.87879692397035e-013 6.73784020815996e-017 -1.0
outer loop
vertex 562.233002747934 377.042511484458 8.80000000544707
vertex 563.192338625384 302.042511484455 8.80000000544631
vertex 562.233002747655 302.042511484458 8.80000000544707
endloop
endfacet
facet normal -1.0 3.7128193071112e-012 8.02461535816924e-013
outer loop
vertex 563.192338625378 302.042511484455 1.20000000544642
vertex 563.192338625662 377.042511484455 8.80000000544632
vertex 563.192338625656 377.042511484455 1.20000000544642
endloop
endfacet
facet normal -1.0 3.7128193071112e-012 8.02461535816924e-013
outer loop
vertex 563.192338625662 377.042511484455 8.80000000544632
vertex 563.192338625378 302.042511484455 1.20000000544642
vertex 563.192338625384 302.042511484455 8.80000000544631
endloop
endfacet
facet normal -7.87879692396561e-013 4.81274308933443e-017 -1.0
outer loop
vertex 564.392338625384 302.04251148445 8.80000000544537
vertex 565.351674503392 377.042511484447 8.80000000544462
vertex 565.351674503113 302.042511484447 8.80000000544461
endloop
endfacet
facet normal -7.87879692396561e-013 4.81274308933443e-017 -1.0
outer loop
vertex 565.351674503392 377.042511484447 8.80000000544462
vertex 564.392338625384 302.04251148445 8.80000000544537
vertex 564.392338625662 377.04251148445 8.80000000544537
endloop
endfacet
endsolid model
