solid T6
facet normal -2.66392061856249e-014 -9.74210295767719e-014 1.0
outer loop
vertex 403.871473814154 662.486061661567 -1.29999447475972
vertex 404.830809691883 762.486061661567 -1.29999447474995
vertex 403.871473814154 762.486061661567 -1.29999447474998
endloop
endfacet
facet normal -2.66392061856249e-014 -9.74210295767719e-014 1.0
outer loop
vertex 404.830809691883 762.486061661567 -1.29999447474995
vertex 403.871473814154 662.486061661567 -1.29999447475972
vertex 404.830809691883 662.486061661567 -1.29999447475969
endloop
endfacet
facet normal 2.51960951196163e-027 -1.0 -9.10929236002864e-014
outer loop
vertex 403.871473814154 662.486061661567 -1.29999447475972
vertex 402.671473814154 662.486061661566 6.30000552524014
vertex 402.671473814154 662.486061661567 -1.29999447475975
endloop
endfacet
facet normal 2.51960951196163e-027 -1.0 -9.10929236002864e-014
outer loop
vertex 402.671473814154 662.486061661566 6.30000552524014
vertex 403.871473814154 662.486061661567 -1.29999447475972
vertex 403.871473814154 662.486061661566 6.30000552524018
endloop
endfacet
facet normal 2.51960951196163e-027 -1.0 -9.10929236002864e-014
outer loop
vertex 405.190560646031 662.486061661567 -2.49999447475977
vertex 403.871473814154 662.486061661567 -1.29999447475972
vertex 401.712137936425 662.486061661567 -1.29999447475977
endloop
endfacet
facet normal 2.51960951196163e-027 -1.0 -9.10929236002864e-014
outer loop
vertex 403.871473814154 662.486061661567 -1.29999447475972
vertex 405.190560646031 662.486061661567 -2.49999447475977
vertex 404.830809691883 662.486061661567 -1.29999447475969
endloop
endfacet
facet normal 2.51960951196163e-027 -1.0 -9.10929236002864e-014
outer loop
vertex 404.830809691883 662.486061661567 -1.29999447475969
vertex 405.190560646031 662.486061661567 -2.49999447475977
vertex 408.271473814154 662.486061661567 1.90000552524021
endloop
endfacet
facet normal 2.51960951196163e-027 -1.0 -9.10929236002864e-014
outer loop
vertex 401.712137936425 662.486061661567 -1.29999447475977
vertex 403.871473814154 662.486061661567 -1.29999447475972
vertex 402.671473814154 662.486061661567 -1.29999447475975
endloop
endfacet
facet normal 2.51960951196163e-027 -1.0 -9.10929236002864e-014
outer loop
vertex 404.830809691883 662.486061661567 -1.29999447475969
vertex 408.271473814154 662.486061661567 1.90000552524021
vertex 405.871473814154 662.486061661567 0.18622791714978
endloop
endfacet
facet normal 2.51960951196163e-027 -1.0 -9.10929236002864e-014
outer loop
vertex 405.871473814154 662.486061661567 0.18622791714978
vertex 408.271473814154 662.486061661567 1.90000552524021
vertex 407.071473814154 662.486061661567 1.90000552524018
endloop
endfacet
facet normal 2.51960951196163e-027 -1.0 -9.10929236002864e-014
outer loop
vertex 407.071473814154 662.486061661567 1.90000552524018
vertex 408.271473814154 662.486061661567 1.90000552524021
vertex 407.071473814154 662.486061661566 3.10000552524009
endloop
endfacet
facet normal 2.51960951196163e-027 -1.0 -9.10929236002864e-014
outer loop
vertex 407.071473814154 662.486061661566 3.10000552524009
vertex 408.271473814154 662.486061661567 1.90000552524021
vertex 408.271473814154 662.486061661566 3.10000552524012
endloop
endfacet
facet normal 2.51960951196163e-027 -1.0 -9.10929236002864e-014
outer loop
vertex 407.071473814154 662.486061661566 3.10000552524009
vertex 408.271473814154 662.486061661566 3.10000552524012
vertex 405.871473814154 662.486061661566 4.81378313333097
endloop
endfacet
facet normal 2.51960951196163e-027 -1.0 -9.10929236002864e-014
outer loop
vertex 405.871473814154 662.486061661566 4.81378313333097
vertex 408.271473814154 662.486061661566 3.10000552524012
vertex 405.190560646031 662.486061661566 7.50000552524012
endloop
endfacet
facet normal 2.51960951196163e-027 -1.0 -9.10929236002864e-014
outer loop
vertex 405.871473814154 662.486061661566 4.81378313333097
vertex 405.190560646031 662.486061661566 7.50000552524012
vertex 404.830809691883 662.486061661566 6.3000055252402
endloop
endfacet
facet normal 2.51960951196163e-027 -1.0 -9.10929236002864e-014
outer loop
vertex 404.830809691883 662.486061661566 6.3000055252402
vertex 405.190560646031 662.486061661566 7.50000552524012
vertex 401.352386982277 662.486061661566 7.50000552524002
endloop
endfacet
facet normal 2.51960951196163e-027 -1.0 -9.10929236002864e-014
outer loop
vertex 401.352386982276 662.486061661567 -2.49999447475987
vertex 401.712137936425 662.486061661567 -1.29999447475977
vertex 398.271473814154 662.486061661567 1.90000552523995
endloop
endfacet
facet normal 2.51960951196163e-027 -1.0 -9.10929236002864e-014
outer loop
vertex 401.712137936425 662.486061661567 -1.29999447475977
vertex 401.352386982276 662.486061661567 -2.49999447475987
vertex 405.190560646031 662.486061661567 -2.49999447475977
endloop
endfacet
facet normal 2.51960951196163e-027 -1.0 -9.10929236002864e-014
outer loop
vertex 398.271473814154 662.486061661567 1.90000552523995
vertex 401.712137936425 662.486061661567 -1.29999447475977
vertex 400.671473814154 662.486061661567 0.186227917149281
endloop
endfacet
facet normal 2.51960951196163e-027 -1.0 -9.10929236002864e-014
outer loop
vertex 398.271473814154 662.486061661567 1.90000552523995
vertex 400.671473814154 662.486061661567 0.186227917149281
vertex 399.471473814154 662.486061661567 1.90000552523998
endloop
endfacet
facet normal 2.51960951196163e-027 -1.0 -9.10929236002864e-014
outer loop
vertex 398.271473814154 662.486061661567 1.90000552523995
vertex 399.471473814154 662.486061661567 1.90000552523998
vertex 398.271473814154 662.486061661566 3.10000552523985
endloop
endfacet
facet normal 2.51960951196163e-027 -1.0 -9.10929236002864e-014
outer loop
vertex 398.271473814154 662.486061661566 3.10000552523985
vertex 399.471473814154 662.486061661567 1.90000552523998
vertex 399.471473814154 662.486061661566 3.10000552523988
endloop
endfacet
facet normal 2.51960951196163e-027 -1.0 -9.10929236002864e-014
outer loop
vertex 398.271473814154 662.486061661566 3.10000552523985
vertex 399.471473814154 662.486061661566 3.10000552523988
vertex 401.352386982277 662.486061661566 7.50000552524002
endloop
endfacet
facet normal 2.51960951196163e-027 -1.0 -9.10929236002864e-014
outer loop
vertex 401.352386982277 662.486061661566 7.50000552524002
vertex 399.471473814154 662.486061661566 3.10000552523988
vertex 400.671473814154 662.486061661566 4.81378313333046
endloop
endfacet
facet normal 2.51960951196163e-027 -1.0 -9.10929236002864e-014
outer loop
vertex 401.352386982277 662.486061661566 7.50000552524002
vertex 400.671473814154 662.486061661566 4.81378313333046
vertex 401.712137936425 662.486061661566 6.30000552524012
endloop
endfacet
facet normal 2.51960951196163e-027 -1.0 -9.10929236002864e-014
outer loop
vertex 401.352386982277 662.486061661566 7.50000552524002
vertex 401.712137936425 662.486061661566 6.30000552524012
vertex 402.671473814154 662.486061661566 6.30000552524014
endloop
endfacet
facet normal 2.51960951196163e-027 -1.0 -9.10929236002864e-014
outer loop
vertex 401.352386982277 662.486061661566 7.50000552524002
vertex 402.671473814154 662.486061661566 6.30000552524014
vertex 403.871473814154 662.486061661566 6.30000552524018
endloop
endfacet
facet normal 2.51960951196163e-027 -1.0 -9.10929236002864e-014
outer loop
vertex 401.352386982277 662.486061661566 7.50000552524002
vertex 403.871473814154 662.486061661566 6.30000552524018
vertex 404.830809691883 662.486061661566 6.3000055252402
endloop
endfacet
facet normal 0.819152044289002 -5.6059746958846e-014 0.573576436351031
outer loop
vertex 400.671473814154 662.486061661567 0.186227917149281
vertex 399.471473814154 762.486061661567 1.90000552524972
vertex 399.471473814154 662.486061661567 1.90000552523998
endloop
endfacet
facet normal 0.819152044289002 -5.6059746958846e-014 0.573576436351031
outer loop
vertex 399.471473814154 762.486061661567 1.90000552524972
vertex 400.671473814154 662.486061661567 0.186227917149281
vertex 400.671473814154 762.486061661567 0.186227917159022
endloop
endfacet
facet normal -0.819152044289 5.6060627975e-014 -0.573576436351035
outer loop
vertex 404.830809691883 762.486061661566 6.30000552524995
vertex 405.871473814154 662.486061661566 4.81378313333097
vertex 404.830809691883 662.486061661566 6.3000055252402
endloop
endfacet
facet normal -0.819152044289 5.6060627975e-014 -0.573576436351035
outer loop
vertex 405.871473814154 662.486061661566 4.81378313333097
vertex 404.830809691883 762.486061661566 6.30000552524995
vertex 405.871473814154 762.486061661566 4.81378313334071
endloop
endfacet
facet normal 1.0 4.5119463720535e-016 2.37470861688248e-014
outer loop
vertex 403.871473814154 662.486061661567 -1.29999447475972
vertex 403.871473814154 762.486061661566 6.30000552524992
vertex 403.871473814154 662.486061661566 6.30000552524018
endloop
endfacet
facet normal 1.0 4.5119463720535e-016 2.37470861688248e-014
outer loop
vertex 403.871473814154 762.486061661566 6.30000552524992
vertex 403.871473814154 662.486061661567 -1.29999447475972
vertex 403.871473814154 762.486061661567 -1.29999447474998
endloop
endfacet
facet normal 0.819152044289004 5.56926714775707e-014 -0.573576436351028
outer loop
vertex 399.471473814154 662.486061661566 3.10000552523988
vertex 400.671473814154 762.486061661566 4.81378313334021
vertex 400.671473814154 662.486061661566 4.81378313333046
endloop
endfacet
facet normal 0.819152044289004 5.56926714775707e-014 -0.573576436351028
outer loop
vertex 400.671473814154 762.486061661566 4.81378313334021
vertex 399.471473814154 662.486061661566 3.10000552523988
vertex 399.471473814154 762.486061661566 3.10000552524963
endloop
endfacet
facet normal -0.819152044288981 -5.55027144174563e-014 0.573576436351061
outer loop
vertex 407.071473814154 762.486061661567 1.90000552524992
vertex 405.871473814154 662.486061661567 0.18622791714978
vertex 407.071473814154 662.486061661567 1.90000552524018
endloop
endfacet
facet normal -0.819152044288981 -5.55027144174563e-014 0.573576436351061
outer loop
vertex 405.871473814154 662.486061661567 0.18622791714978
vertex 407.071473814154 762.486061661567 1.90000552524992
vertex 405.871473814154 762.486061661567 0.186227917159522
endloop
endfacet
facet normal -0.819152044289046 5.58708169898392e-014 -0.573576436350969
outer loop
vertex 405.871473814154 762.486061661566 4.81378313334071
vertex 407.071473814154 662.486061661566 3.10000552524009
vertex 405.871473814154 662.486061661566 4.81378313333097
endloop
endfacet
facet normal -0.819152044289046 5.58708169898392e-014 -0.573576436350969
outer loop
vertex 407.071473814154 662.486061661566 3.10000552524009
vertex 405.871473814154 762.486061661566 4.81378313334071
vertex 407.071473814154 762.486061661566 3.10000552524983
endloop
endfacet
facet normal 2.70467220175835e-014 9.74139796605655e-014 -1.0
outer loop
vertex 405.190560646031 762.486061661567 -2.49999447475003
vertex 401.352386982276 662.486061661567 -2.49999447475987
vertex 401.352386982276 762.486061661567 -2.49999447475013
endloop
endfacet
facet normal 2.70467220175835e-014 9.74139796605655e-014 -1.0
outer loop
vertex 401.352386982276 662.486061661567 -2.49999447475987
vertex 405.190560646031 762.486061661567 -2.49999447475003
vertex 405.190560646031 662.486061661567 -2.49999447475977
endloop
endfacet
facet normal 0.819152044289014 -5.56853403311629e-014 0.573576436351015
outer loop
vertex 401.712137936425 662.486061661567 -1.29999447475977
vertex 400.671473814154 762.486061661567 0.186227917159022
vertex 400.671473814154 662.486061661567 0.186227917149281
endloop
endfacet
facet normal 0.819152044289014 -5.56853403311629e-014 0.573576436351015
outer loop
vertex 400.671473814154 762.486061661567 0.186227917159022
vertex 401.712137936425 662.486061661567 -1.29999447475977
vertex 401.712137936424 762.486061661567 -1.29999447475003
endloop
endfacet
facet normal -0.0 1.0 9.73665592596262e-014
outer loop
vertex 401.352386982276 762.486061661567 -2.49999447475013
vertex 401.712137936424 762.486061661567 -1.29999447475003
vertex 405.190560646031 762.486061661567 -2.49999447475003
endloop
endfacet
facet normal -0.0 1.0 9.73665592596262e-014
outer loop
vertex 401.712137936424 762.486061661567 -1.29999447475003
vertex 401.352386982276 762.486061661567 -2.49999447475013
vertex 398.271473814154 762.486061661567 1.90000552524969
endloop
endfacet
facet normal -0.0 1.0 9.73665592596262e-014
outer loop
vertex 401.712137936424 762.486061661567 -1.29999447475003
vertex 398.271473814154 762.486061661567 1.90000552524969
vertex 400.671473814154 762.486061661567 0.186227917159022
endloop
endfacet
facet normal -0.0 1.0 9.73665592596262e-014
outer loop
vertex 400.671473814154 762.486061661567 0.186227917159022
vertex 398.271473814154 762.486061661567 1.90000552524969
vertex 399.471473814154 762.486061661567 1.90000552524972
endloop
endfacet
facet normal -0.0 1.0 9.73665592596262e-014
outer loop
vertex 399.471473814154 762.486061661567 1.90000552524972
vertex 398.271473814154 762.486061661567 1.90000552524969
vertex 398.271473814154 762.486061661566 3.10000552524959
endloop
endfacet
facet normal -0.0 1.0 9.73665592596262e-014
outer loop
vertex 399.471473814154 762.486061661567 1.90000552524972
vertex 398.271473814154 762.486061661566 3.10000552524959
vertex 399.471473814154 762.486061661566 3.10000552524963
endloop
endfacet
facet normal -0.0 1.0 9.73665592596262e-014
outer loop
vertex 399.471473814154 762.486061661566 3.10000552524963
vertex 398.271473814154 762.486061661566 3.10000552524959
vertex 401.352386982277 762.486061661566 7.50000552524976
endloop
endfacet
facet normal -0.0 1.0 9.73665592596262e-014
outer loop
vertex 399.471473814154 762.486061661566 3.10000552524963
vertex 401.352386982277 762.486061661566 7.50000552524976
vertex 400.671473814154 762.486061661566 4.81378313334021
endloop
endfacet
facet normal -0.0 1.0 9.73665592596262e-014
outer loop
vertex 400.671473814154 762.486061661566 4.81378313334021
vertex 401.352386982277 762.486061661566 7.50000552524976
vertex 401.712137936425 762.486061661566 6.30000552524986
endloop
endfacet
facet normal -0.0 1.0 9.73665592596262e-014
outer loop
vertex 401.712137936425 762.486061661566 6.30000552524986
vertex 401.352386982277 762.486061661566 7.50000552524976
vertex 402.671473814154 762.486061661566 6.30000552524989
endloop
endfacet
facet normal -0.0 1.0 9.73665592596262e-014
outer loop
vertex 402.671473814154 762.486061661566 6.30000552524989
vertex 401.352386982277 762.486061661566 7.50000552524976
vertex 403.871473814154 762.486061661566 6.30000552524992
endloop
endfacet
facet normal -0.0 1.0 9.73665592596262e-014
outer loop
vertex 403.871473814154 762.486061661566 6.30000552524992
vertex 401.352386982277 762.486061661566 7.50000552524976
vertex 404.830809691883 762.486061661566 6.30000552524995
endloop
endfacet
facet normal -0.0 1.0 9.73665592596262e-014
outer loop
vertex 405.190560646031 762.486061661567 -2.49999447475003
vertex 404.830809691883 762.486061661567 -1.29999447474995
vertex 408.271473814154 762.486061661567 1.90000552524996
endloop
endfacet
facet normal -0.0 1.0 9.73665592596262e-014
outer loop
vertex 404.830809691883 762.486061661567 -1.29999447474995
vertex 405.190560646031 762.486061661567 -2.49999447475003
vertex 403.871473814154 762.486061661567 -1.29999447474998
endloop
endfacet
facet normal -0.0 1.0 9.73665592596262e-014
outer loop
vertex 403.871473814154 762.486061661567 -1.29999447474998
vertex 405.190560646031 762.486061661567 -2.49999447475003
vertex 401.712137936424 762.486061661567 -1.29999447475003
endloop
endfacet
facet normal -0.0 1.0 9.73665592596262e-014
outer loop
vertex 403.871473814154 762.486061661567 -1.29999447474998
vertex 401.712137936424 762.486061661567 -1.29999447475003
vertex 402.671473814154 762.486061661567 -1.29999447475001
endloop
endfacet
facet normal -0.0 1.0 9.73665592596262e-014
outer loop
vertex 408.271473814154 762.486061661567 1.90000552524996
vertex 404.830809691883 762.486061661567 -1.29999447474995
vertex 405.871473814154 762.486061661567 0.186227917159522
endloop
endfacet
facet normal -0.0 1.0 9.73665592596262e-014
outer loop
vertex 408.271473814154 762.486061661567 1.90000552524996
vertex 405.871473814154 762.486061661567 0.186227917159522
vertex 407.071473814154 762.486061661567 1.90000552524992
endloop
endfacet
facet normal -0.0 1.0 9.73665592596262e-014
outer loop
vertex 408.271473814154 762.486061661567 1.90000552524996
vertex 407.071473814154 762.486061661567 1.90000552524992
vertex 407.071473814154 762.486061661566 3.10000552524983
endloop
endfacet
facet normal -0.0 1.0 9.73665592596262e-014
outer loop
vertex 408.271473814154 762.486061661567 1.90000552524996
vertex 407.071473814154 762.486061661566 3.10000552524983
vertex 408.271473814154 762.486061661566 3.10000552524986
endloop
endfacet
facet normal -0.0 1.0 9.73665592596262e-014
outer loop
vertex 408.271473814154 762.486061661566 3.10000552524986
vertex 407.071473814154 762.486061661566 3.10000552524983
vertex 405.871473814154 762.486061661566 4.81378313334071
endloop
endfacet
facet normal -0.0 1.0 9.73665592596262e-014
outer loop
vertex 408.271473814154 762.486061661566 3.10000552524986
vertex 405.871473814154 762.486061661566 4.81378313334071
vertex 405.190560646031 762.486061661566 7.50000552524986
endloop
endfacet
facet normal -0.0 1.0 9.73665592596262e-014
outer loop
vertex 405.190560646031 762.486061661566 7.50000552524986
vertex 405.871473814154 762.486061661566 4.81378313334071
vertex 404.830809691883 762.486061661566 6.30000552524995
endloop
endfacet
facet normal -0.0 1.0 9.73665592596262e-014
outer loop
vertex 405.190560646031 762.486061661566 7.50000552524986
vertex 404.830809691883 762.486061661566 6.30000552524995
vertex 401.352386982277 762.486061661566 7.50000552524976
endloop
endfacet
facet normal -0.0 1.0 9.73665592596262e-014
outer loop
vertex 402.671473814154 762.486061661566 6.30000552524989
vertex 403.871473814154 762.486061661567 -1.29999447474998
vertex 402.671473814154 762.486061661567 -1.29999447475001
endloop
endfacet
facet normal -0.0 1.0 9.73665592596262e-014
outer loop
vertex 403.871473814154 762.486061661567 -1.29999447474998
vertex 402.671473814154 762.486061661566 6.30000552524989
vertex 403.871473814154 762.486061661566 6.30000552524992
endloop
endfacet
facet normal -2.68171233586932e-014 -9.74157421396171e-014 1.0
outer loop
vertex 405.190560646031 662.486061661566 7.50000552524012
vertex 401.352386982277 762.486061661566 7.50000552524976
vertex 401.352386982277 662.486061661566 7.50000552524002
endloop
endfacet
facet normal -2.68171233586932e-014 -9.74157421396171e-014 1.0
outer loop
vertex 401.352386982277 762.486061661566 7.50000552524976
vertex 405.190560646031 662.486061661566 7.50000552524012
vertex 405.190560646031 762.486061661566 7.50000552524986
endloop
endfacet
facet normal 1.0 -4.51194637207664e-016 -6.91748183483779e-029
outer loop
vertex 399.471473814154 662.486061661567 1.90000552523998
vertex 399.471473814154 762.486061661566 3.10000552524963
vertex 399.471473814154 662.486061661566 3.10000552523988
endloop
endfacet
facet normal 1.0 -4.51194637207664e-016 -6.91748183483779e-029
outer loop
vertex 399.471473814154 762.486061661566 3.10000552524963
vertex 399.471473814154 662.486061661567 1.90000552523998
vertex 399.471473814154 762.486061661567 1.90000552524972
endloop
endfacet
facet normal 0.819152044288993 5.56904712203754e-014 -0.573576436351044
outer loop
vertex 400.671473814154 662.486061661566 4.81378313333046
vertex 401.712137936425 762.486061661566 6.30000552524986
vertex 401.712137936425 662.486061661566 6.30000552524012
endloop
endfacet
facet normal 0.819152044288993 5.56904712203754e-014 -0.573576436351044
outer loop
vertex 401.712137936425 762.486061661566 6.30000552524986
vertex 400.671473814154 662.486061661566 4.81378313333046
vertex 400.671473814154 762.486061661566 4.81378313334021
endloop
endfacet
facet normal 0.819152044289021 -5.62454267476586e-014 0.573576436351005
outer loop
vertex 408.271473814154 662.486061661566 3.10000552524012
vertex 405.190560646031 762.486061661566 7.50000552524986
vertex 405.190560646031 662.486061661566 7.50000552524012
endloop
endfacet
facet normal 0.819152044289021 -5.62454267476586e-014 0.573576436351005
outer loop
vertex 405.190560646031 762.486061661566 7.50000552524986
vertex 408.271473814154 662.486061661566 3.10000552524012
vertex 408.271473814154 762.486061661566 3.10000552524986
endloop
endfacet
facet normal 0.819152044289 5.58722625182296e-014 -0.573576436351034
outer loop
vertex 405.190560646031 662.486061661567 -2.49999447475977
vertex 408.271473814154 762.486061661567 1.90000552524996
vertex 408.271473814154 662.486061661567 1.90000552524021
endloop
endfacet
facet normal 0.819152044289 5.58722625182296e-014 -0.573576436351034
outer loop
vertex 408.271473814154 762.486061661567 1.90000552524996
vertex 405.190560646031 662.486061661567 -2.49999447475977
vertex 405.190560646031 762.486061661567 -2.49999447475003
endloop
endfacet
facet normal -1.0 4.51194637209977e-016 -2.37470861688247e-014
outer loop
vertex 402.671473814154 762.486061661566 6.30000552524989
vertex 402.671473814154 662.486061661567 -1.29999447475975
vertex 402.671473814154 662.486061661566 6.30000552524014
endloop
endfacet
facet normal -1.0 4.51194637209977e-016 -2.37470861688247e-014
outer loop
vertex 402.671473814154 662.486061661567 -1.29999447475975
vertex 402.671473814154 762.486061661566 6.30000552524989
vertex 402.671473814154 762.486061661567 -1.29999447475001
endloop
endfacet
facet normal 1.0 -4.51194637218652e-016 1.12798659301925e-013
outer loop
vertex 408.271473814154 662.486061661567 1.90000552524021
vertex 408.271473814154 762.486061661566 3.10000552524986
vertex 408.271473814154 662.486061661566 3.10000552524012
endloop
endfacet
facet normal 1.0 -4.51194637218652e-016 1.12798659301925e-013
outer loop
vertex 408.271473814154 762.486061661566 3.10000552524986
vertex 408.271473814154 662.486061661567 1.90000552524021
vertex 408.271473814154 762.486061661567 1.90000552524996
endloop
endfacet
facet normal -2.66392061856186e-014 -9.74069297443592e-014 1.0
outer loop
vertex 401.712137936425 662.486061661567 -1.29999447475977
vertex 402.671473814154 762.486061661567 -1.29999447475001
vertex 401.712137936424 762.486061661567 -1.29999447475003
endloop
endfacet
facet normal -2.66392061856186e-014 -9.74069297443592e-014 1.0
outer loop
vertex 402.671473814154 762.486061661567 -1.29999447475001
vertex 401.712137936425 662.486061661567 -1.29999447475977
vertex 402.671473814154 662.486061661567 -1.29999447475975
endloop
endfacet
facet normal -1.0 4.51194637211326e-016 -3.75995531006415e-014
outer loop
vertex 407.071473814154 762.486061661566 3.10000552524983
vertex 407.071473814154 662.486061661567 1.90000552524018
vertex 407.071473814154 662.486061661566 3.10000552524009
endloop
endfacet
facet normal -1.0 4.51194637211326e-016 -3.75995531006415e-014
outer loop
vertex 407.071473814154 662.486061661567 1.90000552524018
vertex 407.071473814154 762.486061661566 3.10000552524983
vertex 407.071473814154 762.486061661567 1.90000552524992
endloop
endfacet
facet normal -0.819152044289001 -5.60570841227629e-014 0.573576436351032
outer loop
vertex 401.352386982277 762.486061661566 7.50000552524976
vertex 398.271473814154 662.486061661566 3.10000552523985
vertex 401.352386982277 662.486061661566 7.50000552524002
endloop
endfacet
facet normal -0.819152044289001 -5.60570841227629e-014 0.573576436351032
outer loop
vertex 398.271473814154 662.486061661566 3.10000552523985
vertex 401.352386982277 762.486061661566 7.50000552524976
vertex 398.271473814154 762.486061661566 3.10000552524959
endloop
endfacet
facet normal -0.819152044289007 -5.60634570419446e-014 0.573576436351024
outer loop
vertex 405.871473814154 762.486061661567 0.186227917159522
vertex 404.830809691883 662.486061661567 -1.29999447475969
vertex 405.871473814154 662.486061661567 0.18622791714978
endloop
endfacet
facet normal -0.819152044289007 -5.60634570419446e-014 0.573576436351024
outer loop
vertex 404.830809691883 662.486061661567 -1.29999447475969
vertex 405.871473814154 762.486061661567 0.186227917159522
vertex 404.830809691883 762.486061661567 -1.29999447474995
endloop
endfacet
facet normal -1.0 -4.51194637207664e-016 -6.60193747274939e-029
outer loop
vertex 398.271473814154 762.486061661566 3.10000552524959
vertex 398.271473814154 662.486061661567 1.90000552523995
vertex 398.271473814154 662.486061661566 3.10000552523985
endloop
endfacet
facet normal -1.0 -4.51194637207664e-016 -6.60193747274939e-029
outer loop
vertex 398.271473814154 662.486061661567 1.90000552523995
vertex 398.271473814154 762.486061661566 3.10000552524959
vertex 398.271473814154 762.486061661567 1.90000552524969
endloop
endfacet
facet normal 2.79252368290624e-014 9.74157421396171e-014 -1.0
outer loop
vertex 404.830809691883 762.486061661566 6.30000552524995
vertex 403.871473814154 662.486061661566 6.30000552524018
vertex 403.871473814154 762.486061661566 6.30000552524992
endloop
endfacet
facet normal 2.79252368290624e-014 9.74157421396171e-014 -1.0
outer loop
vertex 403.871473814154 662.486061661566 6.30000552524018
vertex 404.830809691883 762.486061661566 6.30000552524995
vertex 404.830809691883 662.486061661566 6.3000055252402
endloop
endfacet
facet normal -0.81915204428902 5.56899348429413e-014 -0.573576436351006
outer loop
vertex 398.271473814154 762.486061661567 1.90000552524969
vertex 401.352386982276 662.486061661567 -2.49999447475987
vertex 398.271473814154 662.486061661567 1.90000552523995
endloop
endfacet
facet normal -0.81915204428902 5.56899348429413e-014 -0.573576436351006
outer loop
vertex 401.352386982276 662.486061661567 -2.49999447475987
vertex 398.271473814154 762.486061661567 1.90000552524969
vertex 401.352386982276 762.486061661567 -2.49999447475013
endloop
endfacet
facet normal 2.64554875222859e-014 9.74157421396171e-014 -1.0
outer loop
vertex 401.712137936425 762.486061661566 6.30000552524986
vertex 402.671473814154 662.486061661566 6.30000552524014
vertex 401.712137936425 662.486061661566 6.30000552524012
endloop
endfacet
facet normal 2.64554875222859e-014 9.74157421396171e-014 -1.0
outer loop
vertex 402.671473814154 662.486061661566 6.30000552524014
vertex 401.712137936425 762.486061661566 6.30000552524986
vertex 402.671473814154 762.486061661566 6.30000552524989
endloop
endfacet
endsolid T6
