  0
SECTION
  2
HEADER
  9
$ACADVER
  1
AC1009
  9
$INSUNITS
 70
     1
  0
ENDSEC
  0
SECTION
  2
TABLES
  0
TABLE
  2
LAYER
 70
     8
  0
LAYER
  2
0
 62
     7
 70
0
  6
CONTINUOUS
  0
LAYER
  2
1
 62
     1
 70
0
  6
CONTINUOUS
  0
LAYER
  2
2
 62
     2
 70
0
  6
CONTINUOUS
  0
LAYER
  2
3
 62
     3
 70
0
  6
CONTINUOUS
  0
LAYER
  2
4
 62
     4
 70
0
  6
CONTINUOUS
  0
LAYER
  2
5
 62
     5
 70
0
  6
CONTINUOUS
  0
LAYER
  2
6
 62
     6
 70
0
  6
CONTINUOUS
  0
LAYER
  2
7
 62
     7
 70
0
  6
CONTINUOUS
  0
ENDTAB
  0
TABLE
  2
STYLE
 70
     1
  0
STYLE
 70
     0
  2
STANDARD
  3
TXT
 40
0.00
 41
1.00
 42
1.00
 50
0.00
 71
     0
  0
ENDTAB
  0
ENDSEC
  0
SECTION
  2
BLOCKS
  0
BLOCK
  8
0
  2
EPAD
 70
0
 10
0.0
 20
0.0
  0
POLYLINE
  8
0
 66
1
 70
1
 40
0.5
 41
0.5
  0
VERTEX
  8
0
 10
-0.25
 20
0.0
 42
1.0
  0
VERTEX
  8
0
 10
0.25
 20
0.0
 42
1.0
  0
SEQEND
  8
0
  0
ENDBLK
  8
0
  0
BLOCK
  8
0
  2
RPAD
 70
0
 10
0.0
 20
0.0
  0
TRACE
  8
0
 10
-0.5
 20
-0.5
 11
-0.5
 21
0.5
 12
0.5
 22
-0.5
 13
0.5
 23
0.5
  0
ENDBLK
  8
0
  0
ENDSEC
0
SECTION
2
ENTITIES
0
INSERT
8
0
2
EPAD
10
-0.302646
20
0.261220
41
0.100000
42
0.100000
0
INSERT
8
0
2
EPAD
10
-0.202646
20
0.261220
41
0.100000
42
0.100000
0
INSERT
8
0
2
EPAD
10
0.091055
20
0.261220
41
0.100000
42
0.100000
0
INSERT
8
0
2
EPAD
10
0.191055
20
0.261220
41
0.100000
42
0.100000
0
INSERT
8
0
2
EPAD
10
0.484756
20
0.261220
41
0.100000
42
0.100000
0
INSERT
8
0
2
EPAD
10
0.584756
20
0.261220
41
0.100000
42
0.100000
0
INSERT
8
0
2
EPAD
10
0.780031
20
0.261220
41
0.100000
42
0.100000
0
INSERT
8
0
2
EPAD
10
0.880031
20
0.261220
41
0.100000
42
0.100000
0
INSERT
8
0
2
EPAD
10
-0.401071
20
0.162795
41
0.090000
42
0.090000
0
INSERT
8
0
2
EPAD
10
-0.401071
20
0.562795
41
0.090000
42
0.090000
0
POLYLINE
8
0
66
1
70
1
40
0
41
0
0
VERTEX
8
0
10
-0.344220
20
0.508071
0
VERTEX
8
0
10
-0.264220
20
0.508071
0
VERTEX
8
0
10
-0.263181
20
0.508020
0
VERTEX
8
0
10
-0.262176
20
0.507872
0
VERTEX
8
0
10
-0.261209
20
0.507630
0
VERTEX
8
0
10
-0.260285
20
0.507299
0
VERTEX
8
0
10
-0.259409
20
0.506885
0
VERTEX
8
0
10
-0.258585
20
0.506390
0
VERTEX
8
0
10
-0.257817
20
0.505820
0
VERTEX
8
0
10
-0.257111
20
0.505180
0
VERTEX
8
0
10
-0.256471
20
0.504474
0
VERTEX
8
0
10
-0.255902
20
0.503707
0
VERTEX
8
0
10
-0.255407
20
0.502883
0
VERTEX
8
0
10
-0.254992
20
0.502006
0
VERTEX
8
0
10
-0.254661
20
0.501082
0
VERTEX
8
0
10
-0.254419
20
0.500115
0
VERTEX
8
0
10
-0.254271
20
0.499110
0
VERTEX
8
0
10
-0.254220
20
0.498071
0
VERTEX
8
0
10
-0.254220
20
0.418071
0
VERTEX
8
0
10
-0.254271
20
0.417031
0
VERTEX
8
0
10
-0.254419
20
0.416026
0
VERTEX
8
0
10
-0.254661
20
0.415059
0
VERTEX
8
0
10
-0.254992
20
0.414135
0
VERTEX
8
0
10
-0.255407
20
0.413259
0
VERTEX
8
0
10
-0.255902
20
0.412435
0
VERTEX
8
0
10
-0.256471
20
0.411668
0
VERTEX
8
0
10
-0.257111
20
0.410961
0
VERTEX
8
0
10
-0.257817
20
0.410321
0
VERTEX
8
0
10
-0.258585
20
0.409752
0
VERTEX
8
0
10
-0.259409
20
0.409257
0
VERTEX
8
0
10
-0.260285
20
0.408843
0
VERTEX
8
0
10
-0.261209
20
0.408512
0
VERTEX
8
0
10
-0.262176
20
0.408270
0
VERTEX
8
0
10
-0.263181
20
0.408121
0
VERTEX
8
0
10
-0.264220
20
0.408071
0
VERTEX
8
0
10
-0.344220
20
0.408071
0
VERTEX
8
0
10
-0.345260
20
0.408121
0
VERTEX
8
0
10
-0.346265
20
0.408270
0
VERTEX
8
0
10
-0.347232
20
0.408512
0
VERTEX
8
0
10
-0.348156
20
0.408843
0
VERTEX
8
0
10
-0.349032
20
0.409257
0
VERTEX
8
0
10
-0.349856
20
0.409752
0
VERTEX
8
0
10
-0.350624
20
0.410321
0
VERTEX
8
0
10
-0.351330
20
0.410961
0
VERTEX
8
0
10
-0.351970
20
0.411668
0
VERTEX
8
0
10
-0.352539
20
0.412435
0
VERTEX
8
0
10
-0.353034
20
0.413259
0
VERTEX
8
0
10
-0.353449
20
0.414135
0
VERTEX
8
0
10
-0.353780
20
0.415059
0
VERTEX
8
0
10
-0.354022
20
0.416026
0
VERTEX
8
0
10
-0.354170
20
0.417031
0
VERTEX
8
0
10
-0.354220
20
0.418071
0
VERTEX
8
0
10
-0.354220
20
0.498071
0
VERTEX
8
0
10
-0.354170
20
0.499110
0
VERTEX
8
0
10
-0.354022
20
0.500115
0
VERTEX
8
0
10
-0.353780
20
0.501082
0
VERTEX
8
0
10
-0.353449
20
0.502006
0
VERTEX
8
0
10
-0.353034
20
0.502883
0
VERTEX
8
0
10
-0.352539
20
0.503707
0
VERTEX
8
0
10
-0.351970
20
0.504474
0
VERTEX
8
0
10
-0.351330
20
0.505180
0
VERTEX
8
0
10
-0.350624
20
0.505820
0
VERTEX
8
0
10
-0.349856
20
0.506390
0
VERTEX
8
0
10
-0.349032
20
0.506885
0
VERTEX
8
0
10
-0.348156
20
0.507299
0
VERTEX
8
0
10
-0.347232
20
0.507630
0
VERTEX
8
0
10
-0.346265
20
0.507872
0
VERTEX
8
0
10
-0.345260
20
0.508020
0
VERTEX
8
0
10
-0.344220
20
0.508071
0
SEQEND
8
0
0
POLYLINE
8
0
66
1
70
1
40
0
41
0
0
VERTEX
8
0
10
-0.244220
20
0.508071
0
VERTEX
8
0
10
-0.164220
20
0.508071
0
VERTEX
8
0
10
-0.163181
20
0.508020
0
VERTEX
8
0
10
-0.162176
20
0.507872
0
VERTEX
8
0
10
-0.161209
20
0.507630
0
VERTEX
8
0
10
-0.160285
20
0.507299
0
VERTEX
8
0
10
-0.159409
20
0.506885
0
VERTEX
8
0
10
-0.158585
20
0.506390
0
VERTEX
8
0
10
-0.157817
20
0.505820
0
VERTEX
8
0
10
-0.157111
20
0.505180
0
VERTEX
8
0
10
-0.156471
20
0.504474
0
VERTEX
8
0
10
-0.155902
20
0.503707
0
VERTEX
8
0
10
-0.155407
20
0.502883
0
VERTEX
8
0
10
-0.154992
20
0.502006
0
VERTEX
8
0
10
-0.154661
20
0.501082
0
VERTEX
8
0
10
-0.154419
20
0.500115
0
VERTEX
8
0
10
-0.154271
20
0.499110
0
VERTEX
8
0
10
-0.154220
20
0.498071
0
VERTEX
8
0
10
-0.154220
20
0.418071
0
VERTEX
8
0
10
-0.154271
20
0.417031
0
VERTEX
8
0
10
-0.154419
20
0.416026
0
VERTEX
8
0
10
-0.154661
20
0.415059
0
VERTEX
8
0
10
-0.154992
20
0.414135
0
VERTEX
8
0
10
-0.155407
20
0.413259
0
VERTEX
8
0
10
-0.155902
20
0.412435
0
VERTEX
8
0
10
-0.156471
20
0.411668
0
VERTEX
8
0
10
-0.157111
20
0.410961
0
VERTEX
8
0
10
-0.157817
20
0.410321
0
VERTEX
8
0
10
-0.158585
20
0.409752
0
VERTEX
8
0
10
-0.159409
20
0.409257
0
VERTEX
8
0
10
-0.160285
20
0.408843
0
VERTEX
8
0
10
-0.161209
20
0.408512
0
VERTEX
8
0
10
-0.162176
20
0.408270
0
VERTEX
8
0
10
-0.163181
20
0.408121
0
VERTEX
8
0
10
-0.164220
20
0.408071
0
VERTEX
8
0
10
-0.244220
20
0.408071
0
VERTEX
8
0
10
-0.245260
20
0.408121
0
VERTEX
8
0
10
-0.246265
20
0.408270
0
VERTEX
8
0
10
-0.247232
20
0.408512
0
VERTEX
8
0
10
-0.248156
20
0.408843
0
VERTEX
8
0
10
-0.249032
20
0.409257
0
VERTEX
8
0
10
-0.249856
20
0.409752
0
VERTEX
8
0
10
-0.250624
20
0.410321
0
VERTEX
8
0
10
-0.251330
20
0.410961
0
VERTEX
8
0
10
-0.251970
20
0.411668
0
VERTEX
8
0
10
-0.252539
20
0.412435
0
VERTEX
8
0
10
-0.253034
20
0.413259
0
VERTEX
8
0
10
-0.253449
20
0.414135
0
VERTEX
8
0
10
-0.253780
20
0.415059
0
VERTEX
8
0
10
-0.254022
20
0.416026
0
VERTEX
8
0
10
-0.254170
20
0.417031
0
VERTEX
8
0
10
-0.254220
20
0.418071
0
VERTEX
8
0
10
-0.254220
20
0.498071
0
VERTEX
8
0
10
-0.254170
20
0.499110
0
VERTEX
8
0
10
-0.254022
20
0.500115
0
VERTEX
8
0
10
-0.253780
20
0.501082
0
VERTEX
8
0
10
-0.253449
20
0.502006
0
VERTEX
8
0
10
-0.253034
20
0.502883
0
VERTEX
8
0
10
-0.252539
20
0.503707
0
VERTEX
8
0
10
-0.251970
20
0.504474
0
VERTEX
8
0
10
-0.251330
20
0.505180
0
VERTEX
8
0
10
-0.250624
20
0.505820
0
VERTEX
8
0
10
-0.249856
20
0.506390
0
VERTEX
8
0
10
-0.249032
20
0.506885
0
VERTEX
8
0
10
-0.248156
20
0.507299
0
VERTEX
8
0
10
-0.247232
20
0.507630
0
VERTEX
8
0
10
-0.246265
20
0.507872
0
VERTEX
8
0
10
-0.245260
20
0.508020
0
VERTEX
8
0
10
-0.244220
20
0.508071
0
SEQEND
8
0
0
POLYLINE
8
0
66
1
70
1
40
0
41
0
0
VERTEX
8
0
10
-0.144220
20
0.508071
0
VERTEX
8
0
10
-0.064220
20
0.508071
0
VERTEX
8
0
10
-0.063181
20
0.508020
0
VERTEX
8
0
10
-0.062176
20
0.507872
0
VERTEX
8
0
10
-0.061209
20
0.507630
0
VERTEX
8
0
10
-0.060285
20
0.507299
0
VERTEX
8
0
10
-0.059409
20
0.506885
0
VERTEX
8
0
10
-0.058585
20
0.506390
0
VERTEX
8
0
10
-0.057817
20
0.505820
0
VERTEX
8
0
10
-0.057111
20
0.505180
0
VERTEX
8
0
10
-0.056471
20
0.504474
0
VERTEX
8
0
10
-0.055902
20
0.503707
0
VERTEX
8
0
10
-0.055407
20
0.502883
0
VERTEX
8
0
10
-0.054992
20
0.502006
0
VERTEX
8
0
10
-0.054661
20
0.501082
0
VERTEX
8
0
10
-0.054419
20
0.500115
0
VERTEX
8
0
10
-0.054271
20
0.499110
0
VERTEX
8
0
10
-0.054220
20
0.498071
0
VERTEX
8
0
10
-0.054220
20
0.418071
0
VERTEX
8
0
10
-0.054271
20
0.417031
0
VERTEX
8
0
10
-0.054419
20
0.416026
0
VERTEX
8
0
10
-0.054661
20
0.415059
0
VERTEX
8
0
10
-0.054992
20
0.414135
0
VERTEX
8
0
10
-0.055407
20
0.413259
0
VERTEX
8
0
10
-0.055902
20
0.412435
0
VERTEX
8
0
10
-0.056471
20
0.411668
0
VERTEX
8
0
10
-0.057111
20
0.410961
0
VERTEX
8
0
10
-0.057817
20
0.410321
0
VERTEX
8
0
10
-0.058585
20
0.409752
0
VERTEX
8
0
10
-0.059409
20
0.409257
0
VERTEX
8
0
10
-0.060285
20
0.408843
0
VERTEX
8
0
10
-0.061209
20
0.408512
0
VERTEX
8
0
10
-0.062176
20
0.408270
0
VERTEX
8
0
10
-0.063181
20
0.408121
0
VERTEX
8
0
10
-0.064220
20
0.408071
0
VERTEX
8
0
10
-0.144220
20
0.408071
0
VERTEX
8
0
10
-0.145260
20
0.408121
0
VERTEX
8
0
10
-0.146265
20
0.408270
0
VERTEX
8
0
10
-0.147232
20
0.408512
0
VERTEX
8
0
10
-0.148156
20
0.408843
0
VERTEX
8
0
10
-0.149032
20
0.409257
0
VERTEX
8
0
10
-0.149856
20
0.409752
0
VERTEX
8
0
10
-0.150624
20
0.410321
0
VERTEX
8
0
10
-0.151330
20
0.410961
0
VERTEX
8
0
10
-0.151970
20
0.411668
0
VERTEX
8
0
10
-0.152539
20
0.412435
0
VERTEX
8
0
10
-0.153034
20
0.413259
0
VERTEX
8
0
10
-0.153449
20
0.414135
0
VERTEX
8
0
10
-0.153780
20
0.415059
0
VERTEX
8
0
10
-0.154022
20
0.416026
0
VERTEX
8
0
10
-0.154170
20
0.417031
0
VERTEX
8
0
10
-0.154220
20
0.418071
0
VERTEX
8
0
10
-0.154220
20
0.498071
0
VERTEX
8
0
10
-0.154170
20
0.499110
0
VERTEX
8
0
10
-0.154022
20
0.500115
0
VERTEX
8
0
10
-0.153780
20
0.501082
0
VERTEX
8
0
10
-0.153449
20
0.502006
0
VERTEX
8
0
10
-0.153034
20
0.502883
0
VERTEX
8
0
10
-0.152539
20
0.503707
0
VERTEX
8
0
10
-0.151970
20
0.504474
0
VERTEX
8
0
10
-0.151330
20
0.505180
0
VERTEX
8
0
10
-0.150624
20
0.505820
0
VERTEX
8
0
10
-0.149856
20
0.506390
0
VERTEX
8
0
10
-0.149032
20
0.506885
0
VERTEX
8
0
10
-0.148156
20
0.507299
0
VERTEX
8
0
10
-0.147232
20
0.507630
0
VERTEX
8
0
10
-0.146265
20
0.507872
0
VERTEX
8
0
10
-0.145260
20
0.508020
0
VERTEX
8
0
10
-0.144220
20
0.508071
0
SEQEND
8
0
0
POLYLINE
8
0
66
1
70
1
40
0
41
0
0
VERTEX
8
0
10
0.049480
20
0.508071
0
VERTEX
8
0
10
0.129480
20
0.508071
0
VERTEX
8
0
10
0.130520
20
0.508020
0
VERTEX
8
0
10
0.131525
20
0.507872
0
VERTEX
8
0
10
0.132492
20
0.507630
0
VERTEX
8
0
10
0.133416
20
0.507299
0
VERTEX
8
0
10
0.134292
20
0.506885
0
VERTEX
8
0
10
0.135116
20
0.506390
0
VERTEX
8
0
10
0.135884
20
0.505820
0
VERTEX
8
0
10
0.136590
20
0.505180
0
VERTEX
8
0
10
0.137230
20
0.504474
0
VERTEX
8
0
10
0.137799
20
0.503707
0
VERTEX
8
0
10
0.138294
20
0.502883
0
VERTEX
8
0
10
0.138709
20
0.502006
0
VERTEX
8
0
10
0.139039
20
0.501082
0
VERTEX
8
0
10
0.139281
20
0.500115
0
VERTEX
8
0
10
0.139430
20
0.499110
0
VERTEX
8
0
10
0.139480
20
0.498071
0
VERTEX
8
0
10
0.139480
20
0.418071
0
VERTEX
8
0
10
0.139430
20
0.417031
0
VERTEX
8
0
10
0.139281
20
0.416026
0
VERTEX
8
0
10
0.139039
20
0.415059
0
VERTEX
8
0
10
0.138709
20
0.414135
0
VERTEX
8
0
10
0.138294
20
0.413259
0
VERTEX
8
0
10
0.137799
20
0.412435
0
VERTEX
8
0
10
0.137230
20
0.411668
0
VERTEX
8
0
10
0.136590
20
0.410961
0
VERTEX
8
0
10
0.135884
20
0.410321
0
VERTEX
8
0
10
0.135116
20
0.409752
0
VERTEX
8
0
10
0.134292
20
0.409257
0
VERTEX
8
0
10
0.133416
20
0.408843
0
VERTEX
8
0
10
0.132492
20
0.408512
0
VERTEX
8
0
10
0.131525
20
0.408270
0
VERTEX
8
0
10
0.130520
20
0.408121
0
VERTEX
8
0
10
0.129480
20
0.408071
0
VERTEX
8
0
10
0.049480
20
0.408071
0
VERTEX
8
0
10
0.048441
20
0.408121
0
VERTEX
8
0
10
0.047436
20
0.408270
0
VERTEX
8
0
10
0.046469
20
0.408512
0
VERTEX
8
0
10
0.045545
20
0.408843
0
VERTEX
8
0
10
0.044669
20
0.409257
0
VERTEX
8
0
10
0.043844
20
0.409752
0
VERTEX
8
0
10
0.043077
20
0.410321
0
VERTEX
8
0
10
0.042371
20
0.410961
0
VERTEX
8
0
10
0.041731
20
0.411668
0
VERTEX
8
0
10
0.041161
20
0.412435
0
VERTEX
8
0
10
0.040667
20
0.413259
0
VERTEX
8
0
10
0.040252
20
0.414135
0
VERTEX
8
0
10
0.039921
20
0.415059
0
VERTEX
8
0
10
0.039679
20
0.416026
0
VERTEX
8
0
10
0.039531
20
0.417031
0
VERTEX
8
0
10
0.039480
20
0.418071
0
VERTEX
8
0
10
0.039480
20
0.498071
0
VERTEX
8
0
10
0.039531
20
0.499110
0
VERTEX
8
0
10
0.039679
20
0.500115
0
VERTEX
8
0
10
0.039921
20
0.501082
0
VERTEX
8
0
10
0.040252
20
0.502006
0
VERTEX
8
0
10
0.040667
20
0.502883
0
VERTEX
8
0
10
0.041161
20
0.503707
0
VERTEX
8
0
10
0.041731
20
0.504474
0
VERTEX
8
0
10
0.042371
20
0.505180
0
VERTEX
8
0
10
0.043077
20
0.505820
0
VERTEX
8
0
10
0.043844
20
0.506390
0
VERTEX
8
0
10
0.044669
20
0.506885
0
VERTEX
8
0
10
0.045545
20
0.507299
0
VERTEX
8
0
10
0.046469
20
0.507630
0
VERTEX
8
0
10
0.047436
20
0.507872
0
VERTEX
8
0
10
0.048441
20
0.508020
0
VERTEX
8
0
10
0.049480
20
0.508071
0
SEQEND
8
0
0
POLYLINE
8
0
66
1
70
1
40
0
41
0
0
VERTEX
8
0
10
0.149480
20
0.508071
0
VERTEX
8
0
10
0.229480
20
0.508071
0
VERTEX
8
0
10
0.230520
20
0.508020
0
VERTEX
8
0
10
0.231525
20
0.507872
0
VERTEX
8
0
10
0.232492
20
0.507630
0
VERTEX
8
0
10
0.233416
20
0.507299
0
VERTEX
8
0
10
0.234292
20
0.506885
0
VERTEX
8
0
10
0.235116
20
0.506390
0
VERTEX
8
0
10
0.235884
20
0.505820
0
VERTEX
8
0
10
0.236590
20
0.505180
0
VERTEX
8
0
10
0.237230
20
0.504474
0
VERTEX
8
0
10
0.237799
20
0.503707
0
VERTEX
8
0
10
0.238294
20
0.502883
0
VERTEX
8
0
10
0.238709
20
0.502006
0
VERTEX
8
0
10
0.239039
20
0.501082
0
VERTEX
8
0
10
0.239281
20
0.500115
0
VERTEX
8
0
10
0.239430
20
0.499110
0
VERTEX
8
0
10
0.239480
20
0.498071
0
VERTEX
8
0
10
0.239480
20
0.418071
0
VERTEX
8
0
10
0.239430
20
0.417031
0
VERTEX
8
0
10
0.239281
20
0.416026
0
VERTEX
8
0
10
0.239039
20
0.415059
0
VERTEX
8
0
10
0.238709
20
0.414135
0
VERTEX
8
0
10
0.238294
20
0.413259
0
VERTEX
8
0
10
0.237799
20
0.412435
0
VERTEX
8
0
10
0.237230
20
0.411668
0
VERTEX
8
0
10
0.236590
20
0.410961
0
VERTEX
8
0
10
0.235884
20
0.410321
0
VERTEX
8
0
10
0.235116
20
0.409752
0
VERTEX
8
0
10
0.234292
20
0.409257
0
VERTEX
8
0
10
0.233416
20
0.408843
0
VERTEX
8
0
10
0.232492
20
0.408512
0
VERTEX
8
0
10
0.231525
20
0.408270
0
VERTEX
8
0
10
0.230520
20
0.408121
0
VERTEX
8
0
10
0.229480
20
0.408071
0
VERTEX
8
0
10
0.149480
20
0.408071
0
VERTEX
8
0
10
0.148441
20
0.408121
0
VERTEX
8
0
10
0.147436
20
0.408270
0
VERTEX
8
0
10
0.146469
20
0.408512
0
VERTEX
8
0
10
0.145545
20
0.408843
0
VERTEX
8
0
10
0.144669
20
0.409257
0
VERTEX
8
0
10
0.143844
20
0.409752
0
VERTEX
8
0
10
0.143077
20
0.410321
0
VERTEX
8
0
10
0.142371
20
0.410961
0
VERTEX
8
0
10
0.141731
20
0.411668
0
VERTEX
8
0
10
0.141161
20
0.412435
0
VERTEX
8
0
10
0.140667
20
0.413259
0
VERTEX
8
0
10
0.140252
20
0.414135
0
VERTEX
8
0
10
0.139921
20
0.415059
0
VERTEX
8
0
10
0.139679
20
0.416026
0
VERTEX
8
0
10
0.139531
20
0.417031
0
VERTEX
8
0
10
0.139480
20
0.418071
0
VERTEX
8
0
10
0.139480
20
0.498071
0
VERTEX
8
0
10
0.139531
20
0.499110
0
VERTEX
8
0
10
0.139679
20
0.500115
0
VERTEX
8
0
10
0.139921
20
0.501082
0
VERTEX
8
0
10
0.140252
20
0.502006
0
VERTEX
8
0
10
0.140667
20
0.502883
0
VERTEX
8
0
10
0.141161
20
0.503707
0
VERTEX
8
0
10
0.141731
20
0.504474
0
VERTEX
8
0
10
0.142371
20
0.505180
0
VERTEX
8
0
10
0.143077
20
0.505820
0
VERTEX
8
0
10
0.143844
20
0.506390
0
VERTEX
8
0
10
0.144669
20
0.506885
0
VERTEX
8
0
10
0.145545
20
0.507299
0
VERTEX
8
0
10
0.146469
20
0.507630
0
VERTEX
8
0
10
0.147436
20
0.507872
0
VERTEX
8
0
10
0.148441
20
0.508020
0
VERTEX
8
0
10
0.149480
20
0.508071
0
SEQEND
8
0
0
POLYLINE
8
0
66
1
70
1
40
0
41
0
0
VERTEX
8
0
10
0.249480
20
0.508071
0
VERTEX
8
0
10
0.329480
20
0.508071
0
VERTEX
8
0
10
0.330520
20
0.508020
0
VERTEX
8
0
10
0.331525
20
0.507872
0
VERTEX
8
0
10
0.332492
20
0.507630
0
VERTEX
8
0
10
0.333416
20
0.507299
0
VERTEX
8
0
10
0.334292
20
0.506885
0
VERTEX
8
0
10
0.335116
20
0.506390
0
VERTEX
8
0
10
0.335884
20
0.505820
0
VERTEX
8
0
10
0.336590
20
0.505180
0
VERTEX
8
0
10
0.337230
20
0.504474
0
VERTEX
8
0
10
0.337799
20
0.503707
0
VERTEX
8
0
10
0.338294
20
0.502883
0
VERTEX
8
0
10
0.338709
20
0.502006
0
VERTEX
8
0
10
0.339039
20
0.501082
0
VERTEX
8
0
10
0.339281
20
0.500115
0
VERTEX
8
0
10
0.339430
20
0.499110
0
VERTEX
8
0
10
0.339480
20
0.498071
0
VERTEX
8
0
10
0.339480
20
0.418071
0
VERTEX
8
0
10
0.339430
20
0.417031
0
VERTEX
8
0
10
0.339281
20
0.416026
0
VERTEX
8
0
10
0.339039
20
0.415059
0
VERTEX
8
0
10
0.338709
20
0.414135
0
VERTEX
8
0
10
0.338294
20
0.413259
0
VERTEX
8
0
10
0.337799
20
0.412435
0
VERTEX
8
0
10
0.337230
20
0.411668
0
VERTEX
8
0
10
0.336590
20
0.410961
0
VERTEX
8
0
10
0.335884
20
0.410321
0
VERTEX
8
0
10
0.335116
20
0.409752
0
VERTEX
8
0
10
0.334292
20
0.409257
0
VERTEX
8
0
10
0.333416
20
0.408843
0
VERTEX
8
0
10
0.332492
20
0.408512
0
VERTEX
8
0
10
0.331525
20
0.408270
0
VERTEX
8
0
10
0.330520
20
0.408121
0
VERTEX
8
0
10
0.329480
20
0.408071
0
VERTEX
8
0
10
0.249480
20
0.408071
0
VERTEX
8
0
10
0.248441
20
0.408121
0
VERTEX
8
0
10
0.247436
20
0.408270
0
VERTEX
8
0
10
0.246469
20
0.408512
0
VERTEX
8
0
10
0.245545
20
0.408843
0
VERTEX
8
0
10
0.244669
20
0.409257
0
VERTEX
8
0
10
0.243844
20
0.409752
0
VERTEX
8
0
10
0.243077
20
0.410321
0
VERTEX
8
0
10
0.242371
20
0.410961
0
VERTEX
8
0
10
0.241731
20
0.411668
0
VERTEX
8
0
10
0.241161
20
0.412435
0
VERTEX
8
0
10
0.240667
20
0.413259
0
VERTEX
8
0
10
0.240252
20
0.414135
0
VERTEX
8
0
10
0.239921
20
0.415059
0
VERTEX
8
0
10
0.239679
20
0.416026
0
VERTEX
8
0
10
0.239531
20
0.417031
0
VERTEX
8
0
10
0.239480
20
0.418071
0
VERTEX
8
0
10
0.239480
20
0.498071
0
VERTEX
8
0
10
0.239531
20
0.499110
0
VERTEX
8
0
10
0.239679
20
0.500115
0
VERTEX
8
0
10
0.239921
20
0.501082
0
VERTEX
8
0
10
0.240252
20
0.502006
0
VERTEX
8
0
10
0.240667
20
0.502883
0
VERTEX
8
0
10
0.241161
20
0.503707
0
VERTEX
8
0
10
0.241731
20
0.504474
0
VERTEX
8
0
10
0.242371
20
0.505180
0
VERTEX
8
0
10
0.243077
20
0.505820
0
VERTEX
8
0
10
0.243844
20
0.506390
0
VERTEX
8
0
10
0.244669
20
0.506885
0
VERTEX
8
0
10
0.245545
20
0.507299
0
VERTEX
8
0
10
0.246469
20
0.507630
0
VERTEX
8
0
10
0.247436
20
0.507872
0
VERTEX
8
0
10
0.248441
20
0.508020
0
VERTEX
8
0
10
0.249480
20
0.508071
0
SEQEND
8
0
0
POLYLINE
8
0
66
1
70
1
40
0
41
0
0
VERTEX
8
0
10
0.443181
20
0.508071
0
VERTEX
8
0
10
0.523181
20
0.508071
0
VERTEX
8
0
10
0.524220
20
0.508020
0
VERTEX
8
0
10
0.525226
20
0.507872
0
VERTEX
8
0
10
0.526193
20
0.507630
0
VERTEX
8
0
10
0.527117
20
0.507299
0
VERTEX
8
0
10
0.527993
20
0.506885
0
VERTEX
8
0
10
0.528817
20
0.506390
0
VERTEX
8
0
10
0.529585
20
0.505820
0
VERTEX
8
0
10
0.530291
20
0.505180
0
VERTEX
8
0
10
0.530931
20
0.504474
0
VERTEX
8
0
10
0.531500
20
0.503707
0
VERTEX
8
0
10
0.531994
20
0.502883
0
VERTEX
8
0
10
0.532409
20
0.502006
0
VERTEX
8
0
10
0.532740
20
0.501082
0
VERTEX
8
0
10
0.532982
20
0.500115
0
VERTEX
8
0
10
0.533131
20
0.499110
0
VERTEX
8
0
10
0.533181
20
0.498071
0
VERTEX
8
0
10
0.533181
20
0.418071
0
VERTEX
8
0
10
0.533131
20
0.417031
0
VERTEX
8
0
10
0.532982
20
0.416026
0
VERTEX
8
0
10
0.532740
20
0.415059
0
VERTEX
8
0
10
0.532409
20
0.414135
0
VERTEX
8
0
10
0.531994
20
0.413259
0
VERTEX
8
0
10
0.531500
20
0.412435
0
VERTEX
8
0
10
0.530931
20
0.411668
0
VERTEX
8
0
10
0.530291
20
0.410961
0
VERTEX
8
0
10
0.529585
20
0.410321
0
VERTEX
8
0
10
0.528817
20
0.409752
0
VERTEX
8
0
10
0.527993
20
0.409257
0
VERTEX
8
0
10
0.527117
20
0.408843
0
VERTEX
8
0
10
0.526193
20
0.408512
0
VERTEX
8
0
10
0.525226
20
0.408270
0
VERTEX
8
0
10
0.524220
20
0.408121
0
VERTEX
8
0
10
0.523181
20
0.408071
0
VERTEX
8
0
10
0.443181
20
0.408071
0
VERTEX
8
0
10
0.442142
20
0.408121
0
VERTEX
8
0
10
0.441137
20
0.408270
0
VERTEX
8
0
10
0.440170
20
0.408512
0
VERTEX
8
0
10
0.439246
20
0.408843
0
VERTEX
8
0
10
0.438369
20
0.409257
0
VERTEX
8
0
10
0.437545
20
0.409752
0
VERTEX
8
0
10
0.436778
20
0.410321
0
VERTEX
8
0
10
0.436072
20
0.410961
0
VERTEX
8
0
10
0.435431
20
0.411668
0
VERTEX
8
0
10
0.434862
20
0.412435
0
VERTEX
8
0
10
0.434368
20
0.413259
0
VERTEX
8
0
10
0.433953
20
0.414135
0
VERTEX
8
0
10
0.433622
20
0.415059
0
VERTEX
8
0
10
0.433380
20
0.416026
0
VERTEX
8
0
10
0.433231
20
0.417031
0
VERTEX
8
0
10
0.433181
20
0.418071
0
VERTEX
8
0
10
0.433181
20
0.498071
0
VERTEX
8
0
10
0.433231
20
0.499110
0
VERTEX
8
0
10
0.433380
20
0.500115
0
VERTEX
8
0
10
0.433622
20
0.501082
0
VERTEX
8
0
10
0.433953
20
0.502006
0
VERTEX
8
0
10
0.434368
20
0.502883
0
VERTEX
8
0
10
0.434862
20
0.503707
0
VERTEX
8
0
10
0.435431
20
0.504474
0
VERTEX
8
0
10
0.436072
20
0.505180
0
VERTEX
8
0
10
0.436778
20
0.505820
0
VERTEX
8
0
10
0.437545
20
0.506390
0
VERTEX
8
0
10
0.438369
20
0.506885
0
VERTEX
8
0
10
0.439246
20
0.507299
0
VERTEX
8
0
10
0.440170
20
0.507630
0
VERTEX
8
0
10
0.441137
20
0.507872
0
VERTEX
8
0
10
0.442142
20
0.508020
0
VERTEX
8
0
10
0.443181
20
0.508071
0
SEQEND
8
0
0
POLYLINE
8
0
66
1
70
1
40
0
41
0
0
VERTEX
8
0
10
0.543181
20
0.508071
0
VERTEX
8
0
10
0.623181
20
0.508071
0
VERTEX
8
0
10
0.624220
20
0.508020
0
VERTEX
8
0
10
0.625226
20
0.507872
0
VERTEX
8
0
10
0.626193
20
0.507630
0
VERTEX
8
0
10
0.627117
20
0.507299
0
VERTEX
8
0
10
0.627993
20
0.506885
0
VERTEX
8
0
10
0.628817
20
0.506390
0
VERTEX
8
0
10
0.629585
20
0.505820
0
VERTEX
8
0
10
0.630291
20
0.505180
0
VERTEX
8
0
10
0.630931
20
0.504474
0
VERTEX
8
0
10
0.631500
20
0.503707
0
VERTEX
8
0
10
0.631994
20
0.502883
0
VERTEX
8
0
10
0.632409
20
0.502006
0
VERTEX
8
0
10
0.632740
20
0.501082
0
VERTEX
8
0
10
0.632982
20
0.500115
0
VERTEX
8
0
10
0.633131
20
0.499110
0
VERTEX
8
0
10
0.633181
20
0.498071
0
VERTEX
8
0
10
0.633181
20
0.418071
0
VERTEX
8
0
10
0.633131
20
0.417031
0
VERTEX
8
0
10
0.632982
20
0.416026
0
VERTEX
8
0
10
0.632740
20
0.415059
0
VERTEX
8
0
10
0.632409
20
0.414135
0
VERTEX
8
0
10
0.631994
20
0.413259
0
VERTEX
8
0
10
0.631500
20
0.412435
0
VERTEX
8
0
10
0.630931
20
0.411668
0
VERTEX
8
0
10
0.630291
20
0.410961
0
VERTEX
8
0
10
0.629585
20
0.410321
0
VERTEX
8
0
10
0.628817
20
0.409752
0
VERTEX
8
0
10
0.627993
20
0.409257
0
VERTEX
8
0
10
0.627117
20
0.408843
0
VERTEX
8
0
10
0.626193
20
0.408512
0
VERTEX
8
0
10
0.625226
20
0.408270
0
VERTEX
8
0
10
0.624220
20
0.408121
0
VERTEX
8
0
10
0.623181
20
0.408071
0
VERTEX
8
0
10
0.543181
20
0.408071
0
VERTEX
8
0
10
0.542142
20
0.408121
0
VERTEX
8
0
10
0.541137
20
0.408270
0
VERTEX
8
0
10
0.540170
20
0.408512
0
VERTEX
8
0
10
0.539246
20
0.408843
0
VERTEX
8
0
10
0.538369
20
0.409257
0
VERTEX
8
0
10
0.537545
20
0.409752
0
VERTEX
8
0
10
0.536778
20
0.410321
0
VERTEX
8
0
10
0.536072
20
0.410961
0
VERTEX
8
0
10
0.535431
20
0.411668
0
VERTEX
8
0
10
0.534862
20
0.412435
0
VERTEX
8
0
10
0.534368
20
0.413259
0
VERTEX
8
0
10
0.533953
20
0.414135
0
VERTEX
8
0
10
0.533622
20
0.415059
0
VERTEX
8
0
10
0.533380
20
0.416026
0
VERTEX
8
0
10
0.533231
20
0.417031
0
VERTEX
8
0
10
0.533181
20
0.418071
0
VERTEX
8
0
10
0.533181
20
0.498071
0
VERTEX
8
0
10
0.533231
20
0.499110
0
VERTEX
8
0
10
0.533380
20
0.500115
0
VERTEX
8
0
10
0.533622
20
0.501082
0
VERTEX
8
0
10
0.533953
20
0.502006
0
VERTEX
8
0
10
0.534368
20
0.502883
0
VERTEX
8
0
10
0.534862
20
0.503707
0
VERTEX
8
0
10
0.535431
20
0.504474
0
VERTEX
8
0
10
0.536072
20
0.505180
0
VERTEX
8
0
10
0.536778
20
0.505820
0
VERTEX
8
0
10
0.537545
20
0.506390
0
VERTEX
8
0
10
0.538369
20
0.506885
0
VERTEX
8
0
10
0.539246
20
0.507299
0
VERTEX
8
0
10
0.540170
20
0.507630
0
VERTEX
8
0
10
0.541137
20
0.507872
0
VERTEX
8
0
10
0.542142
20
0.508020
0
VERTEX
8
0
10
0.543181
20
0.508071
0
SEQEND
8
0
0
POLYLINE
8
0
66
1
70
1
40
0
41
0
0
VERTEX
8
0
10
0.643181
20
0.508071
0
VERTEX
8
0
10
0.723181
20
0.508071
0
VERTEX
8
0
10
0.724220
20
0.508020
0
VERTEX
8
0
10
0.725226
20
0.507872
0
VERTEX
8
0
10
0.726193
20
0.507630
0
VERTEX
8
0
10
0.727117
20
0.507299
0
VERTEX
8
0
10
0.727993
20
0.506885
0
VERTEX
8
0
10
0.728817
20
0.506390
0
VERTEX
8
0
10
0.729585
20
0.505820
0
VERTEX
8
0
10
0.730291
20
0.505180
0
VERTEX
8
0
10
0.730931
20
0.504474
0
VERTEX
8
0
10
0.731500
20
0.503707
0
VERTEX
8
0
10
0.731994
20
0.502883
0
VERTEX
8
0
10
0.732409
20
0.502006
0
VERTEX
8
0
10
0.732740
20
0.501082
0
VERTEX
8
0
10
0.732982
20
0.500115
0
VERTEX
8
0
10
0.733131
20
0.499110
0
VERTEX
8
0
10
0.733181
20
0.498071
0
VERTEX
8
0
10
0.733181
20
0.418071
0
VERTEX
8
0
10
0.733131
20
0.417031
0
VERTEX
8
0
10
0.732982
20
0.416026
0
VERTEX
8
0
10
0.732740
20
0.415059
0
VERTEX
8
0
10
0.732409
20
0.414135
0
VERTEX
8
0
10
0.731994
20
0.413259
0
VERTEX
8
0
10
0.731500
20
0.412435
0
VERTEX
8
0
10
0.730931
20
0.411668
0
VERTEX
8
0
10
0.730291
20
0.410961
0
VERTEX
8
0
10
0.729585
20
0.410321
0
VERTEX
8
0
10
0.728817
20
0.409752
0
VERTEX
8
0
10
0.727993
20
0.409257
0
VERTEX
8
0
10
0.727117
20
0.408843
0
VERTEX
8
0
10
0.726193
20
0.408512
0
VERTEX
8
0
10
0.725226
20
0.408270
0
VERTEX
8
0
10
0.724220
20
0.408121
0
VERTEX
8
0
10
0.723181
20
0.408071
0
VERTEX
8
0
10
0.643181
20
0.408071
0
VERTEX
8
0
10
0.642142
20
0.408121
0
VERTEX
8
0
10
0.641137
20
0.408270
0
VERTEX
8
0
10
0.640170
20
0.408512
0
VERTEX
8
0
10
0.639246
20
0.408843
0
VERTEX
8
0
10
0.638369
20
0.409257
0
VERTEX
8
0
10
0.637545
20
0.409752
0
VERTEX
8
0
10
0.636778
20
0.410321
0
VERTEX
8
0
10
0.636072
20
0.410961
0
VERTEX
8
0
10
0.635431
20
0.411668
0
VERTEX
8
0
10
0.634862
20
0.412435
0
VERTEX
8
0
10
0.634368
20
0.413259
0
VERTEX
8
0
10
0.633953
20
0.414135
0
VERTEX
8
0
10
0.633622
20
0.415059
0
VERTEX
8
0
10
0.633380
20
0.416026
0
VERTEX
8
0
10
0.633231
20
0.417031
0
VERTEX
8
0
10
0.633181
20
0.418071
0
VERTEX
8
0
10
0.633181
20
0.498071
0
VERTEX
8
0
10
0.633231
20
0.499110
0
VERTEX
8
0
10
0.633380
20
0.500115
0
VERTEX
8
0
10
0.633622
20
0.501082
0
VERTEX
8
0
10
0.633953
20
0.502006
0
VERTEX
8
0
10
0.634368
20
0.502883
0
VERTEX
8
0
10
0.634862
20
0.503707
0
VERTEX
8
0
10
0.635431
20
0.504474
0
VERTEX
8
0
10
0.636072
20
0.505180
0
VERTEX
8
0
10
0.636778
20
0.505820
0
VERTEX
8
0
10
0.637545
20
0.506390
0
VERTEX
8
0
10
0.638369
20
0.506885
0
VERTEX
8
0
10
0.639246
20
0.507299
0
VERTEX
8
0
10
0.640170
20
0.507630
0
VERTEX
8
0
10
0.641137
20
0.507872
0
VERTEX
8
0
10
0.642142
20
0.508020
0
VERTEX
8
0
10
0.643181
20
0.508071
0
SEQEND
8
0
0
INSERT
8
0
2
EPAD
10
-0.401071
20
-0.230906
41
0.150000
42
0.150000
0
INSERT
8
0
2
EPAD
10
-0.401071
20
-0.030906
41
0.150000
42
0.150000
0
INSERT
8
0
2
EPAD
10
0.589480
20
-0.132480
41
0.150000
42
0.150000
0
INSERT
8
0
2
EPAD
10
0.389480
20
-0.132480
41
0.150000
42
0.150000
0
INSERT
8
0
2
EPAD
10
0.189480
20
-0.132480
41
0.150000
42
0.150000
0
INSERT
8
0
2
EPAD
10
-0.010520
20
-0.132480
41
0.150000
42
0.150000
0
POLYLINE
8
0
66
1
40
0.008000
41
0.008000
0
VERTEX
8
0
10
-0.637291
20
-0.368701
0
VERTEX
8
0
10
0.976882
20
-0.368701
0
VERTEX
8
0
10
0.976882
20
0.635236
0
VERTEX
8
0
10
-0.637291
20
0.635236
0
VERTEX
8
0
10
-0.637291
20
-0.368701
0
SEQEND
8
0
0
POLYLINE
8
0
66
1
40
0.025000
41
0.025000
0
VERTEX
8
0
10
-0.304220
20
0.458071
0
VERTEX
8
0
10
-0.401071
20
0.458071
0
VERTEX
8
0
10
-0.401071
20
0.562795
0
SEQEND
8
0
0
POLYLINE
8
0
66
1
40
0.025000
41
0.025000
0
VERTEX
8
0
10
-0.304220
20
0.458071
0
VERTEX
8
0
10
-0.304220
20
0.262795
0
VERTEX
8
0
10
-0.302646
20
0.261220
0
SEQEND
8
0
0
POLYLINE
8
0
66
1
40
0.025000
41
0.025000
0
VERTEX
8
0
10
0.484756
20
0.261220
0
VERTEX
8
0
10
0.389480
20
0.165945
0
VERTEX
8
0
10
0.389480
20
-0.132480
0
SEQEND
8
0
0
POLYLINE
8
0
66
1
40
0.025000
41
0.025000
0
VERTEX
8
0
10
0.483181
20
0.458071
0
VERTEX
8
0
10
0.376488
20
0.458071
0
VERTEX
8
0
10
0.376488
20
0.458070
0
VERTEX
8
0
10
0.289480
20
0.458070
0
VERTEX
8
0
10
0.289480
20
0.458071
0
SEQEND
8
0
0
POLYLINE
8
0
66
1
40
0.025000
41
0.025000
0
VERTEX
8
0
10
0.484756
20
0.261220
0
VERTEX
8
0
10
0.484756
20
0.344488
0
VERTEX
8
0
10
0.483181
20
0.346063
0
VERTEX
8
0
10
0.483181
20
0.458071
0
SEQEND
8
0
0
POLYLINE
8
0
66
1
40
0.025000
41
0.025000
0
VERTEX
8
0
10
0.091055
20
0.261220
0
VERTEX
8
0
10
0.089480
20
0.262795
0
VERTEX
8
0
10
0.089480
20
0.458071
0
VERTEX
8
0
10
0.089480
20
0.458070
0
VERTEX
8
0
10
-0.023512
20
0.458070
0
VERTEX
8
0
10
-0.023512
20
0.458071
0
VERTEX
8
0
10
-0.104220
20
0.458071
0
SEQEND
8
0
0
POLYLINE
8
0
66
1
40
0.020000
41
0.020000
0
VERTEX
8
0
10
0.091055
20
0.261220
0
VERTEX
8
0
10
0.091055
20
-0.034055
0
VERTEX
8
0
10
0.189480
20
-0.132480
0
SEQEND
8
0
0
POLYLINE
8
0
66
1
40
0.025000
41
0.025000
0
VERTEX
8
0
10
0.780031
20
0.261220
0
VERTEX
8
0
10
0.780031
20
0.058071
0
VERTEX
8
0
10
0.589480
20
-0.132480
0
SEQEND
8
0
0
POLYLINE
8
0
66
1
40
0.025000
41
0.025000
0
VERTEX
8
0
10
0.780031
20
0.261220
0
VERTEX
8
0
10
0.780031
20
0.361220
0
VERTEX
8
0
10
0.683181
20
0.458071
0
SEQEND
8
0
0
POLYLINE
8
0
66
1
40
0.025000
41
0.025000
0
VERTEX
8
0
10
0.576488
20
0.544488
0
VERTEX
8
0
10
0.826488
20
0.544488
0
VERTEX
8
0
10
0.880031
20
0.490945
0
VERTEX
8
0
10
0.880031
20
0.261220
0
SEQEND
8
0
0
POLYLINE
8
0
66
1
40
0.025000
41
0.025000
0
VERTEX
8
0
10
0.189480
20
0.544488
0
VERTEX
8
0
10
0.576488
20
0.544488
0
SEQEND
8
0
0
POLYLINE
8
0
66
1
40
0.025000
41
0.025000
0
VERTEX
8
0
10
0.576488
20
0.519488
0
VERTEX
8
0
10
0.576488
20
0.544488
0
SEQEND
8
0
0
POLYLINE
8
0
66
1
40
0.025000
41
0.025000
0
VERTEX
8
0
10
-0.010520
20
-0.132480
0
VERTEX
8
0
10
-0.108945
20
-0.230906
0
VERTEX
8
0
10
-0.401071
20
-0.230906
0
SEQEND
8
0
0
POLYLINE
8
0
66
1
40
0.025000
41
0.025000
0
VERTEX
8
0
10
0.583181
20
0.458071
0
VERTEX
8
0
10
0.576488
20
0.464764
0
VERTEX
8
0
10
0.576488
20
0.519488
0
SEQEND
8
0
0
POLYLINE
8
0
66
1
40
0.020000
41
0.020000
0
VERTEX
8
0
10
-0.202646
20
0.261220
0
VERTEX
8
0
10
-0.202646
20
0.059646
0
VERTEX
8
0
10
-0.010520
20
-0.132480
0
SEQEND
8
0
0
POLYLINE
8
0
66
1
40
0.020000
41
0.020000
0
VERTEX
8
0
10
0.189480
20
0.458071
0
VERTEX
8
0
10
0.189480
20
0.544488
0
SEQEND
8
0
0
POLYLINE
8
0
66
1
40
0.020000
41
0.020000
0
VERTEX
8
0
10
-0.204220
20
0.458071
0
VERTEX
8
0
10
-0.204220
20
0.478989
0
VERTEX
8
0
10
-0.204220
20
0.544488
0
VERTEX
8
0
10
0.189480
20
0.544488
0
SEQEND
8
0
0
POLYLINE
8
0
66
1
40
0.020000
41
0.020000
0
VERTEX
8
0
10
-0.202646
20
0.261220
0
VERTEX
8
0
10
-0.202646
20
0.456496
0
SEQEND
8
0
0
POLYLINE
8
0
66
1
40
0.020000
41
0.020000
0
VERTEX
8
0
10
-0.204220
20
0.458071
0
VERTEX
8
0
10
-0.202646
20
0.456496
0
SEQEND
8
0
0
POLYLINE
8
0
66
1
40
0.025000
41
0.025000
0
VERTEX
8
0
10
0.191055
20
0.261220
0
VERTEX
8
0
10
0.189480
20
0.262795
0
VERTEX
8
0
10
0.189480
20
0.458071
0
SEQEND
8
0
0
POLYLINE
8
0
66
1
40
0.020000
41
0.020000
0
VERTEX
8
0
10
0.584756
20
0.261220
0
VERTEX
8
0
10
0.584756
20
0.458071
0
VERTEX
8
0
10
0.583181
20
0.458071
0
SEQEND
8
0
0
POLYLINE
8
0
66
1
40
0.025000
41
0.025000
0
VERTEX
8
0
10
-0.401071
20
0.162795
0
VERTEX
8
0
10
-0.401071
20
-0.030906
0
SEQEND
8
0
0
INSERT
8
0
2
EPAD
10
-0.302646
20
0.261220
41
0.080000
42
0.080000
0
CIRCLE
8
0
10
-0.302646
20
0.261220
40
0.025000
0
INSERT
8
0
2
EPAD
10
-0.202646
20
0.261220
41
0.080000
42
0.080000
0
CIRCLE
8
0
10
-0.202646
20
0.261220
40
0.025000
0
INSERT
8
0
2
EPAD
10
0.091055
20
0.261220
41
0.080000
42
0.080000
0
CIRCLE
8
0
10
0.091055
20
0.261220
40
0.025000
0
INSERT
8
0
2
EPAD
10
0.191055
20
0.261220
41
0.080000
42
0.080000
0
CIRCLE
8
0
10
0.191055
20
0.261220
40
0.025000
0
INSERT
8
0
2
EPAD
10
0.484756
20
0.261220
41
0.080000
42
0.080000
0
CIRCLE
8
0
10
0.484756
20
0.261220
40
0.025000
0
INSERT
8
0
2
EPAD
10
0.584756
20
0.261220
41
0.080000
42
0.080000
0
CIRCLE
8
0
10
0.584756
20
0.261220
40
0.025000
0
INSERT
8
0
2
EPAD
10
0.780031
20
0.261220
41
0.080000
42
0.080000
0
CIRCLE
8
0
10
0.780032
20
0.261220
40
0.025000
0
INSERT
8
0
2
EPAD
10
0.880031
20
0.261220
41
0.080000
42
0.080000
0
CIRCLE
8
0
10
0.880031
20
0.261220
40
0.025000
0
INSERT
8
0
2
EPAD
10
-0.401071
20
0.162795
41
0.070000
42
0.070000
0
CIRCLE
8
0
10
-0.401071
20
0.162795
40
0.025000
0
INSERT
8
0
2
EPAD
10
-0.401071
20
0.562795
41
0.070000
42
0.070000
0
CIRCLE
8
0
10
-0.401071
20
0.562795
40
0.025000
0
INSERT
8
0
2
RPAD
10
-0.304220
20
0.458071
41
0.080000
42
0.080000
50
0.000000
0
CIRCLE
8
0
10
-0.304220
20
0.458071
40
0.025000
0
INSERT
8
0
2
RPAD
10
-0.204220
20
0.458071
41
0.080000
42
0.080000
50
0.000000
0
CIRCLE
8
0
10
-0.204220
20
0.458071
40
0.025000
0
INSERT
8
0
2
RPAD
10
-0.104220
20
0.458071
41
0.080000
42
0.080000
50
0.000000
0
CIRCLE
8
0
10
-0.104220
20
0.458071
40
0.025000
0
INSERT
8
0
2
RPAD
10
0.089480
20
0.458071
41
0.080000
42
0.080000
50
0.000000
0
CIRCLE
8
0
10
0.089480
20
0.458071
40
0.025000
0
INSERT
8
0
2
RPAD
10
0.189480
20
0.458071
41
0.080000
42
0.080000
50
0.000000
0
CIRCLE
8
0
10
0.189480
20
0.458071
40
0.025000
0
INSERT
8
0
2
RPAD
10
0.289480
20
0.458071
41
0.080000
42
0.080000
50
0.000000
0
CIRCLE
8
0
10
0.289480
20
0.458071
40
0.025000
0
INSERT
8
0
2
RPAD
10
0.483181
20
0.458071
41
0.080000
42
0.080000
50
0.000000
0
CIRCLE
8
0
10
0.483181
20
0.458071
40
0.025000
0
INSERT
8
0
2
RPAD
10
0.583181
20
0.458071
41
0.080000
42
0.080000
50
0.000000
0
CIRCLE
8
0
10
0.583181
20
0.458071
40
0.025000
0
INSERT
8
0
2
RPAD
10
0.683181
20
0.458071
41
0.080000
42
0.080000
50
0.000000
0
CIRCLE
8
0
10
0.683181
20
0.458071
40
0.025000
0
INSERT
8
0
2
EPAD
10
-0.401071
20
-0.230906
41
0.120000
42
0.120000
0
CIRCLE
8
0
10
-0.401071
20
-0.230906
40
0.030000
0
INSERT
8
0
2
EPAD
10
-0.401071
20
-0.030906
41
0.120000
42
0.120000
0
CIRCLE
8
0
10
-0.401071
20
-0.030906
40
0.030000
0
INSERT
8
0
2
EPAD
10
0.589480
20
-0.132480
41
0.120000
42
0.120000
0
CIRCLE
8
0
10
0.589480
20
-0.132480
40
0.030000
0
INSERT
8
0
2
EPAD
10
0.389480
20
-0.132480
41
0.120000
42
0.120000
0
CIRCLE
8
0
10
0.389480
20
-0.132480
40
0.030000
0
INSERT
8
0
2
EPAD
10
0.189480
20
-0.132480
41
0.120000
42
0.120000
0
CIRCLE
8
0
10
0.189480
20
-0.132480
40
0.030000
0
INSERT
8
0
2
EPAD
10
-0.010520
20
-0.132480
41
0.120000
42
0.120000
0
CIRCLE
8
0
10
-0.010520
20
-0.132480
40
0.030000
0
POLYLINE
8
0
66
1
40
0.008000
41
0.008000
0
VERTEX
8
0
10
-0.637291
20
-0.368701
0
VERTEX
8
0
10
0.976882
20
-0.368701
0
VERTEX
8
0
10
0.976882
20
0.635236
0
VERTEX
8
0
10
-0.637291
20
0.635236
0
VERTEX
8
0
10
-0.637291
20
-0.368701
0
SEQEND
8
0
0
ENDSEC
0
EOF

